<svg xmlns="http://www.w3.org/2000/svg" width="42.134" height="9.31" viewBox="0 0 42.134 9.31">
  <g id="Group_757" data-name="Group 757" transform="translate(-1005.493 -1885.601)">
    <path id="Path_7374" data-name="Path 7374" d="M1014.794,1890.285a4.656,4.656,0,0,1-4.674,4.626,4.654,4.654,0,1,1,4.674-4.626Zm-1.541.009a3.1,3.1,0,0,0-3.12-3.159,3.19,3.19,0,0,0-3.112,3.135,3.121,3.121,0,0,0,3.119,3.1A3.053,3.053,0,0,0,1013.253,1890.294Z" transform="translate(0 0)" fill="#006cfa"/>
    <path id="Path_7375" data-name="Path 7375" d="M1043.652,1890.2a4.687,4.687,0,0,1,4.653-4.594,4.746,4.746,0,0,1,4.636,4.7,4.645,4.645,0,1,1-9.289-.106Zm4.649,3.172a3.134,3.134,0,0,0,3.121-3.049,3.186,3.186,0,0,0-3.15-3.183,3.091,3.091,0,0,0-3.081,3.143A3.046,3.046,0,0,0,1048.3,1893.369Z" transform="translate(-5.316 0)" fill="#006cfa"/>
    <path id="Path_7376" data-name="Path 7376" d="M1033.553,1890.276a4.624,4.624,0,1,1-4.637-4.674A4.685,4.685,0,0,1,1033.553,1890.276Zm-7.715-.041a3.023,3.023,0,0,0,3.058,3.133,3.083,3.083,0,0,0,3.143-3.075,3.131,3.131,0,0,0-3.083-3.156A3.082,3.082,0,0,0,1025.838,1890.235Z" transform="translate(-2.621 0)" fill="#006cfa"/>
  </g>
</svg>
