<svg xmlns="http://www.w3.org/2000/svg" width="49.789" height="18.597" viewBox="0 0 49.789 18.597">
  <g id="Group_755" data-name="Group 755" transform="translate(0)">
    <path id="Path_7347" data-name="Path 7347" d="M2992.852,1846.636h1.938q10.433,0,20.865-.006a.517.517,0,0,1,.559.341,3.9,3.9,0,0,0,3.306,2.347,3.966,3.966,0,0,0,3.86-1.857,2.8,2.8,0,0,0,.322-.608c.066-.181.165-.215.339-.222.909-.036,1.822-.048,2.725-.145a2.086,2.086,0,0,0,1.77-1.023,2.882,2.882,0,0,0,.309-1.146,11.6,11.6,0,0,0-.29-3.425,4.777,4.777,0,0,0-2.576-3.108,15.525,15.525,0,0,0-4.384-1.411c-.647-.127-1.3-.221-1.96-.288a4.139,4.139,0,0,1-1.257-.462c-2.135-.947-4.251-1.939-6.409-2.832a24.366,24.366,0,0,0-6.141-1.758,34.584,34.584,0,0,0-6.06-.246,33.52,33.52,0,0,0-3.724.3,19.064,19.064,0,0,0-3.042.818c-1.223.41-2.435.867-3.62,1.377-1.336.575-2.639,1.226-3.95,1.857a1.448,1.448,0,0,1-.793.172,10.186,10.186,0,0,0-2.806.145,2.1,2.1,0,0,0-1.664,1.5,17.794,17.794,0,0,0-1.087,5.094,4.459,4.459,0,0,0,.364,2.131,2.034,2.034,0,0,0,1.235,1.091,22.475,22.475,0,0,0,4.065.873.3.3,0,0,1,.3.239,4.091,4.091,0,0,0,5.943,2.431,4,4,0,0,0,1.809-2.048C2992.823,1846.7,2992.853,1846.635,2992.852,1846.636Zm22.961-1.291h-7.177q-7.438,0-14.875,0c-.142,0-.284-.034-.427-.037-.2,0-.24-.111-.25-.294a4.015,4.015,0,0,0-1.225-2.713,4.115,4.115,0,0,0-6.875,1.987c-.146.581-.151.606-.733.483-1.048-.221-2.089-.472-3.131-.717a.754.754,0,0,1-.552-.539,3.572,3.572,0,0,1-.189-.95,14.856,14.856,0,0,1,1.076-5.315.727.727,0,0,1,.662-.522c.888-.051,1.777-.1,2.666-.1a2.083,2.083,0,0,0,.992-.206c.717-.364,1.429-.738,2.16-1.073a44.591,44.591,0,0,1,5.861-2.34,18.21,18.21,0,0,1,2.9-.7,38.606,38.606,0,0,1,6.577-.2,23.012,23.012,0,0,1,6.493,1.245,76.2,76.2,0,0,1,7.792,3.312,9.917,9.917,0,0,0,1.674.655c.57.152,1.174.168,1.759.269a15.133,15.133,0,0,1,4.269,1.285,3.512,3.512,0,0,1,2.033,2.319,11.062,11.062,0,0,1,.273,3.2.723.723,0,0,1-.629.751c-.586.086-1.176.151-1.766.2-.368.028-.74.005-1.109.005a4.123,4.123,0,1,0-8.244.008Zm4.134,2.712a2.815,2.815,0,1,1,2.789-2.843A2.828,2.828,0,0,1,3019.947,1848.056Zm-28.159-2.81a2.808,2.808,0,1,1-2.809-2.823A2.816,2.816,0,0,1,2991.788,1845.247Z" transform="translate(-2979.075 -1830.749)" fill="#006fff"/>
    <path id="Path_7348" data-name="Path 7348" d="M3098.345,1847.968l10.437.274a.866.866,0,0,0,.942-.595.806.806,0,0,0-.459-1.005c-.987-.528-1.98-1.048-2.992-1.526a24.066,24.066,0,0,0-5.448-1.771,1.709,1.709,0,0,0-.341-.047c-1.554,0-3.108-.021-4.662.015a14.742,14.742,0,0,0-4.8,1.064,15.986,15.986,0,0,0-3.651,1.861.836.836,0,0,0,.475,1.578q4.747.062,9.495.116c.335,0,.671,0,1.006,0Zm8.538-1.069-8.42-.221v-2.144a21.1,21.1,0,0,1,2.5.183A20.577,20.577,0,0,1,3106.883,1846.9Zm-9.738-.243-7.68-.1,0-.079a15.52,15.52,0,0,1,7.685-1.875Z" transform="translate(-3075.437 -1841.494)" fill="#006fff" stroke="#fff" stroke-width="0.25"/>
  </g>
</svg>
