<svg xmlns="http://www.w3.org/2000/svg" width="42.896" height="31.433" viewBox="0 0 42.896 31.433">
  <path id="Path_7345" data-name="Path 7345" d="M2494.006,1740.667c-.551-1.121-1.06-2.167-1.585-3.206a.378.378,0,0,0-.287-.138c-.65-.015-1.3-.008-1.952-.017a.675.675,0,0,1-.729-.8.651.651,0,0,1,.676-.522c.888-.007,1.775-.012,2.663-.005.359,0,.545.251.686.545.617,1.28,1.241,2.556,1.847,3.841a.449.449,0,0,0,.481.307c.728-.016,1.456-.007,2.183-.005.581,0,.809.233.81.823,0,1.135,0,2.269.008,3.4a.859.859,0,0,0,.132.442q2.4,3.624,4.824,7.234a.469.469,0,0,0,.362.158,8.613,8.613,0,0,1,6.331,2.052.678.678,0,0,1,.173,1.03.693.693,0,0,1-1.024-.016,7.325,7.325,0,0,0-5.158-1.757,6.707,6.707,0,0,0-2.234.476l.589,1.2a6.013,6.013,0,0,1,5.032.477,5.86,5.86,0,0,1,2.7,3.307,6.017,6.017,0,1,1-8.93-3.2l-.6-1.25c-.462.377-.924.7-1.322,1.089a7.391,7.391,0,0,0-2.172,4.333,7.729,7.729,0,0,0-.06.831c-.018.508-.232.744-.743.751-.769.011-1.539,0-2.309,0l-.865,0h-10.811a6.035,6.035,0,0,1-2.538,4.256,5.964,5.964,0,0,1-3.718,1.088,6.08,6.08,0,0,1-5.74-5.336c-.594,0-1.191-.007-1.789,0s-.892-.216-.937-.807a13.19,13.19,0,0,1,1.192-6.931,10.357,10.357,0,0,1,3.639-4.148c.043-.028.084-.059.214-.151l-.414-.019a6.3,6.3,0,0,1-1.085-.069,1.977,1.977,0,0,1-1.487-2.18,2,2,0,0,1,1.983-1.746q5.7-.007,11.4,0c1.113,0,2.226-.006,3.339,0a2,2,0,0,1,.475,3.931,5.821,5.821,0,0,1-.892.093,4.016,4.016,0,0,0-.458,7.92,2.363,2.363,0,0,0,.443.065c1.808.008,3.62.082,5.423-.007a3.847,3.847,0,0,0,3.677-3.769,11.473,11.473,0,0,0-2.783-8.053,1.887,1.887,0,0,1-.545-1.422c.037-1.112.009-2.226.011-3.339,0-.536.227-.761.759-.765C2493.234,1740.665,2493.583,1740.667,2494.006,1740.667Zm8.411,12.337a.585.585,0,0,0-.04-.1q-2.242-3.365-4.491-6.724a.5.5,0,0,0-.363-.176c-1.006-.014-2.012-.009-3.018-.007a1.792,1.792,0,0,0-.228.032l.236.347c.078.115.16.228.233.346a13.614,13.614,0,0,1,2.038,7.157,5.315,5.315,0,0,1-5.456,5.49q-2.247,0-4.5,0a4.885,4.885,0,0,1-.769-.038,5.323,5.323,0,0,1-4.572-4.406c-.038-.189-.1-.244-.286-.243-1.531.007-3.062-.023-4.591.013a6.679,6.679,0,0,0-6.355,4.97c-.089.331-.128.676-.2,1.056h26.067A8.837,8.837,0,0,1,2502.417,1753Zm-.213,4.53a4.674,4.674,0,0,0,5.145,7.8,4.7,4.7,0,0,0,1.464-6.4,4.551,4.551,0,0,0-5.393-1.953c.063.135.125.27.19.4q.876,1.8,1.752,3.6a.684.684,0,0,1-.24.993.693.693,0,0,1-.962-.419c-.205-.423-.4-.849-.611-1.272C2503.107,1759.38,2502.661,1758.469,2502.2,1757.535Zm-19.034-7.507c-.151-.008-.255-.018-.359-.017-.8.008-1.6.025-2.395.024-1.322,0-2.645-.018-3.967-.022a1.307,1.307,0,0,0-.44.061,9.407,9.407,0,0,0-6.306,6.644c-.1.377-.181.761-.27,1.142a.667.667,0,0,0,.232-.269,7.784,7.784,0,0,1,6.572-4.18c1.6-.1,3.209-.025,4.814-.031.134,0,.268-.014.392-.021A5.819,5.819,0,0,1,2483.17,1750.027Zm-1.841,12.048h-9.219a4.7,4.7,0,0,0,4.686,4.012A4.639,4.639,0,0,0,2481.329,1762.075Zm-1.933-14.733h-4.11c-1.081,0-2.162,0-3.243,0a.644.644,0,0,0-.665.6.65.65,0,0,0,.542.72,1.351,1.351,0,0,0,.286.023c2.737,0,5.473-.015,8.21-.016,1.988,0,3.976.011,5.964.017a3.571,3.571,0,0,0,.449-.011.694.694,0,0,0,.6-.615.684.684,0,0,0-.465-.693,1.561,1.561,0,0,0-.413-.032Q2482.976,1747.341,2479.4,1747.343Zm18.063-5.36c-1.306,0-2.576,0-3.846.01-.058,0-.163.149-.165.231-.016.523-.01,1.047-.01,1.571,0,.284,0,.568,0,.85h4.022Z" transform="translate(-2467.945 -1735.977)" fill="#006fff"/>
</svg>
