<svg xmlns="http://www.w3.org/2000/svg" width="44.898" height="33.433" viewBox="0 0 44.898 33.433">
  <g id="Path_7345" data-name="Path 7345" transform="translate(-2466.944 -1734.977)" fill="#006fff">
    <path d="M 2504.830078125 1767.910400390625 C 2502.606201171875 1767.910522460938 2500.54736328125 1766.78125 2499.322265625 1764.889770507812 C 2498.460693359375 1763.55908203125 2498.13037109375 1761.867309570312 2498.416015625 1760.248168945312 C 2498.705078125 1758.609130859375 2499.60498046875 1757.163452148438 2500.966796875 1756.134521484375 L 2500.818359375 1755.826538085938 C 2500.532958984375 1756.048706054688 2500.263671875 1756.260986328125 2500.026123046875 1756.493530273438 C 2498.911376953125 1757.586059570312 2498.229248046875 1758.94775390625 2497.998779296875 1760.540649414062 C 2497.96435546875 1760.779541015625 2497.95361328125 1761.0234375 2497.943359375 1761.3173828125 C 2497.916015625 1762.101684570312 2497.4775390625 1762.5400390625 2496.708251953125 1762.55126953125 C 2496.448974609375 1762.555053710938 2496.173583984375 1762.556884765625 2495.842041015625 1762.556884765625 C 2495.597412109375 1762.556884765625 2495.352783203125 1762.555908203125 2495.108154296875 1762.554931640625 C 2494.869384765625 1762.553955078125 2494.630859375 1762.552978515625 2494.392333984375 1762.552978515625 C 2494.248779296875 1762.552978515625 2494.105224609375 1762.553588867188 2493.9619140625 1762.554077148438 C 2493.81689453125 1762.554565429688 2493.672119140625 1762.55517578125 2493.527099609375 1762.55517578125 L 2483.137939453125 1762.555297851562 C 2482.78857421875 1764.312255859375 2481.8916015625 1765.711791992188 2480.467041015625 1766.719848632812 C 2479.358642578125 1767.50439453125 2478.079345703125 1767.902221679688 2476.66455078125 1767.902221679688 C 2476.592041015625 1767.902221679688 2476.519287109375 1767.901245117188 2476.4462890625 1767.899169921875 C 2473.86865234375 1767.827514648438 2471 1765.975463867188 2470.2998046875 1762.562866210938 C 2470.2578125 1762.562744140625 2470.2158203125 1762.5625 2470.173828125 1762.562377929688 C 2469.9921875 1762.561767578125 2469.810546875 1762.56103515625 2469.628662109375 1762.56103515625 C 2469.362548828125 1762.56103515625 2469.143310546875 1762.5625 2468.938720703125 1762.565551757812 C 2468.924560546875 1762.565795898438 2468.910400390625 1762.56591796875 2468.896240234375 1762.56591796875 C 2467.81884765625 1762.566040039062 2467.5400390625 1761.875366210938 2467.49609375 1761.296020507812 C 2467.2900390625 1758.591552734375 2467.696044921875 1756.239990234375 2468.73779296875 1754.107299804688 C 2469.43408203125 1752.68115234375 2470.396240234375 1751.458862304688 2471.605712890625 1750.461669921875 C 2471.546630859375 1750.45263671875 2471.4873046875 1750.44140625 2471.427734375 1750.427490234375 C 2470.212646484375 1750.144653320312 2469.391357421875 1748.943969726562 2469.558349609375 1747.694091796875 C 2469.72705078125 1746.432373046875 2470.769287109375 1745.515747070312 2472.036376953125 1745.514404296875 C 2474.190185546875 1745.511962890625 2476.302978515625 1745.511596679688 2477.903076171875 1745.511596679688 L 2480.669189453125 1745.511840820312 L 2483.435302734375 1745.512084960938 C 2483.730712890625 1745.512084960938 2484.0263671875 1745.51171875 2484.32177734375 1745.51123046875 C 2484.617919921875 1745.510864257812 2484.913818359375 1745.510498046875 2485.2099609375 1745.510498046875 C 2485.8369140625 1745.510498046875 2486.320556640625 1745.512329101562 2486.7783203125 1745.516357421875 C 2488.034912109375 1745.527099609375 2489.08984375 1746.459350585938 2489.23193359375 1747.684692382812 C 2489.3818359375 1748.978759765625 2488.597412109375 1750.134521484375 2487.36669921875 1750.432983398438 C 2487.112548828125 1750.494506835938 2486.866455078125 1750.508911132812 2486.62841796875 1750.522705078125 C 2486.551513671875 1750.527221679688 2486.474609375 1750.531616210938 2486.398193359375 1750.537841796875 C 2485.606689453125 1750.602661132812 2484.8408203125 1750.973754882812 2484.24169921875 1751.582885742188 C 2483.643798828125 1752.190551757812 2483.291748046875 1752.9541015625 2483.250244140625 1753.732788085938 C 2483.203125 1754.61572265625 2483.456787109375 1755.479736328125 2483.96484375 1756.166015625 C 2484.4677734375 1756.845458984375 2485.189453125 1757.308227539062 2485.997314453125 1757.469116210938 L 2486.0654296875 1757.482788085938 C 2486.169677734375 1757.504150390625 2486.268310546875 1757.524169921875 2486.344482421875 1757.5244140625 C 2486.871826171875 1757.526611328125 2487.40673828125 1757.534545898438 2487.923828125 1757.542236328125 C 2488.530517578125 1757.55126953125 2489.157958984375 1757.560668945312 2489.7724609375 1757.560668945312 C 2490.524169921875 1757.560668945312 2491.149658203125 1757.546997070312 2491.7412109375 1757.517822265625 C 2493.511474609375 1757.430541992188 2494.917724609375 1755.991088867188 2494.942626953125 1754.240844726562 C 2494.987060546875 1751.165771484375 2494.0927734375 1748.570068359375 2492.28466796875 1746.52587890625 C 2491.798095703125 1745.975952148438 2491.59130859375 1745.429931640625 2491.6142578125 1744.75537109375 C 2491.6396484375 1744.003540039062 2491.63427734375 1743.232788085938 2491.62939453125 1742.487426757812 C 2491.626953125 1742.141967773438 2491.62451171875 1741.78466796875 2491.625244140625 1741.432373046875 C 2491.62744140625 1740.623046875 2492.0732421875 1740.174194335938 2492.880615234375 1740.167846679688 C 2492.9873046875 1740.1669921875 2493.09423828125 1740.166625976562 2493.203125 1740.16650390625 C 2492.805419921875 1739.355712890625 2492.42822265625 1738.5869140625 2492.042236328125 1737.8212890625 C 2491.6982421875 1737.814331054688 2491.3486328125 1737.813110351562 2491.009521484375 1737.81201171875 C 2490.736328125 1737.811157226562 2490.4541015625 1737.810302734375 2490.1748046875 1737.806396484375 C 2489.770263671875 1737.800537109375 2489.406982421875 1737.632446289062 2489.178466796875 1737.345092773438 C 2488.9697265625 1737.08251953125 2488.891845703125 1736.738891601562 2488.964599609375 1736.402221679688 C 2489.084228515625 1735.85009765625 2489.539794921875 1735.490356445312 2490.12548828125 1735.485595703125 C 2490.655517578125 1735.4814453125 2491.283935546875 1735.477172851562 2491.925537109375 1735.477172851562 C 2492.2158203125 1735.477172851562 2492.506103515625 1735.47802734375 2492.79638671875 1735.480102539062 C 2493.533203125 1735.4853515625 2493.831298828125 1736.104370117188 2493.929443359375 1736.307739257812 C 2494.104248046875 1736.670288085938 2494.279541015625 1737.032470703125 2494.454833984375 1737.394775390625 C 2494.8916015625 1738.296875 2495.34326171875 1739.229736328125 2495.778076171875 1740.153198242188 C 2495.78173828125 1740.160888671875 2495.784912109375 1740.16748046875 2495.787841796875 1740.17333984375 L 2495.7958984375 1740.173217773438 C 2496.085205078125 1740.166870117188 2496.3974609375 1740.163818359375 2496.7783203125 1740.163818359375 C 2497.00732421875 1740.163818359375 2497.236328125 1740.164916992188 2497.465087890625 1740.165893554688 C 2497.640625 1740.166748046875 2497.81591796875 1740.16748046875 2497.991455078125 1740.167846679688 C 2498.846435546875 1740.169311523438 2499.299072265625 1740.626342773438 2499.300537109375 1741.489624023438 C 2499.301025390625 1741.841552734375 2499.301025390625 1742.193359375 2499.30078125 1742.545288085938 C 2499.300537109375 1743.313842773438 2499.30029296875 1744.108642578125 2499.30810546875 1744.889038085938 C 2499.30859375 1744.944213867188 2499.330322265625 1745.019409179688 2499.357177734375 1745.060180664062 C 2501.090087890625 1747.67626953125 2502.65380859375 1750.021362304688 2504.135498046875 1752.226196289062 C 2504.36279296875 1752.21142578125 2504.590576171875 1752.203857421875 2504.81298828125 1752.203857421875 C 2507.027099609375 1752.203857421875 2509.033935546875 1752.941528320312 2510.778076171875 1754.396240234375 C 2511.09033203125 1754.656860351562 2511.26953125 1754.971801757812 2511.29638671875 1755.306884765625 C 2511.320068359375 1755.606811523438 2511.22021484375 1755.894409179688 2511.007568359375 1756.138549804688 C 2510.7890625 1756.389282226562 2510.491455078125 1756.52734375 2510.169189453125 1756.52734375 C 2509.865478515625 1756.52734375 2509.56005859375 1756.406494140625 2509.2861328125 1756.177612304688 C 2507.974853515625 1755.083740234375 2506.464111328125 1754.529052734375 2504.796142578125 1754.529052734375 C 2504.688232421875 1754.529052734375 2504.578125 1754.531372070312 2504.46875 1754.536010742188 C 2503.927001953125 1754.558471679688 2503.412841796875 1754.644409179688 2502.90966796875 1754.796997070312 L 2503.067138671875 1755.11865234375 C 2503.680908203125 1754.958862304688 2504.285400390625 1754.878051757812 2504.869140625 1754.878051757812 C 2505.989013671875 1754.878051757812 2507.07080078125 1755.174560546875 2508.084228515625 1755.759399414062 C 2509.49853515625 1756.575805664062 2510.4814453125 1757.78076171875 2511.005126953125 1759.3408203125 C 2512.05126953125 1762.457885742188 2510.58740234375 1765.873657226562 2507.599609375 1767.286254882812 C 2506.7236328125 1767.700439453125 2505.791748046875 1767.910400390625 2504.830078125 1767.910400390625 Z M 2472.698974609375 1762.5751953125 C 2473.126953125 1764.210205078125 2474.880126953125 1765.588989257812 2476.674072265625 1765.588989257812 C 2476.67431640625 1765.588989257812 2476.6748046875 1765.588989257812 2476.675048828125 1765.588989257812 C 2476.710205078125 1765.588989257812 2476.7451171875 1765.588500976562 2476.780517578125 1765.58740234375 C 2478.23193359375 1765.542358398438 2479.1826171875 1764.8671875 2479.724365234375 1764.308715820312 C 2480.2099609375 1763.80810546875 2480.57275390625 1763.178955078125 2480.7373046875 1762.5751953125 L 2472.698974609375 1762.5751953125 Z M 2502.021484375 1758.29931640625 C 2501.410888671875 1758.83984375 2500.96142578125 1759.580810546875 2500.758544921875 1760.400756835938 C 2500.49560546875 1761.463134765625 2500.658203125 1762.570068359375 2501.216552734375 1763.517578125 C 2501.974609375 1764.8046875 2503.31005859375 1765.572998046875 2504.789306640625 1765.572998046875 C 2505.586669921875 1765.572998046875 2506.38134765625 1765.34423828125 2507.08740234375 1764.91162109375 C 2507.991455078125 1764.357543945312 2508.630126953125 1763.456420898438 2508.885986328125 1762.374145507812 C 2509.144775390625 1761.279907226562 2508.96337890625 1760.122436523438 2508.388427734375 1759.198364257812 C 2507.47314453125 1757.727661132812 2505.942626953125 1757.20361328125 2504.8154296875 1757.20361328125 C 2504.56689453125 1757.20361328125 2504.328125 1757.228149414062 2504.1123046875 1757.274780273438 C 2504.336181640625 1757.735473632812 2504.559814453125 1758.195434570312 2504.78369140625 1758.6552734375 C 2505.126708984375 1759.360595703125 2505.4697265625 1760.066040039062 2505.812255859375 1760.771606445312 C 2506.13720703125 1761.441162109375 2505.947509765625 1762.122192382812 2505.3505859375 1762.427734375 C 2505.180908203125 1762.514770507812 2505.003173828125 1762.558837890625 2504.822509765625 1762.558837890625 C 2504.36328125 1762.558837890625 2503.947998046875 1762.268310546875 2503.71142578125 1761.781860351562 C 2503.611328125 1761.575805664062 2503.512939453125 1761.369262695312 2503.414306640625 1761.162719726562 C 2503.310546875 1760.944946289062 2503.20654296875 1760.727172851562 2503.10107421875 1760.510375976562 C 2502.782958984375 1759.856567382812 2502.463623046875 1759.203491210938 2502.14013671875 1758.541870117188 L 2502.021484375 1758.29931640625 Z M 2470.652099609375 1760.224975585938 L 2495.6982421875 1760.224975585938 C 2496.0048828125 1758.391479492188 2496.67578125 1756.829956054688 2497.6953125 1755.577880859375 C 2498.681884765625 1754.366333007812 2500.017578125 1753.4169921875 2501.671630859375 1752.75048828125 L 2501.36865234375 1752.295532226562 C 2500.103759765625 1750.396606445312 2498.796142578125 1748.433227539062 2497.5009765625 1746.507690429688 C 2497.054443359375 1746.50146484375 2496.56640625 1746.49853515625 2495.967041015625 1746.49853515625 C 2495.70947265625 1746.49853515625 2495.45166015625 1746.499145507812 2495.19384765625 1746.499755859375 C 2496.546630859375 1748.68798828125 2497.249755859375 1751.170043945312 2497.283935546875 1753.876831054688 C 2497.304443359375 1755.513793945312 2496.71435546875 1757.025146484375 2495.622314453125 1758.132568359375 C 2494.518310546875 1759.252197265625 2492.993408203125 1759.870239257812 2491.32861328125 1759.872680664062 C 2490.5341796875 1759.873901367188 2489.739501953125 1759.87451171875 2488.945068359375 1759.87451171875 C 2488.240478515625 1759.87451171875 2487.5361328125 1759.8740234375 2486.831787109375 1759.872680664062 L 2486.771728515625 1759.872680664062 C 2486.51806640625 1759.87255859375 2486.255859375 1759.87255859375 2485.984375 1759.828735351562 C 2483.39697265625 1759.411499023438 2481.601318359375 1757.723754882812 2481.035400390625 1755.187133789062 C 2480.919189453125 1755.1875 2480.8037109375 1755.187622070312 2480.6884765625 1755.187622070312 C 2480.3076171875 1755.187622070312 2479.9267578125 1755.18603515625 2479.546142578125 1755.184448242188 C 2479.166748046875 1755.182861328125 2478.78759765625 1755.181274414062 2478.408447265625 1755.181274414062 C 2477.71044921875 1755.181274414062 2477.144287109375 1755.18701171875 2476.626220703125 1755.199096679688 C 2473.8310546875 1755.264282226562 2471.46630859375 1757.113037109375 2470.74169921875 1759.799438476562 C 2470.70556640625 1759.933471679688 2470.677734375 1760.075927734375 2470.652099609375 1760.224975585938 Z M 2476.438720703125 1750.512329101562 C 2476.3232421875 1750.512329101562 2476.235595703125 1750.522827148438 2476.177978515625 1750.54345703125 C 2474.623046875 1751.104858398438 2473.335693359375 1751.905517578125 2472.352294921875 1752.9228515625 C 2471.682861328125 1753.615478515625 2471.137939453125 1754.425659179688 2470.722900390625 1755.343383789062 C 2472.170654296875 1753.860229492188 2474.0068359375 1753.044311523438 2476.207275390625 1752.910400390625 C 2476.793212890625 1752.874755859375 2477.429931640625 1752.858154296875 2478.21044921875 1752.858154296875 C 2478.653076171875 1752.858154296875 2479.10205078125 1752.863403320312 2479.5361328125 1752.868408203125 C 2479.96728515625 1752.873413085938 2480.4130859375 1752.878540039062 2480.849609375 1752.878540039062 C 2480.852294921875 1752.878540039062 2480.854736328125 1752.878540039062 2480.857421875 1752.878540039062 C 2480.915283203125 1752.878540039062 2480.972900390625 1752.87841796875 2481.031005859375 1752.878295898438 C 2481.2392578125 1751.930908203125 2481.5 1751.347778320312 2482.128173828125 1750.518310546875 C 2482.077392578125 1750.51904296875 2482.02685546875 1750.519775390625 2481.97607421875 1750.5205078125 C 2481.48876953125 1750.52734375 2480.98486328125 1750.534301757812 2480.487548828125 1750.534301757812 L 2480.41552734375 1750.534301757812 C 2479.702392578125 1750.533203125 2478.978271484375 1750.527954101562 2478.27783203125 1750.52294921875 C 2477.677734375 1750.518676757812 2477.057373046875 1750.51416015625 2476.44775390625 1750.512329101562 L 2476.438720703125 1750.512329101562 Z M 2480.593994140625 1748.17822265625 C 2481.8564453125 1748.17822265625 2483.1396484375 1748.18310546875 2484.380615234375 1748.187866210938 C 2485.0478515625 1748.1904296875 2485.715087890625 1748.192993164062 2486.38232421875 1748.19482421875 C 2486.416015625 1748.194946289062 2486.449951171875 1748.1953125 2486.48388671875 1748.19580078125 C 2486.517822265625 1748.196166992188 2486.5517578125 1748.196655273438 2486.58544921875 1748.196655273438 C 2486.638427734375 1748.196655273438 2486.70703125 1748.195678710938 2486.767822265625 1748.188110351562 C 2486.858154296875 1748.1767578125 2486.927734375 1748.106079101562 2486.937255859375 1748.016235351562 C 2486.942626953125 1747.96533203125 2486.881591796875 1747.869995117188 2486.8349609375 1747.85693359375 C 2486.786376953125 1747.843383789062 2486.6904296875 1747.843383789062 2486.638671875 1747.843383789062 L 2486.6015625 1747.843383789062 L 2486.562255859375 1747.843505859375 L 2486.555908203125 1747.843505859375 C 2485.234130859375 1747.842529296875 2483.912109375 1747.84228515625 2482.590087890625 1747.84228515625 L 2480.649169921875 1747.842407226562 L 2479.396240234375 1747.842529296875 L 2478.21533203125 1747.842529296875 L 2477.034423828125 1747.842407226562 L 2475.28662109375 1747.842651367188 L 2475.2294921875 1747.842651367188 C 2474.98046875 1747.842651367188 2474.731689453125 1747.842529296875 2474.482666015625 1747.84228515625 C 2474.234130859375 1747.842163085938 2473.9853515625 1747.841918945312 2473.73681640625 1747.841918945312 C 2473.2734375 1747.841918945312 2472.662841796875 1747.842529296875 2472.046875 1747.8466796875 C 2471.973876953125 1747.84716796875 2471.88525390625 1747.871826171875 2471.876953125 1747.987060546875 C 2471.8681640625 1748.105102539062 2471.90771484375 1748.156127929688 2472.02783203125 1748.182495117188 C 2472.0751953125 1748.19287109375 2472.14501953125 1748.1943359375 2472.206787109375 1748.1943359375 C 2473.209716796875 1748.192504882812 2474.21337890625 1748.190063476562 2475.21728515625 1748.1875 C 2476.921142578125 1748.183227539062 2478.68310546875 1748.178833007812 2480.41650390625 1748.17822265625 L 2480.593994140625 1748.17822265625 Z M 2493.93701171875 1744.144897460938 L 2496.958740234375 1744.144897460938 L 2496.958740234375 1742.482055664062 L 2496.8427734375 1742.482055664062 L 2496.236083984375 1742.48193359375 C 2495.500244140625 1742.48193359375 2494.71875 1742.48291015625 2493.94140625 1742.489379882812 C 2493.935546875 1742.803588867188 2493.936279296875 1743.121459960938 2493.936767578125 1743.431030273438 C 2493.93701171875 1743.552490234375 2493.937255859375 1743.673950195312 2493.937255859375 1743.79541015625 C 2493.93701171875 1743.911987304688 2493.93701171875 1744.028564453125 2493.93701171875 1744.144897460938 Z" stroke="none"/>
    <path d="M 2491.925537109375 1735.977172851562 C 2491.326904296875 1735.977172851562 2490.728271484375 1735.98095703125 2490.129638671875 1735.985595703125 C 2489.772216796875 1735.988525390625 2489.522216796875 1736.18994140625 2489.453369140625 1736.507934570312 C 2489.360595703125 1736.936767578125 2489.685302734375 1737.29931640625 2490.181884765625 1737.306396484375 C 2490.83251953125 1737.315551757812 2491.483154296875 1737.30810546875 2492.133544921875 1737.323120117188 C 2492.233154296875 1737.325317382812 2492.3818359375 1737.384521484375 2492.420654296875 1737.46142578125 C 2492.94580078125 1738.5 2493.454833984375 1739.54638671875 2494.005859375 1740.667358398438 C 2493.7431640625 1740.667358398438 2493.5087890625 1740.66650390625 2493.28515625 1740.66650390625 C 2493.14892578125 1740.66650390625 2493.016845703125 1740.666870117188 2492.884521484375 1740.667846679688 C 2492.352294921875 1740.671997070312 2492.126708984375 1740.8974609375 2492.125244140625 1741.433227539062 C 2492.123291015625 1742.546264648438 2492.1513671875 1743.660400390625 2492.114013671875 1744.772338867188 C 2492.094482421875 1745.347045898438 2492.273681640625 1745.758911132812 2492.6591796875 1746.194580078125 C 2494.687744140625 1748.488037109375 2495.48583984375 1751.251586914062 2495.442626953125 1754.248046875 C 2495.41357421875 1756.279663085938 2493.79296875 1757.917236328125 2491.765869140625 1758.017211914062 C 2491.102294921875 1758.050048828125 2490.437744140625 1758.060668945312 2489.7724609375 1758.060668945312 C 2488.6298828125 1758.060668945312 2487.4853515625 1758.029174804688 2486.3427734375 1758.0244140625 C 2486.19482421875 1758.02392578125 2486.046142578125 1757.988403320312 2485.899658203125 1757.95947265625 C 2483.976806640625 1757.57666015625 2482.640625 1755.770751953125 2482.7509765625 1753.706176757812 C 2482.850341796875 1751.843627929688 2484.474365234375 1750.193725585938 2486.357177734375 1750.03955078125 C 2486.655029296875 1750.015014648438 2486.9609375 1750.016845703125 2487.248779296875 1749.947021484375 C 2488.25048828125 1749.7041015625 2488.8564453125 1748.7880859375 2488.7353515625 1747.742309570312 C 2488.62255859375 1746.770629882812 2487.785400390625 1746.025024414062 2486.77392578125 1746.016357421875 C 2486.252685546875 1746.01171875 2485.731201171875 1746.010498046875 2485.2099609375 1746.010498046875 C 2484.618408203125 1746.010498046875 2484.02685546875 1746.012084960938 2483.435302734375 1746.012084960938 C 2481.591064453125 1746.012084960938 2479.7470703125 1746.011596679688 2477.903076171875 1746.011596679688 C 2475.947509765625 1746.011596679688 2473.9921875 1746.012084960938 2472.036865234375 1746.014404296875 C 2471.02392578125 1746.015502929688 2470.1875 1746.76220703125 2470.053955078125 1747.76025390625 C 2469.922119140625 1748.746948242188 2470.56005859375 1749.712158203125 2471.541259765625 1749.940551757812 C 2471.889404296875 1750.021728515625 2472.263916015625 1749.990478515625 2472.6259765625 1750.009765625 C 2472.733154296875 1750.015502929688 2472.83984375 1750.01953125 2473.0400390625 1750.028442382812 C 2472.910400390625 1750.119995117188 2472.868896484375 1750.150634765625 2472.825927734375 1750.179077148438 C 2471.239013671875 1751.233764648438 2470.0224609375 1752.615600585938 2469.18701171875 1754.326782226562 C 2468.115966796875 1756.519653320312 2467.81103515625 1758.849243164062 2467.99462890625 1761.258178710938 C 2468.03857421875 1761.837768554688 2468.3212890625 1762.06591796875 2468.896240234375 1762.06591796875 C 2468.90771484375 1762.06591796875 2468.91943359375 1762.065795898438 2468.93115234375 1762.065673828125 C 2469.163818359375 1762.062133789062 2469.396240234375 1762.06103515625 2469.628662109375 1762.06103515625 C 2469.9931640625 1762.06103515625 2470.35693359375 1762.063720703125 2470.7197265625 1762.063720703125 C 2471.2294921875 1765.54443359375 2474.057373046875 1767.33251953125 2476.460205078125 1767.3994140625 C 2476.528564453125 1767.4013671875 2476.5966796875 1767.402221679688 2476.664306640625 1767.402221679688 C 2477.947021484375 1767.402221679688 2479.1220703125 1767.059326171875 2480.17822265625 1766.311767578125 C 2481.64453125 1765.274047851562 2482.459716796875 1763.835083007812 2482.71630859375 1762.055297851562 L 2483.091552734375 1762.055297851562 C 2486.570068359375 1762.055297851562 2490.048828125 1762.055297851562 2493.527099609375 1762.05517578125 C 2493.815673828125 1762.05517578125 2494.10400390625 1762.052978515625 2494.392333984375 1762.052978515625 C 2494.875732421875 1762.053100585938 2495.35888671875 1762.056884765625 2495.842041015625 1762.056884765625 C 2496.12841796875 1762.056884765625 2496.41455078125 1762.055541992188 2496.700927734375 1762.05126953125 C 2497.211669921875 1762.043823242188 2497.426025390625 1761.807373046875 2497.443603515625 1761.2998046875 C 2497.453369140625 1761.022338867188 2497.46435546875 1760.7431640625 2497.50390625 1760.468994140625 C 2497.74755859375 1758.78515625 2498.46044921875 1757.327880859375 2499.67626953125 1756.13623046875 C 2500.07373046875 1755.7470703125 2500.535888671875 1755.424438476562 2500.997802734375 1755.047729492188 C 2501.226318359375 1755.521484375 2501.41455078125 1755.911865234375 2501.6005859375 1756.2978515625 C 2498.462158203125 1758.383422851562 2498.17919921875 1762.20458984375 2499.741943359375 1764.617919921875 C 2500.90185546875 1766.409057617188 2502.83642578125 1767.410400390625 2504.830078125 1767.410400390625 C 2505.690185546875 1767.410400390625 2506.5615234375 1767.223999023438 2507.385986328125 1766.834228515625 C 2510.13720703125 1765.533447265625 2511.49755859375 1762.379150390625 2510.531005859375 1759.499877929688 C 2510.04931640625 1758.06494140625 2509.148681640625 1756.951171875 2507.834228515625 1756.192504882812 C 2506.876953125 1755.640014648438 2505.888427734375 1755.378051757812 2504.869140625 1755.378051757812 C 2504.193603515625 1755.378051757812 2503.50439453125 1755.4931640625 2502.80224609375 1755.715209960938 C 2502.606201171875 1755.314086914062 2502.4150390625 1754.923706054688 2502.213623046875 1754.511962890625 C 2502.947998046875 1754.21875 2503.687744140625 1754.067993164062 2504.447998046875 1754.036376953125 C 2504.56494140625 1754.031494140625 2504.6806640625 1754.029052734375 2504.796142578125 1754.029052734375 C 2506.597900390625 1754.029052734375 2508.20166015625 1754.621826171875 2509.6064453125 1755.793823242188 C 2509.793212890625 1755.949584960938 2509.988525390625 1756.02734375 2510.169189453125 1756.02734375 C 2510.34375 1756.02734375 2510.504638671875 1755.954833984375 2510.630615234375 1755.810180664062 C 2510.904296875 1755.495971679688 2510.844970703125 1755.103271484375 2510.457763671875 1754.780151367188 C 2508.800537109375 1753.397705078125 2506.92041015625 1752.703857421875 2504.81298828125 1752.703857421875 C 2504.5869140625 1752.703857421875 2504.35791015625 1752.7119140625 2504.12646484375 1752.727905273438 C 2504.120361328125 1752.728271484375 2504.114013671875 1752.728515625 2504.107421875 1752.728515625 C 2503.989013671875 1752.728515625 2503.823974609375 1752.6591796875 2503.76416015625 1752.56982421875 C 2502.1474609375 1750.16455078125 2500.540771484375 1747.752319335938 2498.940185546875 1745.336059570312 C 2498.8583984375 1745.21240234375 2498.8095703125 1745.042846679688 2498.80810546875 1744.89404296875 C 2498.796875 1743.759521484375 2498.802490234375 1742.625122070312 2498.800537109375 1741.490478515625 C 2498.799560546875 1740.900512695312 2498.571044921875 1740.668823242188 2497.990478515625 1740.667846679688 C 2497.58642578125 1740.667114257812 2497.182373046875 1740.663818359375 2496.778076171875 1740.663818359375 C 2496.45458984375 1740.663818359375 2496.130859375 1740.665893554688 2495.80712890625 1740.673095703125 C 2495.79931640625 1740.673217773438 2495.7919921875 1740.67333984375 2495.784423828125 1740.67333984375 C 2495.549072265625 1740.67333984375 2495.429443359375 1740.586669921875 2495.32568359375 1740.3662109375 C 2494.720458984375 1739.080810546875 2494.095947265625 1737.8046875 2493.47900390625 1736.524780273438 C 2493.337646484375 1736.2314453125 2493.15185546875 1735.982666015625 2492.79296875 1735.980102539062 C 2492.503662109375 1735.97802734375 2492.214599609375 1735.977172851562 2491.925537109375 1735.977172851562 M 2497.458740234375 1744.644897460938 L 2493.43701171875 1744.644897460938 C 2493.43701171875 1744.363159179688 2493.436767578125 1744.078979492188 2493.437255859375 1743.794921875 C 2493.437744140625 1743.271118164062 2493.431640625 1742.746948242188 2493.447509765625 1742.223876953125 C 2493.449951171875 1742.141723632812 2493.55419921875 1741.993041992188 2493.612548828125 1741.992431640625 C 2494.482421875 1741.983276367188 2495.352294921875 1741.98193359375 2496.23388671875 1741.98193359375 C 2496.639404296875 1741.98193359375 2497.04736328125 1741.982177734375 2497.458740234375 1741.982177734375 L 2497.458740234375 1744.644897460938 M 2496.128662109375 1760.724975585938 L 2470.061279296875 1760.724975585938 C 2470.130859375 1760.345092773438 2470.169677734375 1760.000366210938 2470.259033203125 1759.669189453125 C 2471.041259765625 1756.769165039062 2473.5810546875 1754.77001953125 2476.614501953125 1754.69921875 C 2477.21240234375 1754.685180664062 2477.810302734375 1754.681274414062 2478.408447265625 1754.681274414062 C 2479.168212890625 1754.681274414062 2479.928466796875 1754.687622070312 2480.6884765625 1754.687622070312 C 2480.86083984375 1754.687622070312 2481.033447265625 1754.687377929688 2481.205810546875 1754.6865234375 C 2481.20751953125 1754.6865234375 2481.208984375 1754.6865234375 2481.21044921875 1754.6865234375 C 2481.39208984375 1754.6865234375 2481.45458984375 1754.7421875 2481.491943359375 1754.929565429688 C 2481.97412109375 1757.339599609375 2483.640869140625 1758.9443359375 2486.064208984375 1759.335083007812 C 2486.31591796875 1759.375732421875 2486.576416015625 1759.372314453125 2486.832763671875 1759.372680664062 C 2487.536865234375 1759.3740234375 2488.240966796875 1759.37451171875 2488.945068359375 1759.37451171875 C 2489.7392578125 1759.37451171875 2490.53369140625 1759.373901367188 2491.327880859375 1759.372680664062 C 2494.463134765625 1759.368041992188 2496.8232421875 1757.017822265625 2496.783935546875 1753.883178710938 C 2496.751708984375 1751.321044921875 2496.109619140625 1748.916625976562 2494.745849609375 1746.725830078125 C 2494.672607421875 1746.60791015625 2494.591064453125 1746.494873046875 2494.512939453125 1746.3798828125 C 2494.44189453125 1746.274658203125 2494.3701171875 1746.169799804688 2494.277099609375 1746.033203125 C 2494.371826171875 1746.019287109375 2494.438232421875 1746.00146484375 2494.504638671875 1746.001342773438 C 2494.9921875 1746.000366210938 2495.4794921875 1745.99853515625 2495.967041015625 1745.99853515625 C 2496.485595703125 1745.99853515625 2497.004150390625 1746.000610351562 2497.5224609375 1746.007934570312 C 2497.646728515625 1746.009643554688 2497.81982421875 1746.085693359375 2497.8857421875 1746.183959960938 C 2499.39013671875 1748.420288085938 2500.882568359375 1750.664428710938 2502.376953125 1752.907592773438 C 2502.3935546875 1752.932739257812 2502.400634765625 1752.96435546875 2502.416748046875 1753.004760742188 C 2498.727783203125 1754.289916992188 2496.64501953125 1756.849853515625 2496.128662109375 1760.724975585938 M 2475.2294921875 1747.342651367188 C 2475.248291015625 1747.342651367188 2475.267333984375 1747.342651367188 2475.286376953125 1747.342651367188 C 2475.869140625 1747.342529296875 2476.45166015625 1747.342407226562 2477.034423828125 1747.342407226562 C 2477.82177734375 1747.342407226562 2478.60888671875 1747.342529296875 2479.396240234375 1747.342529296875 C 2480.4609375 1747.342529296875 2481.525390625 1747.34228515625 2482.590087890625 1747.34228515625 C 2483.912109375 1747.34228515625 2485.234375 1747.342529296875 2486.556396484375 1747.343505859375 C 2486.558349609375 1747.343505859375 2486.560302734375 1747.343505859375 2486.562255859375 1747.343505859375 C 2486.587646484375 1747.343505859375 2486.613037109375 1747.343383789062 2486.638671875 1747.343383789062 C 2486.750732421875 1747.343383789062 2486.86474609375 1747.346069335938 2486.969482421875 1747.375366210938 C 2487.257568359375 1747.455810546875 2487.46484375 1747.782104492188 2487.4345703125 1748.06884765625 C 2487.401123046875 1748.384887695312 2487.154541015625 1748.6435546875 2486.829833984375 1748.684204101562 C 2486.749267578125 1748.694213867188 2486.66748046875 1748.696655273438 2486.58544921875 1748.696655273438 C 2486.517333984375 1748.696655273438 2486.448974609375 1748.694946289062 2486.380859375 1748.69482421875 C 2484.45166015625 1748.689453125 2482.52294921875 1748.67822265625 2480.593994140625 1748.67822265625 C 2480.534912109375 1748.67822265625 2480.475830078125 1748.67822265625 2480.416748046875 1748.67822265625 C 2477.679931640625 1748.67919921875 2474.943603515625 1748.689453125 2472.206787109375 1748.6943359375 C 2472.111083984375 1748.6943359375 2472.01318359375 1748.691162109375 2471.92041015625 1748.6708984375 C 2471.555419921875 1748.590698242188 2471.351318359375 1748.315185546875 2471.378173828125 1747.95068359375 C 2471.4033203125 1747.605590820312 2471.6708984375 1747.34912109375 2472.04345703125 1747.3466796875 C 2472.60791015625 1747.342895507812 2473.17236328125 1747.341918945312 2473.73681640625 1747.341918945312 C 2474.234375 1747.341918945312 2474.73193359375 1747.342651367188 2475.2294921875 1747.342651367188 M 2480.849609375 1753.378540039062 C 2479.970458984375 1753.378540039062 2479.08984375 1753.358154296875 2478.21044921875 1753.358154296875 C 2477.552001953125 1753.358154296875 2476.893798828125 1753.36962890625 2476.237548828125 1753.409545898438 C 2473.30126953125 1753.588134765625 2471.12646484375 1755.049072265625 2469.665283203125 1757.589965820312 C 2469.609619140625 1757.686767578125 2469.554443359375 1757.784057617188 2469.43310546875 1757.85888671875 C 2469.5224609375 1757.478149414062 2469.6005859375 1757.093994140625 2469.703125 1756.716674804688 C 2470.613037109375 1753.371948242188 2472.797119140625 1751.232543945312 2476.0087890625 1750.072998046875 C 2476.142333984375 1750.02490234375 2476.294677734375 1750.012329101562 2476.438720703125 1750.012329101562 C 2476.4423828125 1750.012329101562 2476.44580078125 1750.012329101562 2476.44921875 1750.012329101562 C 2477.771728515625 1750.016357421875 2479.093994140625 1750.0322265625 2480.416259765625 1750.034301757812 C 2480.43994140625 1750.034301757812 2480.463623046875 1750.034301757812 2480.487548828125 1750.034301757812 C 2481.26171875 1750.034301757812 2482.0361328125 1750.017333984375 2482.810791015625 1750.010009765625 C 2482.81494140625 1750.010009765625 2482.81884765625 1750.010009765625 2482.822998046875 1750.010009765625 C 2482.9228515625 1750.010009765625 2483.024169921875 1750.019897460938 2483.169677734375 1750.027221679688 C 2481.978515625 1751.431030273438 2481.712158203125 1751.9462890625 2481.443603515625 1753.356689453125 C 2481.3193359375 1753.36376953125 2481.185302734375 1753.377685546875 2481.05126953125 1753.378173828125 C 2480.98388671875 1753.37841796875 2480.9169921875 1753.378540039062 2480.849609375 1753.378540039062 M 2504.789306640625 1766.072998046875 C 2503.19140625 1766.072998046875 2501.662109375 1765.25927734375 2500.78564453125 1763.771362304688 C 2499.464111328125 1761.528076171875 2500.267578125 1758.784912109375 2502.2041015625 1757.534545898438 C 2502.66064453125 1758.468872070312 2503.10693359375 1759.379638671875 2503.550537109375 1760.29150390625 C 2503.75634765625 1760.71435546875 2503.955810546875 1761.140380859375 2504.1611328125 1761.563232421875 C 2504.317138671875 1761.884155273438 2504.560791015625 1762.058837890625 2504.822509765625 1762.058837890625 C 2504.92138671875 1762.058837890625 2505.022705078125 1762.033935546875 2505.122802734375 1761.982666015625 C 2505.47802734375 1761.80078125 2505.571533203125 1761.4208984375 2505.3623046875 1760.989868164062 C 2504.779052734375 1759.787963867188 2504.19384765625 1758.586669921875 2503.610107421875 1757.385131835938 C 2503.544677734375 1757.251098632812 2503.4833984375 1757.115600585938 2503.420166015625 1756.98095703125 C 2503.791015625 1756.803955078125 2504.277099609375 1756.70361328125 2504.8154296875 1756.70361328125 C 2506.153076171875 1756.70361328125 2507.811279296875 1757.324462890625 2508.81298828125 1758.934204101562 C 2510.1484375 1761.08056640625 2509.48193359375 1764.030395507812 2507.3486328125 1765.337890625 C 2506.536865234375 1765.835327148438 2505.653076171875 1766.072998046875 2504.789306640625 1766.072998046875 M 2476.674072265625 1766.088989257812 C 2474.447509765625 1766.088989257812 2472.270751953125 1764.210815429688 2472.10986328125 1762.0751953125 L 2481.3291015625 1762.0751953125 C 2481.219482421875 1763.697998046875 2479.627685546875 1765.999389648438 2476.7958984375 1766.087158203125 C 2476.755126953125 1766.08837890625 2476.714599609375 1766.088989257812 2476.674072265625 1766.088989257812 M 2491.925537109375 1734.977172851562 C 2492.217041015625 1734.977172851562 2492.50830078125 1734.97802734375 2492.800048828125 1734.980102539062 C 2493.2783203125 1734.983520507812 2493.9404296875 1735.178955078125 2494.3798828125 1736.090698242188 C 2494.554443359375 1736.452880859375 2494.729736328125 1736.81494140625 2494.905029296875 1737.176879882812 C 2495.29931640625 1737.99169921875 2495.7060546875 1738.83154296875 2496.101806640625 1739.667846679688 C 2496.306640625 1739.665161132812 2496.52783203125 1739.663818359375 2496.778076171875 1739.663818359375 C 2497.007568359375 1739.663818359375 2497.23681640625 1739.664916992188 2497.46630859375 1739.665893554688 C 2497.6416015625 1739.666748046875 2497.81689453125 1739.66748046875 2497.9921875 1739.667846679688 C 2499.12255859375 1739.669799804688 2499.798583984375 1740.350463867188 2499.800537109375 1741.48876953125 C 2499.801025390625 1741.840942382812 2499.801025390625 1742.193237304688 2499.80078125 1742.54541015625 C 2499.800537109375 1743.296508789062 2499.80029296875 1744.072631835938 2499.8076171875 1744.834716796875 C 2501.46435546875 1747.335693359375 2502.96728515625 1749.58984375 2504.392578125 1751.712158203125 C 2504.53369140625 1751.706665039062 2504.67431640625 1751.703857421875 2504.81298828125 1751.703857421875 C 2507.147216796875 1751.703857421875 2509.261962890625 1752.48046875 2511.098388671875 1754.01220703125 C 2511.62646484375 1754.453002929688 2511.7685546875 1754.93798828125 2511.794677734375 1755.267211914062 C 2511.828857421875 1755.697998046875 2511.683349609375 1756.1240234375 2511.384765625 1756.467041015625 C 2511.103759765625 1756.789306640625 2510.72998046875 1756.982421875 2510.31982421875 1757.020385742188 C 2510.8193359375 1757.649047851562 2511.206787109375 1758.370849609375 2511.47900390625 1759.181640625 C 2512.60595703125 1762.538818359375 2511.030029296875 1766.217407226562 2507.8134765625 1767.73828125 C 2506.869873046875 1768.184326171875 2505.8662109375 1768.410400390625 2504.830078125 1768.410400390625 C 2502.43603515625 1768.410400390625 2500.22021484375 1767.195922851562 2498.902587890625 1765.161499023438 C 2498.40771484375 1764.397338867188 2498.0751953125 1763.5234375 2497.918701171875 1762.610473632812 C 2497.622314453125 1762.887451171875 2497.211669921875 1763.0439453125 2496.715576171875 1763.051147460938 C 2496.4541015625 1763.055053710938 2496.176513671875 1763.056884765625 2495.842041015625 1763.056884765625 C 2495.596435546875 1763.056884765625 2495.35107421875 1763.055908203125 2495.105712890625 1763.054931640625 C 2494.867919921875 1763.053955078125 2494.630126953125 1763.052978515625 2494.39208984375 1763.052978515625 C 2494.24951171875 1763.052978515625 2494.106689453125 1763.053466796875 2493.963623046875 1763.054077148438 C 2493.818115234375 1763.054565429688 2493.672607421875 1763.05517578125 2493.527099609375 1763.05517578125 L 2483.5380859375 1763.055297851562 C 2483.11181640625 1764.753784179688 2482.1787109375 1766.12109375 2480.755859375 1767.128051757812 C 2479.561279296875 1767.973510742188 2478.184814453125 1768.402221679688 2476.664306640625 1768.402221679688 C 2476.58740234375 1768.402221679688 2476.510009765625 1768.401245117188 2476.432373046875 1768.399047851562 C 2473.755615234375 1768.324462890625 2470.788330078125 1766.47509765625 2469.90234375 1763.0615234375 C 2469.811279296875 1763.061279296875 2469.719970703125 1763.06103515625 2469.628662109375 1763.06103515625 C 2469.364990234375 1763.06103515625 2469.148193359375 1763.0625 2468.9462890625 1763.065551757812 C 2468.9296875 1763.065795898438 2468.912841796875 1763.06591796875 2468.896240234375 1763.06591796875 C 2467.789794921875 1763.06591796875 2467.079833984375 1762.41845703125 2466.99755859375 1761.333984375 C 2466.784423828125 1758.538330078125 2467.206787109375 1756.102661132812 2468.28857421875 1753.887939453125 C 2468.885986328125 1752.664184570312 2469.67041015625 1751.584228515625 2470.63134765625 1750.66015625 C 2469.556884765625 1750.095336914062 2468.895263671875 1748.882080078125 2469.062744140625 1747.627807617188 C 2469.159423828125 1746.9052734375 2469.51123046875 1746.243530273438 2470.05322265625 1745.764282226562 C 2470.599365234375 1745.281494140625 2471.303466796875 1745.015258789062 2472.035888671875 1745.014404296875 C 2474.191162109375 1745.011962890625 2476.303466796875 1745.011596679688 2477.903076171875 1745.011596679688 L 2480.669189453125 1745.011840820312 L 2483.435302734375 1745.012084960938 C 2483.73046875 1745.012084960938 2484.02587890625 1745.01171875 2484.3212890625 1745.01123046875 C 2484.617431640625 1745.010864257812 2484.91357421875 1745.010498046875 2485.2099609375 1745.010498046875 C 2485.83837890625 1745.010498046875 2486.323486328125 1745.012329101562 2486.78271484375 1745.016357421875 C 2488.290771484375 1745.029296875 2489.557373046875 1746.151611328125 2489.728759765625 1747.626953125 C 2489.907958984375 1749.175659179688 2488.964111328125 1750.56005859375 2487.484375 1750.918823242188 C 2487.1865234375 1750.991088867188 2486.905517578125 1751.007446289062 2486.6572265625 1751.021850585938 C 2486.58447265625 1751.026123046875 2486.51171875 1751.0302734375 2486.439208984375 1751.0361328125 C 2485.0537109375 1751.149658203125 2483.822265625 1752.396728515625 2483.74951171875 1753.759399414062 C 2483.665283203125 1755.337524414062 2484.651611328125 1756.69140625 2486.094970703125 1756.978759765625 L 2486.165283203125 1756.992919921875 C 2486.228759765625 1757.005859375 2486.31591796875 1757.023559570312 2486.346923828125 1757.0244140625 C 2486.876708984375 1757.026611328125 2487.412841796875 1757.03466796875 2487.931396484375 1757.042358398438 C 2488.5361328125 1757.051391601562 2489.16162109375 1757.060668945312 2489.7724609375 1757.060668945312 C 2490.515625 1757.060668945312 2491.13330078125 1757.047241210938 2491.716552734375 1757.018432617188 C 2493.22412109375 1756.944091796875 2494.42138671875 1755.720947265625 2494.442626953125 1754.233764648438 C 2494.48583984375 1751.245361328125 2493.657470703125 1748.83251953125 2491.91015625 1746.857055664062 C 2491.340087890625 1746.213012695312 2491.08740234375 1745.539672851562 2491.114501953125 1744.738403320312 C 2491.139404296875 1743.996826171875 2491.13427734375 1743.231201171875 2491.12939453125 1742.490844726562 C 2491.126953125 1742.144287109375 2491.12451171875 1741.785888671875 2491.125244140625 1741.431518554688 C 2491.127685546875 1740.512084960938 2491.61474609375 1739.885864257812 2492.42431640625 1739.714965820312 C 2492.19091796875 1739.240112304688 2491.962158203125 1738.776733398438 2491.7314453125 1738.31640625 C 2491.4892578125 1738.313598632812 2491.24609375 1738.312866210938 2491.00830078125 1738.31201171875 C 2490.733642578125 1738.311157226562 2490.44970703125 1738.310302734375 2490.167724609375 1738.306274414062 C 2489.612548828125 1738.29833984375 2489.109375 1738.061401367188 2488.787109375 1737.65625 C 2488.48486328125 1737.27587890625 2488.371337890625 1736.7802734375 2488.47607421875 1736.296508789062 C 2488.644287109375 1735.51904296875 2489.3056640625 1734.992309570312 2490.121337890625 1734.985595703125 C 2490.652587890625 1734.9814453125 2491.281982421875 1734.977172851562 2491.925537109375 1734.977172851562 Z M 2496.458740234375 1742.98193359375 L 2496.23388671875 1742.98193359375 C 2495.65478515625 1742.98193359375 2495.047607421875 1742.982543945312 2494.436767578125 1742.985961914062 C 2494.436279296875 1743.131713867188 2494.4365234375 1743.279296875 2494.436767578125 1743.430053710938 C 2494.43701171875 1743.501708984375 2494.437255859375 1743.5732421875 2494.437255859375 1743.644897460938 L 2496.458740234375 1743.644897460938 L 2496.458740234375 1742.98193359375 Z M 2497.232421875 1747.00439453125 C 2496.8828125 1747.000732421875 2496.50146484375 1746.998779296875 2496.058837890625 1746.998657226562 C 2497.172607421875 1749.073120117188 2497.75244140625 1751.380615234375 2497.783935546875 1753.87060546875 C 2497.78759765625 1754.175170898438 2497.77197265625 1754.475830078125 2497.737060546875 1754.77099609375 C 2498.598388671875 1753.856567382812 2499.660888671875 1753.108154296875 2500.9228515625 1752.528198242188 C 2499.715087890625 1750.714965820312 2498.468994140625 1748.84423828125 2497.232421875 1747.00439453125 Z M 2480.487548828125 1751.034301757812 L 2480.4150390625 1751.034301757812 C 2479.7001953125 1751.033203125 2478.975341796875 1751.027954101562 2478.274169921875 1751.02294921875 C 2477.6748046875 1751.018676757812 2477.054931640625 1751.01416015625 2476.446044921875 1751.012329101562 L 2476.438720703125 1751.012329101562 C 2476.3779296875 1751.012329101562 2476.346923828125 1751.016235351562 2476.3359375 1751.01806640625 C 2474.8271484375 1751.564331054688 2473.609375 1752.324462890625 2472.66943359375 1753.312255859375 C 2473.72265625 1752.79150390625 2474.8984375 1752.489135742188 2476.1767578125 1752.411376953125 C 2476.773193359375 1752.375122070312 2477.41943359375 1752.358154296875 2478.21044921875 1752.358154296875 C 2478.656005859375 1752.358154296875 2479.1064453125 1752.363403320312 2479.5419921875 1752.368408203125 C 2479.90185546875 1752.37255859375 2480.27197265625 1752.376831054688 2480.637451171875 1752.378173828125 C 2480.77099609375 1751.875610351562 2480.935546875 1751.459716796875 2481.18212890625 1751.030517578125 C 2480.950927734375 1751.032836914062 2480.71875 1751.034301757812 2480.487548828125 1751.034301757812 Z M 2480.646240234375 1755.687622070312 C 2480.279052734375 1755.6875 2479.91162109375 1755.68603515625 2479.544189453125 1755.684448242188 C 2479.16552734375 1755.682861328125 2478.786865234375 1755.681274414062 2478.408447265625 1755.681274414062 C 2477.714599609375 1755.681274414062 2477.15185546875 1755.686889648438 2476.637939453125 1755.698974609375 C 2474.137939453125 1755.75732421875 2472.012451171875 1757.365600585938 2471.28369140625 1759.724975585938 L 2483.972412109375 1759.724975585938 C 2483.36962890625 1759.435913085938 2482.8251953125 1759.061401367188 2482.3564453125 1758.609741210938 C 2481.554443359375 1757.837158203125 2480.9697265625 1756.835327148438 2480.646240234375 1755.687622070312 Z M 2504.789306640625 1765.072998046875 C 2505.494384765625 1765.072998046875 2506.19873046875 1764.869750976562 2506.826171875 1764.485229492188 C 2507.61572265625 1764.001342773438 2508.174560546875 1763.210693359375 2508.3994140625 1762.259155273438 C 2508.627685546875 1761.293579101562 2508.468994140625 1760.274291992188 2507.9638671875 1759.462524414062 C 2507.173583984375 1758.1923828125 2505.863525390625 1757.723022460938 2504.876953125 1757.704223632812 C 2504.995849609375 1757.948486328125 2505.114501953125 1758.192504882812 2505.233154296875 1758.436645507812 C 2505.576416015625 1759.14208984375 2505.91943359375 1759.847534179688 2506.261962890625 1760.553344726562 C 2506.70556640625 1761.46728515625 2506.418212890625 1762.44287109375 2505.57861328125 1762.872802734375 C 2505.33740234375 1762.996215820312 2505.0830078125 1763.058837890625 2504.822509765625 1763.058837890625 C 2504.16748046875 1763.058837890625 2503.583984375 1762.6630859375 2503.26171875 1762.000366210938 C 2503.1611328125 1761.793212890625 2503.06201171875 1761.585571289062 2502.963134765625 1761.378051757812 C 2502.859619140625 1761.161499023438 2502.75634765625 1760.94482421875 2502.6513671875 1760.729125976562 C 2502.399169921875 1760.210693359375 2502.146240234375 1759.69287109375 2501.890869140625 1759.170776367188 C 2501.590087890625 1759.564575195312 2501.3662109375 1760.026123046875 2501.243896484375 1760.520751953125 C 2501.012451171875 1761.455444335938 2501.15576171875 1762.429565429688 2501.647216796875 1763.263793945312 C 2502.314453125 1764.396728515625 2503.489013671875 1765.072998046875 2504.789306640625 1765.072998046875 Z M 2495.281494140625 1759.724975585938 C 2495.334228515625 1759.461059570312 2495.39453125 1759.203369140625 2495.46240234375 1758.951293945312 C 2495.0849609375 1759.25634765625 2494.674072265625 1759.51513671875 2494.236328125 1759.724975585938 L 2495.281494140625 1759.724975585938 Z M 2480.00146484375 1763.0751953125 L 2473.431396484375 1763.0751953125 C 2474.03125 1764.204467773438 2475.3583984375 1765.088989257812 2476.674072265625 1765.088989257812 C 2476.704345703125 1765.088989257812 2476.734619140625 1765.088623046875 2476.764892578125 1765.087646484375 C 2478.454345703125 1765.035278320312 2479.5078125 1764.02685546875 2480.00146484375 1763.0751953125 Z" stroke="none" fill="#fff"/>
  </g>
</svg>
