<svg xmlns="http://www.w3.org/2000/svg" xmlns:xlink="http://www.w3.org/1999/xlink" width="30" height="30" viewBox="0 0 30 30">
  <defs>
    <clipPath id="clip-path">
      <rect id="Rectangle_16" data-name="Rectangle 16" width="30" height="30" transform="translate(0.378 0.378)" fill="#fff" stroke="#707070" stroke-width="2"/>
    </clipPath>
  </defs>
  <g id="Group_507" data-name="Group 507" transform="translate(-125.378 -753.378)" style="isolation: isolate">
    <g id="Profile" transform="translate(125 753)" clip-path="url(#clip-path)">
      <g id="Icon_ionic-ios-wallet" data-name="Icon ionic-ios-wallet" transform="translate(2.43 2.43)">
        <g id="Path_84" data-name="Path 84" transform="translate(-3.375 -5.175)" fill="none">
          <path d="M25.9,11.25H7.172a3.8,3.8,0,0,0-3.8,3.8v10.63a3.8,3.8,0,0,0,3.8,3.8H25.9a3.8,3.8,0,0,0,3.8-3.8V15.047A3.8,3.8,0,0,0,25.9,11.25Z" stroke="none"/>
          <path d="M 7.171588897705078 13.2500057220459 C 6.180948257446289 13.2500057220459 5.374998092651367 14.05594635009766 5.374998092651367 15.04658699035645 L 5.374998092651367 25.67703628540039 C 5.374998092651367 26.66767501831055 6.180948257446289 27.47362518310547 7.171588897705078 27.47362518310547 L 25.90142822265625 27.47362518310547 C 26.89206886291504 27.47362518310547 27.69801902770996 26.66767501831055 27.69801902770996 25.67703628540039 L 27.69801902770996 15.04658699035645 C 27.69801902770996 14.05594635009766 26.89206886291504 13.2500057220459 25.90142822265625 13.2500057220459 L 7.171588897705078 13.2500057220459 M 7.171588897705078 11.2500057220459 L 25.90142822265625 11.2500057220459 C 27.99587821960449 11.2500057220459 29.69801902770996 12.9521369934082 29.69801902770996 15.04658699035645 L 29.69801902770996 25.67703628540039 C 29.69801902770996 27.7714958190918 27.99587821960449 29.47362518310547 25.90142822265625 29.47362518310547 L 7.171588897705078 29.47362518310547 C 5.077138900756836 29.47362518310547 3.374998092651367 27.7714958190918 3.374998092651367 25.67703628540039 L 3.374998092651367 15.04658699035645 C 3.374998092651367 12.9521369934082 5.077138900756836 11.2500057220459 7.171588897705078 11.2500057220459 Z" stroke="none" fill="#fff"/>
        </g>
        <g id="Path_85" data-name="Path 85" transform="translate(-3.488 -4.499)" fill="none">
          <path d="M22.148,4.563,7.284,7.468c-1.139.253-2.784,1.4-2.784,2.79a3.987,3.987,0,0,1,3.1-1.2h18.16v-1.3a3.633,3.633,0,0,0-.88-2.379h0A2.993,2.993,0,0,0,22.148,4.563Z" stroke="none"/>
          <path d="M 22.76240539550781 4.499209403991699 C 23.55016899108887 4.499212265014648 24.31353378295898 4.8116455078125 24.8813591003418 5.379463195800781 C 25.44452095031738 5.942623138427734 25.76090049743652 6.961373329162598 25.76090049743652 7.758663177490234 L 25.76090049743652 9.05583381652832 L 7.600549697875977 9.05583381652832 C 5.449150085449219 9.05583381652832 4.5 10.25808334350586 4.5 10.25808334350586 C 4.5 8.865993499755859 6.145191192626953 7.720693588256836 7.284170150756836 7.467583179473877 L 22.1478099822998 4.563193321228027 C 22.35233116149902 4.520205497741699 22.55818367004395 4.499208450317383 22.76240539550781 4.499209403991699 Z" stroke="none" fill="#fff"/>
        </g>
      </g>
    </g>
  </g>
</svg>
