<svg xmlns="http://www.w3.org/2000/svg" xmlns:xlink="http://www.w3.org/1999/xlink" width="50.396" height="57.922" viewBox="0 0 50.396 57.922">
  <defs>
    <filter id="Path_7244" x="0" y="14.147" width="42.333" height="43.776" filterUnits="userSpaceOnUse">
      <feOffset dy="3" input="SourceAlpha"/>
      <feGaussianBlur stdDeviation="3" result="blur"/>
      <feFlood flood-opacity="0.161"/>
      <feComposite operator="in" in2="blur"/>
      <feComposite in="SourceGraphic"/>
    </filter>
    <filter id="Path_7245" x="0.138" y="0" width="50.259" height="49.635" filterUnits="userSpaceOnUse">
      <feOffset dy="3" input="SourceAlpha"/>
      <feGaussianBlur stdDeviation="3" result="blur-2"/>
      <feFlood flood-opacity="0.161"/>
      <feComposite operator="in" in2="blur-2"/>
      <feComposite in="SourceGraphic"/>
    </filter>
    <filter id="Path_7246" x="6.647" y="7.551" width="36.37" height="35.358" filterUnits="userSpaceOnUse">
      <feOffset dy="3" input="SourceAlpha"/>
      <feGaussianBlur stdDeviation="3" result="blur-3"/>
      <feFlood flood-opacity="0.161"/>
      <feComposite operator="in" in2="blur-3"/>
      <feComposite in="SourceGraphic"/>
    </filter>
  </defs>
  <g id="Group_646" data-name="Group 646" transform="translate(-879.539 -1608.563)">
    <g transform="matrix(1, 0, 0, 1, 879.54, 1608.56)" filter="url(#Path_7244)">
      <g id="Path_7244-2" data-name="Path 7244" transform="translate(-879.54 -1789.74)" fill="#006cfa" stroke-linecap="round">
        <path d="M 905.748046875 1834.915161132812 L 905.4730224609375 1834.915161132812 L 904.895751953125 1834.915161132812 L 904.6197509765625 1834.915161132812 L 904.4095458984375 1834.736206054688 C 904.3181762695312 1834.658447265625 904.2202758789062 1834.581420898438 904.1166381835938 1834.5 C 903.864501953125 1834.301635742188 903.6036987304688 1834.0966796875 903.368896484375 1833.829345703125 C 899.6875 1829.636840820312 896.3483276367188 1825.818237304688 893.1604614257812 1822.155395507812 C 891.0590209960938 1819.740844726562 889.8030395507812 1816.951171875 889.42724609375 1813.86376953125 C 889.3557739257812 1813.2763671875 889.3201904296875 1812.67724609375 889.29248046875 1812.161743164062 C 889.2618408203125 1811.588989257812 889.4625854492188 1811.238891601562 889.6364135742188 1811.046020507812 C 889.8556518554688 1810.802734375 890.167236328125 1810.659057617188 890.513671875 1810.641479492188 C 890.537353515625 1810.640258789062 890.56103515625 1810.6396484375 890.5843505859375 1810.6396484375 C 891.1870727539062 1810.6396484375 891.845703125 1811.083862304688 891.8675537109375 1812.058959960938 C 891.9081420898438 1813.87060546875 892.2938232421875 1815.605834960938 893.013916015625 1817.216430664062 C 893.5255126953125 1818.36083984375 894.2083129882812 1819.42724609375 895.04345703125 1820.385864257812 C 897.4766845703125 1823.179443359375 899.9561767578125 1826.015502929688 902.3540649414062 1828.758178710938 C 903.2938232421875 1829.8330078125 904.2335205078125 1830.907836914062 905.1729736328125 1831.98291015625 C 905.9674682617188 1830.989990234375 906.7615966796875 1829.996704101562 907.5556640625 1829.003540039062 C 908.2854614257812 1828.090698242188 909.0152587890625 1827.177856445312 909.7454223632812 1826.265258789062 L 909.75830078125 1826.249145507812 C 909.8467407226562 1826.138427734375 909.9568481445312 1826.000854492188 910.1152954101562 1825.8779296875 C 910.3555908203125 1825.6923828125 910.6412963867188 1825.590698242188 910.9209594726562 1825.590698242188 C 911.2642822265625 1825.590698242188 911.5867919921875 1825.743530273438 911.8058471679688 1826.009887695312 C 912.0238647460938 1826.27490234375 912.1301879882812 1826.644775390625 912.1216430664062 1827.109130859375 C 912.1148681640625 1827.476806640625 911.8909301757812 1827.72998046875 911.7706909179688 1827.865844726562 C 911.7552490234375 1827.88330078125 911.73974609375 1827.900268554688 911.726318359375 1827.917114257812 C 911.3997192382812 1828.32666015625 911.0732421875 1828.736694335938 910.7467651367188 1829.146606445312 C 909.52099609375 1830.685913085938 908.25341796875 1832.277709960938 906.9903564453125 1833.832153320312 C 906.7599487304688 1834.11572265625 906.482666015625 1834.328247070312 906.238037109375 1834.515747070312 C 906.137939453125 1834.592407226562 906.0433959960938 1834.664916992188 905.9578247070312 1834.737426757812 L 905.748046875 1834.915161132812 Z" stroke="none"/>
        <path d="M 905.4730224609375 1834.165161132812 C 905.7875366210938 1833.898681640625 906.1527709960938 1833.673583984375 906.4082641601562 1833.359252929688 C 907.9995727539062 1831.400756835938 909.5665283203125 1829.422607421875 911.1400756835938 1827.449340820312 C 911.2294921875 1827.337280273438 911.3695678710938 1827.21484375 911.3717651367188 1827.095336914062 C 911.3755493164062 1826.88916015625 911.3475952148438 1826.633422851562 911.2265014648438 1826.486206054688 C 911.1445922851562 1826.386596679688 911.0361328125 1826.340698242188 910.9209594726562 1826.340698242188 C 910.8056640625 1826.340698242188 910.6836547851562 1826.386596679688 910.5748291015625 1826.470703125 C 910.4814453125 1826.543090820312 910.40576171875 1826.640502929688 910.3310546875 1826.733764648438 C 908.7244262695312 1828.741821289062 907.1194458007812 1830.751220703125 905.5125732421875 1832.758911132812 C 905.4190063476562 1832.875854492188 905.3115844726562 1832.981689453125 905.1639404296875 1833.143798828125 C 905.0619506835938 1833.013916015625 904.9927978515625 1832.916748046875 904.9146118164062 1832.8271484375 C 901.435302734375 1828.844848632812 897.9512329101562 1824.8662109375 894.4779052734375 1820.878540039062 C 893.5980834960938 1819.868530273438 892.8776245117188 1818.749389648438 892.3292236328125 1817.522583007812 C 891.5542602539062 1815.789184570312 891.1602172851562 1813.97216796875 891.1177368164062 1812.075805664062 C 891.10791015625 1811.638427734375 890.9054565429688 1811.3896484375 890.5843505859375 1811.3896484375 C 890.5736083984375 1811.3896484375 890.5626831054688 1811.389892578125 890.5516357421875 1811.390502929688 C 890.2095336914062 1811.407836914062 890.0169677734375 1811.664672851562 890.0413818359375 1812.121459960938 C 890.071044921875 1812.6728515625 890.1051025390625 1813.225341796875 890.1717529296875 1813.773193359375 C 890.53662109375 1816.77099609375 891.7510986328125 1819.3935546875 893.7261962890625 1821.662963867188 C 897.118896484375 1825.561279296875 900.522216796875 1829.450805664062 903.9323120117188 1833.334350585938 C 904.20947265625 1833.649780273438 904.5725708007812 1833.890014648438 904.895751953125 1834.165161132812 L 905.4730224609375 1834.165161132812 M 906.0230102539062 1835.665161132812 L 905.4730224609375 1835.665161132812 L 904.895751953125 1835.665161132812 L 904.3436889648438 1835.665161132812 L 903.92333984375 1835.307250976562 C 903.8431396484375 1835.239013671875 903.7507934570312 1835.166381835938 903.653076171875 1835.089477539062 C 903.38720703125 1834.880493164062 903.0858764648438 1834.6435546875 902.8054809570312 1834.324462890625 C 899.1231689453125 1830.130859375 895.7833251953125 1826.3115234375 892.5947265625 1822.647705078125 C 890.3931274414062 1820.118041992188 889.0769653320312 1817.193237304688 888.6827392578125 1813.954467773438 C 888.6084594726562 1813.343872070312 888.5719604492188 1812.729736328125 888.5435791015625 1812.202026367188 C 888.4992065429688 1811.372192382812 888.8103637695312 1810.842407226562 889.0792236328125 1810.5439453125 C 889.432861328125 1810.151489257812 889.9288330078125 1809.920166015625 890.4757690429688 1809.892456054688 C 890.5123291015625 1809.890625 890.548583984375 1809.8896484375 890.5843505859375 1809.8896484375 C 891.7344360351562 1809.8896484375 892.5894165039062 1810.794921875 892.6173706054688 1812.042236328125 C 892.6557006835938 1813.75341796875 893.0194702148438 1815.391357421875 893.6986083984375 1816.910400390625 C 894.1798706054688 1817.987060546875 894.8226318359375 1818.990600585938 895.6089477539062 1819.893310546875 C 898.041748046875 1822.686401367188 900.5210571289062 1825.522094726562 902.918701171875 1828.264526367188 C 903.6616821289062 1829.114379882812 904.4047241210938 1829.964233398438 905.1475830078125 1830.814086914062 C 905.755126953125 1830.054565429688 906.3624877929688 1829.294921875 906.9698486328125 1828.53515625 C 907.69970703125 1827.622314453125 908.4295654296875 1826.709350585938 909.1597900390625 1825.796630859375 L 909.1725463867188 1825.78076171875 C 909.2738037109375 1825.654174804688 909.4267578125 1825.462768554688 909.6558227539062 1825.28515625 C 910.0277099609375 1824.997924804688 910.4762573242188 1824.840698242188 910.9209594726562 1824.840698242188 C 911.4894409179688 1824.840698242188 912.023193359375 1825.09326171875 912.3851928710938 1825.53369140625 C 912.7196655273438 1825.940307617188 912.8833618164062 1826.47509765625 912.8715209960938 1827.122802734375 C 912.8596801757812 1827.766845703125 912.4901733398438 1828.1845703125 912.3323974609375 1828.362915039062 C 912.3243408203125 1828.371948242188 912.3162841796875 1828.380859375 912.3087158203125 1828.389770507812 C 911.9835815429688 1828.797485351562 911.6585693359375 1829.205688476562 911.33349609375 1829.613891601562 C 910.1065673828125 1831.154541015625 908.8378295898438 1832.747802734375 907.5724487304688 1834.30517578125 C 907.2862548828125 1834.6572265625 906.9580078125 1834.908813476562 906.6942749023438 1835.110961914062 C 906.6016845703125 1835.182006835938 906.5142211914062 1835.2490234375 906.4426879882812 1835.3095703125 L 906.0230102539062 1835.665161132812 Z" stroke="none" fill="#fff"/>
      </g>
    </g>
    <g transform="matrix(1, 0, 0, 1, 879.54, 1608.56)" filter="url(#Path_7245)">
      <g id="Path_7245-2" data-name="Path 7245" transform="translate(-881.29 -1608.56)" fill="#006cfa" stroke-linecap="round">
        <path d="M 913.8825073242188 1645.44775390625 C 913.7614135742188 1645.44775390625 913.6378784179688 1645.43017578125 913.5154418945312 1645.395385742188 C 913.1050415039062 1645.279052734375 912.7958374023438 1644.985595703125 912.6669921875 1644.589965820312 C 912.52880859375 1644.165893554688 912.6259155273438 1643.683471679688 912.9268188476562 1643.299438476562 C 913.2198486328125 1642.92529296875 913.5211791992188 1642.550659179688 913.8125610351562 1642.188232421875 C 914.1648559570312 1641.750122070312 914.5291748046875 1641.297119140625 914.8765869140625 1640.84765625 C 915.1079711914062 1640.548461914062 915.3457641601562 1640.248413085938 915.5758056640625 1639.958251953125 C 916.2105712890625 1639.157470703125 916.8670043945312 1638.329467773438 917.4173583984375 1637.475708007812 C 918.76318359375 1635.387817382812 919.4075317382812 1632.997192382812 919.33251953125 1630.369995117188 C 919.2512817382812 1627.521728515625 918.3140258789062 1624.954711914062 916.5468139648438 1622.740234375 C 914.81298828125 1620.567504882812 912.598876953125 1619.0966796875 909.9659423828125 1618.36865234375 C 908.78173828125 1618.041137695312 907.5963745117188 1617.875122070312 906.4426879882812 1617.875122070312 C 904.6510009765625 1617.875122070312 902.8746337890625 1618.275512695312 901.162841796875 1619.065063476562 C 898.50634765625 1620.290283203125 896.452880859375 1622.250732421875 895.0595703125 1624.891723632812 C 894.4307861328125 1626.083740234375 894.0040283203125 1627.391845703125 893.7549438476562 1628.890747070312 C 893.6380004882812 1629.593872070312 893.11279296875 1630.084838867188 892.4776000976562 1630.084838867188 C 892.2725219726562 1630.084838867188 892.0717163085938 1630.034545898438 891.8807983398438 1629.935546875 C 891.3554077148438 1629.664672851562 891.1007690429688 1629.131469726562 891.2011108398438 1628.510009765625 C 891.7572631835938 1625.070068359375 893.2811279296875 1622.1142578125 895.73046875 1619.724365234375 C 898.1334228515625 1617.3798828125 900.9688110351562 1615.957275390625 904.1578369140625 1615.496215820312 C 904.9991455078125 1615.374755859375 905.83544921875 1615.313110351562 906.6435546875 1615.313110351562 C 910.4885864257812 1615.313110351562 913.9555053710938 1616.690185546875 916.947998046875 1619.406005859375 C 919.3884887695312 1621.621215820312 920.96630859375 1624.427490234375 921.6376953125 1627.746826171875 C 921.7826538085938 1628.463623046875 921.8436279296875 1629.189453125 921.8881225585938 1629.719360351562 C 921.9041748046875 1629.910278320312 921.9180297851562 1630.0751953125 921.9325561523438 1630.203002929688 L 921.937744140625 1630.248657226562 L 921.9373779296875 1630.294677734375 C 921.9019775390625 1634.181396484375 920.906982421875 1637.276733398438 918.8060302734375 1640.035888671875 C 917.9755249023438 1641.12646484375 917.105712890625 1642.210083007812 916.2645874023438 1643.257934570312 C 915.8529663085938 1643.770751953125 915.4273681640625 1644.300903320312 915.0128173828125 1644.823974609375 C 914.8905029296875 1644.978271484375 914.5183715820312 1645.44775390625 913.8825073242188 1645.44775390625 Z" stroke="none"/>
        <path d="M 913.8825073242188 1644.69775390625 C 914.1100463867188 1644.69775390625 914.2752685546875 1644.547119140625 914.425048828125 1644.358154296875 C 915.6868896484375 1642.76611328125 916.97900390625 1641.197021484375 918.2093505859375 1639.58154296875 C 920.1965942382812 1636.9716796875 921.153564453125 1633.999755859375 921.1873779296875 1630.287841796875 C 921.1292114257812 1629.77685546875 921.0897827148438 1628.8212890625 920.902587890625 1627.8955078125 C 920.2721557617188 1624.778564453125 918.806884765625 1622.106201171875 916.4439697265625 1619.96142578125 C 913.5810546875 1617.363159179688 910.3023681640625 1616.063110351562 906.6435546875 1616.063110351562 C 905.8678588867188 1616.063110351562 905.0746459960938 1616.12158203125 904.26513671875 1616.238525390625 C 901.16455078125 1616.686767578125 898.4964599609375 1618.073486328125 896.2542114257812 1620.26123046875 C 893.8883666992188 1622.569580078125 892.4683227539062 1625.37109375 891.9415283203125 1628.629638671875 C 891.8972778320312 1628.903564453125 891.96337890625 1629.13427734375 892.2261352539062 1629.269775390625 C 892.3109741210938 1629.313842773438 892.3961181640625 1629.334838867188 892.4776000976562 1629.334838867188 C 892.7349853515625 1629.334838867188 892.9556884765625 1629.125 893.0150756835938 1628.767822265625 C 893.2610473632812 1627.287841796875 893.6953125 1625.87060546875 894.396240234375 1624.541748046875 C 895.858642578125 1621.769775390625 898.0067138671875 1619.69482421875 900.8486938476562 1618.384033203125 C 902.6732177734375 1617.54248046875 904.5413818359375 1617.125122070312 906.4426879882812 1617.125122070312 C 907.6708984375 1617.125122070312 908.9129638671875 1617.29931640625 910.1658325195312 1617.645751953125 C 912.9901123046875 1618.4267578125 915.31298828125 1619.99169921875 917.133056640625 1622.2724609375 C 919.0117797851562 1624.626708984375 919.9960327148438 1627.32763671875 920.0822143554688 1630.3486328125 C 920.1597900390625 1633.065673828125 919.517578125 1635.601806640625 918.0477294921875 1637.882080078125 C 917.2755737304688 1639.079833984375 916.343994140625 1640.17578125 915.469970703125 1641.306396484375 C 914.8303833007812 1642.1337890625 914.1619873046875 1642.938720703125 913.5172119140625 1643.761962890625 C 913.232177734375 1644.125732421875 913.3366088867188 1644.565185546875 913.7198486328125 1644.673828125 C 913.7775268554688 1644.690185546875 913.83154296875 1644.69775390625 913.8825073242188 1644.69775390625 M 913.8825073242188 1646.19775390625 C 913.6922607421875 1646.19775390625 913.5 1646.170532226562 913.3110961914062 1646.117065429688 C 912.6656494140625 1645.93408203125 912.1583862304688 1645.450073242188 911.953857421875 1644.822265625 C 911.7380981445312 1644.16015625 911.8811645507812 1643.41796875 912.3364868164062 1642.836791992188 C 912.63232421875 1642.459106445312 912.9352416992188 1642.082397460938 913.2281494140625 1641.71826171875 C 913.5781860351562 1641.282836914062 913.940185546875 1640.832763671875 914.283203125 1640.389038085938 C 914.5173950195312 1640.086059570312 914.7566528320312 1639.784301757812 914.9880981445312 1639.492309570312 C 915.640380859375 1638.66943359375 916.2564697265625 1637.892333984375 916.7869873046875 1637.0693359375 C 918.0491943359375 1635.111206054688 918.6534423828125 1632.864379882812 918.5828247070312 1630.391479492188 C 918.5062866210938 1627.709350585938 917.6240844726562 1625.292602539062 915.9606323242188 1623.208129882812 C 914.3274536132812 1621.16162109375 912.2433471679688 1619.776489257812 909.7660522460938 1619.091552734375 C 908.64697265625 1618.781982421875 907.52880859375 1618.625122070312 906.4426879882812 1618.625122070312 C 904.76025390625 1618.625122070312 903.0895385742188 1619.002319335938 901.4769897460938 1619.74609375 C 898.9735107421875 1620.900756835938 897.03759765625 1622.749755859375 895.722900390625 1625.24169921875 C 895.1322631835938 1626.361450195312 894.7305297851562 1627.595336914062 894.4947509765625 1629.013793945312 C 894.3164672851562 1630.086059570312 893.4869995117188 1630.834838867188 892.4776000976562 1630.834838867188 C 892.15576171875 1630.834838867188 891.8299560546875 1630.754028320312 891.5354614257812 1630.601318359375 C 890.7213745117188 1630.181518554688 890.308349609375 1629.333740234375 890.4607543945312 1628.390380859375 C 891.0430297851562 1624.788330078125 892.6398315429688 1621.692138671875 895.2066650390625 1619.187622070312 C 897.7256469726562 1616.729858398438 900.701171875 1615.238159179688 904.050537109375 1614.75390625 C 904.9273071289062 1614.627319335938 905.7996826171875 1614.563110351562 906.6435546875 1614.563110351562 C 910.6807861328125 1614.563110351562 914.3172607421875 1616.005615234375 917.4520263671875 1618.850708007812 C 920.0134887695312 1621.175659179688 921.6690673828125 1624.118774414062 922.372802734375 1627.59814453125 C 922.5263671875 1628.357543945312 922.5894165039062 1629.1083984375 922.635498046875 1629.656616210938 C 922.6510009765625 1629.841552734375 922.6644287109375 1630.001342773438 922.677734375 1630.1181640625 L 922.6881713867188 1630.209594726562 L 922.6873168945312 1630.301513671875 C 922.6688842773438 1632.326171875 922.3980102539062 1634.126708984375 921.8591918945312 1635.80615234375 C 921.3153076171875 1637.501586914062 920.5117797851562 1639.033813476562 919.4027709960938 1640.490234375 C 918.56640625 1641.588500976562 917.6935424804688 1642.675903320312 916.8494873046875 1643.727416992188 C 916.4385986328125 1644.239379882812 916.0137329101562 1644.768676757812 915.6005859375 1645.289916992188 C 915.1229858398438 1645.892333984375 914.5449829101562 1646.19775390625 913.8825073242188 1646.19775390625 Z" stroke="none" fill="#fff"/>
      </g>
    </g>
    <g transform="matrix(1, 0, 0, 1, 879.54, 1608.56)" filter="url(#Path_7246)">
      <g id="Path_7246-2" data-name="Path 7246" transform="translate(-964.66 -1705.27)" fill="#006cfa" stroke-linecap="round">
        <path d="M 989.5765991210938 1735.43310546875 C 987.9458618164062 1735.43310546875 986.2574462890625 1735.428466796875 984.5581665039062 1735.419189453125 C 982.7191772460938 1735.409301757812 981.3226318359375 1734.201782226562 981.0831909179688 1732.414428710938 C 981.0088500976562 1731.860107421875 981.11767578125 1731.410034179688 981.4066162109375 1731.07666015625 C 981.6969604492188 1730.741577148438 982.1311645507812 1730.568969726562 982.6971435546875 1730.563598632812 C 982.9174194335938 1730.561645507812 983.1373901367188 1730.56103515625 983.3573608398438 1730.56103515625 C 983.4376831054688 1730.56103515625 983.5179443359375 1730.561157226562 983.5982666015625 1730.561279296875 C 983.5806274414062 1730.535034179688 983.5631713867188 1730.508544921875 983.5459594726562 1730.481811523438 C 982.9934692382812 1729.62548828125 982.712158203125 1728.624755859375 982.7099609375 1727.507690429688 C 982.7064208984375 1725.6376953125 982.7063598632812 1723.619384765625 982.709716796875 1721.33740234375 C 982.7113037109375 1720.226806640625 983.3531494140625 1719.585571289062 984.4707641601562 1719.578125 C 984.5301513671875 1719.577880859375 984.5885009765625 1719.577270507812 984.6469116210938 1719.57666015625 C 984.7387084960938 1719.575805664062 984.8305053710938 1719.574951171875 984.9222412109375 1719.574951171875 C 985.0829467773438 1719.574951171875 985.2156982421875 1719.57763671875 985.3399658203125 1719.58349609375 C 986.0508422851562 1719.6171875 986.5689086914062 1720.119506835938 986.6005249023438 1720.80517578125 C 986.6336059570312 1721.531372070312 986.1201171875 1722.097900390625 985.3795166015625 1722.152587890625 C 985.3505859375 1722.15478515625 985.3212890625 1722.156494140625 985.2913208007812 1722.158081054688 C 985.2906494140625 1722.570556640625 985.2894287109375 1722.983032226562 985.2881469726562 1723.3955078125 C 985.2839965820312 1724.78466796875 985.2796630859375 1726.221069335938 985.2997436523438 1727.630493164062 C 985.3096923828125 1728.332641601562 985.5762939453125 1729.015747070312 986.0503540039062 1729.554077148438 C 986.523193359375 1730.091064453125 987.1607055664062 1730.435668945312 987.8455200195312 1730.524658203125 C 988.1072387695312 1730.558715820312 988.4034423828125 1730.574462890625 988.777587890625 1730.574462890625 C 988.9755859375 1730.574462890625 989.1812133789062 1730.5703125 989.380126953125 1730.566162109375 C 989.551513671875 1730.562622070312 989.728759765625 1730.558959960938 989.9052124023438 1730.557861328125 L 989.9833374023438 1730.557373046875 C 990.4510498046875 1730.5546875 990.892822265625 1730.552001953125 991.314453125 1730.493041992188 C 991.8511962890625 1730.418090820312 992.342041015625 1730.158935546875 992.815185546875 1729.70068359375 C 992.8330078125 1729.683471679688 992.8505859375 1729.665771484375 992.8682250976562 1729.648071289062 C 992.9332275390625 1729.582763671875 993.0140991210938 1729.501586914062 993.11474609375 1729.423828125 C 993.3646850585938 1729.2314453125 993.6456298828125 1729.130249023438 993.9281616210938 1729.130249023438 C 994.25390625 1729.130249023438 994.5597534179688 1729.260375976562 994.8126831054688 1729.506469726562 C 995.1143798828125 1729.800415039062 995.2443237304688 1730.18359375 995.1974487304688 1730.560668945312 C 995.3377075195312 1730.560180664062 995.4779663085938 1730.559814453125 995.6181640625 1730.559814453125 C 995.9078369140625 1730.559814453125 996.1489868164062 1730.561279296875 996.377197265625 1730.564575195312 C 996.8825073242188 1730.571533203125 997.2799682617188 1730.728515625 997.5581665039062 1731.031372070312 C 997.8372802734375 1731.335083007812 997.9605102539062 1731.746948242188 997.9244995117188 1732.25537109375 C 997.8616943359375 1733.142700195312 997.47998046875 1733.947631835938 996.8496704101562 1734.52197265625 C 996.220947265625 1735.094848632812 995.3683471679688 1735.413452148438 994.4490966796875 1735.4189453125 C 992.8613891601562 1735.428344726562 991.2220458984375 1735.43310546875 989.5765991210938 1735.43310546875 Z" stroke="none"/>
        <path d="M 989.5765991210938 1734.68310546875 C 991.1991577148438 1734.68310546875 992.8221435546875 1734.678588867188 994.444580078125 1734.6689453125 C 995.9698486328125 1734.659790039062 997.0753173828125 1733.6298828125 997.1763916015625 1732.202392578125 C 997.2177734375 1731.617797851562 996.958740234375 1731.322631835938 996.3665771484375 1731.314453125 C 996.1171264648438 1731.310913085938 995.8677368164062 1731.309814453125 995.6181640625 1731.309814453125 C 995.1763305664062 1731.309814453125 994.7343139648438 1731.313354492188 994.2924194335938 1731.313354492188 C 994.25048828125 1731.313354492188 994.2085571289062 1731.313354492188 994.1666259765625 1731.313232421875 C 994.0662841796875 1731.313110351562 993.9659423828125 1731.29833984375 993.7437744140625 1731.28076171875 C 993.99072265625 1731.062866210938 994.183837890625 1730.933715820312 994.3221435546875 1730.760498046875 C 994.5067138671875 1730.530029296875 994.5123291015625 1730.260986328125 994.28955078125 1730.0439453125 C 994.17626953125 1729.933715820312 994.0537719726562 1729.880249023438 993.9281616210938 1729.880249023438 C 993.8108520507812 1729.880249023438 993.6907958984375 1729.926879882812 993.5731201171875 1730.017456054688 C 993.4879150390625 1730.083251953125 993.41455078125 1730.164306640625 993.3369140625 1730.239501953125 C 992.79638671875 1730.762939453125 992.1651611328125 1731.131469726562 991.4183349609375 1731.23583984375 C 990.921630859375 1731.305297851562 990.4132080078125 1731.3046875 989.909912109375 1731.307861328125 C 989.5335693359375 1731.310180664062 989.15478515625 1731.324462890625 988.777587890625 1731.324462890625 C 988.4323120117188 1731.324462890625 988.08837890625 1731.3125 987.7489013671875 1731.268432617188 C 985.9581298828125 1731.035766601562 984.57568359375 1729.46044921875 984.5498046875 1727.64111328125 C 984.521240234375 1725.633666992188 984.541748046875 1723.625854492188 984.541748046875 1721.617919921875 C 984.541748046875 1721.560546875 984.5509033203125 1721.50341796875 984.55908203125 1721.408203125 C 984.7236328125 1721.408203125 984.8819580078125 1721.413818359375 985.0374145507812 1721.413818359375 C 985.1338500976562 1721.413818359375 985.229248046875 1721.41162109375 985.32421875 1721.404663085938 C 985.6610107421875 1721.379760742188 985.8653564453125 1721.147705078125 985.851318359375 1720.839721679688 C 985.837890625 1720.548461914062 985.63232421875 1720.34814453125 985.30517578125 1720.332641601562 C 985.1776123046875 1720.32666015625 985.0499877929688 1720.324951171875 984.9222412109375 1720.324951171875 C 984.7734375 1720.324951171875 984.62451171875 1720.327392578125 984.4757080078125 1720.328125 C 983.775146484375 1720.332763671875 983.460693359375 1720.640380859375 983.459716796875 1721.338500976562 C 983.4566650390625 1723.39453125 983.4560546875 1725.450317382812 983.4599609375 1727.506225585938 C 983.4617919921875 1728.427124023438 983.67578125 1729.299560546875 984.17626953125 1730.075317382812 C 984.451416015625 1730.501953125 984.8017578125 1730.880249023438 985.131103515625 1731.296508789062 C 985.0238037109375 1731.302368164062 984.9100341796875 1731.313354492188 984.7958984375 1731.3134765625 C 984.7498779296875 1731.313598632812 984.703857421875 1731.313598632812 984.6577758789062 1731.313598632812 C 984.224365234375 1731.313598632812 983.7908325195312 1731.31103515625 983.3573608398438 1731.31103515625 C 983.1396484375 1731.31103515625 982.921875 1731.311645507812 982.7042236328125 1731.313598632812 C 982.0184326171875 1731.320068359375 981.737060546875 1731.647338867188 981.8265380859375 1732.314819335938 C 982.013671875 1733.711669921875 983.0823974609375 1734.661254882812 984.562255859375 1734.669189453125 C 986.2338256835938 1734.678344726562 987.9049682617188 1734.68310546875 989.5765991210938 1734.68310546875 M 982.9549560546875 1732.418823242188 L 996.0589599609375 1732.418823242188 C 995.861083984375 1733.0283203125 995.4903564453125 1733.379638671875 994.9310302734375 1733.529418945312 C 994.7593994140625 1733.575317382812 994.5743408203125 1733.58740234375 994.3953857421875 1733.587524414062 C 991.1376953125 1733.591796875 987.8800048828125 1733.590942382812 984.622314453125 1733.59326171875 C 984.621826171875 1733.59326171875 984.621337890625 1733.59326171875 984.620849609375 1733.59326171875 C 983.896728515625 1733.59326171875 983.341552734375 1733.316650390625 983.0223388671875 1732.641479492188 C 982.9935302734375 1732.580322265625 982.9822998046875 1732.510864257812 982.9549560546875 1732.418823242188 M 989.5765991210938 1736.18310546875 C 989.5765991210938 1736.18310546875 989.5765991210938 1736.18310546875 989.5765991210938 1736.18310546875 C 987.9462890625 1736.18310546875 986.2564697265625 1736.178466796875 984.5540771484375 1736.169189453125 C 983.4685668945312 1736.163330078125 982.4906005859375 1735.809326171875 981.72607421875 1735.145385742188 C 980.9716796875 1734.490234375 980.4793701171875 1733.555786132812 980.33984375 1732.514038085938 C 980.2101440429688 1731.546630859375 980.5401611328125 1730.931274414062 980.83984375 1730.58544921875 C 981.1071166992188 1730.276977539062 981.5833129882812 1729.914428710938 982.3773803710938 1729.831176757812 C 982.1016235351562 1729.117919921875 981.9616088867188 1728.340942382812 981.9599609375 1727.50927734375 C 981.9564208984375 1725.638305664062 981.9563598632812 1723.619140625 981.959716796875 1721.336303710938 C 981.9618530273438 1719.82275390625 982.945556640625 1718.838256835938 984.4657592773438 1718.828125 C 984.5249633789062 1718.827880859375 984.5822143554688 1718.827270507812 984.6394653320312 1718.826782226562 C 984.7337036132812 1718.825805664062 984.8280029296875 1718.824951171875 984.9222412109375 1718.824951171875 C 985.0947875976562 1718.824951171875 985.238525390625 1718.827880859375 985.3746948242188 1718.834228515625 C 986.4703979492188 1718.886108398438 987.3003540039062 1719.700439453125 987.3497314453125 1720.770629882812 C 987.3916015625 1721.689086914062 986.8558349609375 1722.465576171875 986.0399780273438 1722.769653320312 C 986.0394287109375 1722.97900390625 986.038818359375 1723.1884765625 986.0381469726562 1723.397827148438 C 986.0339965820312 1724.783813476562 986.0296630859375 1726.216918945312 986.0496826171875 1727.619750976562 C 986.06494140625 1728.69580078125 986.896240234375 1729.64501953125 987.942138671875 1729.780883789062 C 988.1710205078125 1729.810668945312 988.4364624023438 1729.824462890625 988.777587890625 1729.824462890625 C 988.9678955078125 1729.824462890625 989.1605834960938 1729.820556640625 989.3646240234375 1729.816284179688 C 989.5386962890625 1729.812744140625 989.7186889648438 1729.80908203125 989.9005126953125 1729.807861328125 L 989.9788818359375 1729.807373046875 C 990.4208984375 1729.804809570312 990.8384399414062 1729.802368164062 991.2105712890625 1729.750244140625 C 991.5844116210938 1729.698120117188 991.9385375976562 1729.505615234375 992.29345703125 1729.161987304688 C 992.3079833984375 1729.147827148438 992.3223876953125 1729.13330078125 992.3367919921875 1729.118774414062 C 992.4129028320312 1729.042358398438 992.51708984375 1728.937744140625 992.6563720703125 1728.830200195312 C 993.03955078125 1728.535278320312 993.4786376953125 1728.380249023438 993.9281616210938 1728.380249023438 C 994.4457397460938 1728.380249023438 994.9456176757812 1728.58935546875 995.3357543945312 1728.968994140625 C 995.5872192382812 1729.213989257812 995.7628784179688 1729.5029296875 995.8614501953125 1729.810180664062 C 996.0518798828125 1729.810791015625 996.2230224609375 1729.812255859375 996.3878173828125 1729.814575195312 C 997.2841796875 1729.827026367188 997.8193969726562 1730.207153320312 998.1104125976562 1730.52392578125 C 998.4020385742188 1730.84130859375 998.736328125 1731.408569335938 998.672607421875 1732.308349609375 C 998.5151977539062 1734.531616210938 996.7408447265625 1736.155151367188 994.45361328125 1736.1689453125 C 992.86474609375 1736.178344726562 991.2239379882812 1736.18310546875 989.5765991210938 1736.18310546875 L 989.5765991210938 1736.18310546875 Z" stroke="none" fill="#fff"/>
      </g>
    </g>
    <g id="Path_7247" data-name="Path 7247" transform="translate(-148.75 -96.703)" fill="#006cfa" stroke-linecap="round">
      <path d="M 1058.495727539062 1729.932983398438 C 1058.437744140625 1729.932983398438 1058.378295898438 1729.929443359375 1058.319213867188 1729.92236328125 C 1057.655151367188 1729.843139648438 1057.201171875 1729.283203125 1057.214721679688 1728.560668945312 C 1057.246337890625 1726.79443359375 1057.276611328125 1725.027709960938 1057.306884765625 1723.260864257812 L 1057.325927734375 1722.154174804688 L 1055.828491210938 1722.154174804688 L 1054.941528320312 1722.154174804688 L 1054.054809570312 1722.154296875 C 1053.095336914062 1722.154296875 1052.135986328125 1722.154052734375 1051.176513671875 1722.153076171875 L 1051.14111328125 1722.153198242188 L 1051.09912109375 1722.1533203125 C 1050.9560546875 1722.1533203125 1050.800537109375 1722.147338867188 1050.633178710938 1722.104370117188 C 1050.0322265625 1721.951049804688 1049.647338867188 1721.459228515625 1049.653564453125 1720.851928710938 C 1049.660034179688 1720.220581054688 1050.072387695312 1719.728515625 1050.704223632812 1719.5986328125 C 1050.839599609375 1719.570556640625 1050.962036132812 1719.56689453125 1051.053466796875 1719.56689453125 C 1051.084838867188 1719.56689453125 1051.116333007812 1719.567504882812 1051.147705078125 1719.567993164062 C 1051.170043945312 1719.568359375 1051.192504882812 1719.56884765625 1051.214721679688 1719.56884765625 C 1052.691284179688 1719.568359375 1054.168212890625 1719.568115234375 1055.645263671875 1719.568115234375 C 1056.452026367188 1719.568115234375 1057.2587890625 1719.568237304688 1058.065673828125 1719.568359375 C 1058.470458984375 1719.568481445312 1059.056640625 1719.617919921875 1059.472412109375 1720.04443359375 C 1059.8427734375 1720.42431640625 1059.909423828125 1720.92626953125 1059.912231445312 1721.312133789062 C 1061.546264648438 1721.80126953125 1062.736694335938 1723.463623046875 1062.701293945312 1725.23681640625 C 1062.683471679688 1726.122436523438 1062.369140625 1727.001098632812 1061.816284179688 1727.710815429688 C 1061.262084960938 1728.422241210938 1060.5029296875 1728.919555664062 1059.675415039062 1729.114379882812 C 1059.501708984375 1729.617309570312 1059.053833007812 1729.932983398438 1058.495727539062 1729.932983398438 Z M 1059.937377929688 1724.458740234375 L 1059.937377929688 1725.883544921875 C 1060.064575195312 1725.636840820312 1060.12939453125 1725.343994140625 1060.112915039062 1725.032348632812 C 1060.102416992188 1724.832641601562 1060.0361328125 1724.635131835938 1059.937377929688 1724.458740234375 Z" stroke="none"/>
      <path d="M 1051.053466796875 1720.31689453125 C 1050.986328125 1720.31689453125 1050.919677734375 1720.319946289062 1050.855346679688 1720.333251953125 C 1050.5751953125 1720.390869140625 1050.406494140625 1720.571411132812 1050.403564453125 1720.859619140625 C 1050.400756835938 1721.132202148438 1050.5576171875 1721.31103515625 1050.819702148438 1721.3779296875 C 1050.908813476562 1721.400756835938 1051.004272460938 1721.4033203125 1051.09912109375 1721.4033203125 C 1051.125244140625 1721.4033203125 1051.1513671875 1721.403076171875 1051.17724609375 1721.403076171875 C 1052.136474609375 1721.404052734375 1053.095581054688 1721.404296875 1054.054809570312 1721.404296875 C 1054.64599609375 1721.404296875 1055.2373046875 1721.404174804688 1055.828491210938 1721.404174804688 C 1056.56005859375 1721.404174804688 1057.291259765625 1721.404174804688 1058.082275390625 1721.404174804688 C 1058.082275390625 1721.567626953125 1058.083862304688 1721.686401367188 1058.08203125 1721.804809570312 C 1058.043212890625 1724.0615234375 1058.005004882812 1726.317993164062 1057.964599609375 1728.57470703125 C 1057.958618164062 1728.8935546875 1058.125244140625 1729.143920898438 1058.40771484375 1729.177612304688 C 1058.437744140625 1729.18115234375 1058.467041015625 1729.182983398438 1058.495727539062 1729.182983398438 C 1058.739624023438 1729.182983398438 1058.929565429688 1729.054077148438 1058.985107421875 1728.8037109375 C 1059.049072265625 1728.515014648438 1059.219604492188 1728.4482421875 1059.4755859375 1728.390747070312 C 1060.868530273438 1728.078247070312 1061.921264648438 1726.717407226562 1061.951416015625 1725.221801757812 C 1061.980712890625 1723.756103515625 1060.978759765625 1722.359252929688 1059.596923828125 1722.002685546875 C 1059.246337890625 1721.912353515625 1059.15234375 1721.767578125 1059.161254882812 1721.424072265625 C 1059.181884765625 1720.598022460938 1058.886596679688 1720.318603515625 1058.065551757812 1720.318359375 C 1057.25927734375 1720.318237304688 1056.453491210938 1720.318115234375 1055.647216796875 1720.318115234375 C 1054.169799804688 1720.318115234375 1052.692016601562 1720.318359375 1051.214721679688 1720.31884765625 C 1051.161376953125 1720.31884765625 1051.107299804688 1720.31689453125 1051.053466796875 1720.31689453125 M 1059.187377929688 1727.319458007812 L 1059.187377929688 1723.0537109375 C 1060.013305664062 1723.12646484375 1060.812622070312 1724.058715820312 1060.861938476562 1724.992919921875 C 1060.92138671875 1726.122680664062 1060.22705078125 1727.111572265625 1059.187377929688 1727.319458007812 M 1051.053466796875 1718.81689453125 C 1051.089233398438 1718.81689453125 1051.125122070312 1718.817504882812 1051.161010742188 1718.818115234375 C 1051.178955078125 1718.818481445312 1051.196899414062 1718.81884765625 1051.214721679688 1718.81884765625 C 1052.691772460938 1718.818359375 1054.169677734375 1718.818115234375 1055.647216796875 1718.818115234375 C 1056.453491210938 1718.818115234375 1057.259521484375 1718.818237304688 1058.06591796875 1718.818359375 C 1058.377319335938 1718.818481445312 1059.324829101562 1718.818725585938 1060.009399414062 1719.520751953125 C 1060.394409179688 1719.915771484375 1060.554809570312 1720.385375976562 1060.6201171875 1720.774658203125 C 1061.36083984375 1721.0986328125 1062.018920898438 1721.6298828125 1062.516479492188 1722.314208984375 C 1063.139892578125 1723.171508789062 1063.471801757812 1724.21484375 1063.451171875 1725.251831054688 C 1063.40966796875 1727.309814453125 1062.06787109375 1729.134643554688 1060.20458984375 1729.744140625 C 1059.853881835938 1730.323608398438 1059.225830078125 1730.682983398438 1058.495727539062 1730.682983398438 C 1058.408081054688 1730.682983398438 1058.31884765625 1730.677612304688 1058.23046875 1730.667114257812 C 1057.1865234375 1730.542602539062 1056.444091796875 1729.650756835938 1056.46484375 1728.546508789062 C 1056.496459960938 1726.781127929688 1056.526733398438 1725.0146484375 1056.557006835938 1723.248046875 L 1056.56298828125 1722.904174804688 L 1055.828491210938 1722.904174804688 L 1054.941650390625 1722.904174804688 L 1054.054809570312 1722.904296875 C 1053.095092773438 1722.904296875 1052.135498046875 1722.904052734375 1051.175659179688 1722.903076171875 L 1051.143798828125 1722.903198242188 L 1051.09912109375 1722.9033203125 C 1050.916015625 1722.9033203125 1050.695434570312 1722.894653320312 1050.44677734375 1722.830810546875 C 1049.514770507812 1722.593017578125 1048.893798828125 1721.79443359375 1048.903686523438 1720.844116210938 C 1048.913696289062 1719.860717773438 1049.576538085938 1719.064819335938 1050.55322265625 1718.864013671875 C 1050.75634765625 1718.821899414062 1050.936157226562 1718.81689453125 1051.053466796875 1718.81689453125 Z" stroke="none" fill="#fff"/>
    </g>
  </g>
</svg>
