<svg xmlns="http://www.w3.org/2000/svg" xmlns:xlink="http://www.w3.org/1999/xlink" width="47.395" height="54.922" viewBox="0 0 47.395 54.922">
  <defs>
    <filter id="Path_7244" x="0" y="14.147" width="39.333" height="40.776" filterUnits="userSpaceOnUse">
      <feOffset dy="3" input="SourceAlpha"/>
      <feGaussianBlur stdDeviation="3" result="blur"/>
      <feFlood flood-opacity="0.161"/>
      <feComposite operator="in" in2="blur"/>
      <feComposite in="SourceGraphic"/>
    </filter>
    <filter id="Path_7245" x="0.137" y="0" width="47.259" height="46.635" filterUnits="userSpaceOnUse">
      <feOffset dy="3" input="SourceAlpha"/>
      <feGaussianBlur stdDeviation="3" result="blur-2"/>
      <feFlood flood-opacity="0.161"/>
      <feComposite operator="in" in2="blur-2"/>
      <feComposite in="SourceGraphic"/>
    </filter>
    <filter id="Path_7246" x="6.647" y="7.551" width="33.37" height="32.358" filterUnits="userSpaceOnUse">
      <feOffset dy="3" input="SourceAlpha"/>
      <feGaussianBlur stdDeviation="3" result="blur-3"/>
      <feFlood flood-opacity="0.161"/>
      <feComposite operator="in" in2="blur-3"/>
      <feComposite in="SourceGraphic"/>
    </filter>
  </defs>
  <g id="Group_646" data-name="Group 646" transform="translate(-881.039 -1610.063)">
    <g transform="matrix(1, 0, 0, 1, 881.04, 1610.06)" filter="url(#Path_7244)">
      <path id="Path_7244-2" data-name="Path 7244" d="M904.9,1834.165a8.919,8.919,0,0,1-.963-.831q-5.115-5.825-10.206-11.671a14.455,14.455,0,0,1-3.554-7.89c-.067-.548-.1-1.1-.13-1.652-.024-.457.168-.714.51-.731s.556.233.566.685a13.971,13.971,0,0,0,1.211,5.447,13.44,13.44,0,0,0,2.149,3.356q5.21,5.982,10.437,11.949c.078.09.147.187.249.317.148-.162.255-.268.349-.385q2.41-3.012,4.818-6.025a1.543,1.543,0,0,1,.244-.263.453.453,0,0,1,.652.016.991.991,0,0,1,.145.609c0,.12-.142.242-.232.354-1.574,1.973-3.141,3.951-4.732,5.91a6.808,6.808,0,0,1-.935.806Z" transform="translate(-881.04 -1791.24)" fill="#006cfa"/>
    </g>
    <g transform="matrix(1, 0, 0, 1, 881.04, 1610.06)" filter="url(#Path_7245)">
      <path id="Path_7245-2" data-name="Path 7245" d="M921.187,1630.288a14.848,14.848,0,0,1-2.978,9.294c-1.23,1.615-2.522,3.185-3.784,4.777a.639.639,0,0,1-.705.316.542.542,0,0,1-.2-.912c.645-.823,1.313-1.628,1.953-2.456.874-1.131,1.806-2.227,2.578-3.424a12.926,12.926,0,0,0,2.034-7.533,13.573,13.573,0,0,0-19.234-11.965,13.573,13.573,0,0,0-6.452,6.158,13.835,13.835,0,0,0-1.381,4.226c-.078.47-.436.685-.789.5a.549.549,0,0,1-.285-.64,14.66,14.66,0,0,1,4.313-8.368A14.679,14.679,0,0,1,920.9,1627.9,24.045,24.045,0,0,1,921.187,1630.288Z" transform="translate(-882.79 -1610.06)" fill="#006cfa"/>
    </g>
    <g transform="matrix(1, 0, 0, 1, 881.04, 1610.06)" filter="url(#Path_7246)">
      <path id="Path_7246-2" data-name="Path 7246" d="M985.131,1731.3c-.329-.416-.68-.795-.955-1.221a4.663,4.663,0,0,1-.716-2.569q-.006-3.084,0-6.168c0-.7.315-1.006,1.016-1.01.277,0,.553-.008.829,0a.536.536,0,1,1,.019,1.072c-.248.018-.5,0-.765,0-.008.1-.017.152-.017.21,0,2.008-.021,4.016.008,6.023a3.731,3.731,0,0,0,3.2,3.627,16.075,16.075,0,0,0,2.161.039,11.44,11.44,0,0,0,1.508-.072,3.424,3.424,0,0,0,1.919-1,2.914,2.914,0,0,1,.236-.222.529.529,0,0,1,.749.743,5.064,5.064,0,0,1-.578.52c.222.018.323.032.423.032.733,0,1.467-.009,2.2,0,.592.008.851.3.81.888a2.625,2.625,0,0,1-2.732,2.467q-4.941.029-9.882,0a2.645,2.645,0,0,1-2.736-2.354c-.089-.667.192-.995.878-1s1.395,0,2.092,0C984.91,1731.313,985.024,1731.3,985.131,1731.3Zm10.928,1.122h-13.1a1.73,1.73,0,0,0,.067.223,1.613,1.613,0,0,0,1.6.952q4.887,0,9.773-.006a2.1,2.1,0,0,0,.536-.058A1.545,1.545,0,0,0,996.059,1732.419Z" transform="translate(-966.16 -1706.77)" fill="#006cfa"/>
    </g>
    <path id="Path_7247" data-name="Path 7247" d="M1058.082,1721.4h-2.254q-2.326,0-4.651,0a1.456,1.456,0,0,1-.358-.025.5.5,0,0,1-.416-.518.512.512,0,0,1,.452-.526,1.787,1.787,0,0,1,.359-.014h6.851c.821,0,1.116.28,1.1,1.106a.48.48,0,0,0,.436.579,3.292,3.292,0,0,1,2.354,3.219,3.328,3.328,0,0,1-2.476,3.169c-.256.057-.427.124-.49.413a.482.482,0,0,1-.577.374.539.539,0,0,1-.443-.6q.061-3.385.117-6.77C1058.084,1721.686,1058.082,1721.568,1058.082,1721.4Zm1.105,5.915a2.182,2.182,0,0,0,1.675-2.327,2.115,2.115,0,0,0-1.675-1.939Z" transform="translate(-148.75 -96.703)" fill="#006cfa"/>
  </g>
</svg>
