<svg xmlns="http://www.w3.org/2000/svg" xmlns:xlink="http://www.w3.org/1999/xlink" width="33" height="33" viewBox="0 0 33 33">
  <defs>
    <clipPath id="clip-path">
      <rect id="Rectangle_1745" data-name="Rectangle 1745" width="33" height="33" transform="translate(296 58.959)" fill="#fff" stroke="#707070" stroke-width="0.5"/>
    </clipPath>
  </defs>
  <g id="Goals" transform="translate(-296 -58.959)" clip-path="url(#clip-path)">
    <g id="Icon_feather-target" data-name="Icon feather-target" transform="translate(299.96 62.919)">
      <g id="Path_7162" data-name="Path 7162" transform="translate(-3 -3)" fill="none" stroke-linecap="round" stroke-linejoin="round">
        <path d="M29.4,16.2A13.2,13.2,0,1,1,16.2,3,13.2,13.2,0,0,1,29.4,16.2Z" stroke="none"/>
        <path d="M 16.19999885559082 4.999998092651367 C 13.2083683013916 4.999998092651367 10.39579963684082 6.164999008178711 8.280399322509766 8.280399322509766 C 6.164999008178711 10.39579963684082 4.999998092651367 13.2083683013916 4.999998092651367 16.19999885559082 C 4.999998092651367 19.19162750244141 6.164999008178711 22.00419998168945 8.280399322509766 24.11959838867188 C 10.39579963684082 26.23499870300293 13.2083683013916 27.39999771118164 16.19999885559082 27.39999771118164 C 19.19162750244141 27.39999771118164 22.00419998168945 26.23499870300293 24.11959838867188 24.11959838867188 C 26.23499870300293 22.00419998168945 27.39999771118164 19.19162750244141 27.39999771118164 16.19999885559082 C 27.39999771118164 13.2083683013916 26.23499870300293 10.39579963684082 24.11959838867188 8.280399322509766 C 22.00419998168945 6.164999008178711 19.19162750244141 4.999998092651367 16.19999885559082 4.999998092651367 M 16.19999885559082 2.999998092651367 C 23.49015808105469 2.999998092651367 29.39999961853027 8.909839630126953 29.39999961853027 16.19999885559082 C 29.39999961853027 23.49015808105469 23.49015808105469 29.39999961853027 16.19999885559082 29.39999961853027 C 8.909839630126953 29.39999961853027 2.999998092651367 23.49015808105469 2.999998092651367 16.19999885559082 C 2.999998092651367 8.909839630126953 8.909839630126953 2.999998092651367 16.19999885559082 2.999998092651367 Z" stroke="none" fill="#fff"/>
      </g>
      <path id="Path_7163" data-name="Path 7163" d="M19.56,14.28A5.28,5.28,0,1,1,14.28,9a5.28,5.28,0,0,1,5.28,5.28Z" transform="translate(-1.08 -1.08)" fill="none" stroke="#fff" stroke-linecap="round" stroke-linejoin="round" stroke-width="1"/>
      <path id="Path_7164" data-name="Path 7164" d="M24.35,19.675A4.675,4.675,0,1,1,19.675,15,4.675,4.675,0,0,1,24.35,19.675Z" transform="translate(-6.422 -6.422)" fill="none" stroke="#fff" stroke-linecap="round" stroke-linejoin="round" stroke-width="1"/>
    </g>
  </g>
</svg>
