<svg xmlns="http://www.w3.org/2000/svg" xmlns:xlink="http://www.w3.org/1999/xlink" width="44.4" height="51.862" viewBox="0 0 44.4 51.862">
  <defs>
    <filter id="Path_7234" x="0" y="0" width="44.4" height="51.862" filterUnits="userSpaceOnUse">
      <feOffset dy="3" input="SourceAlpha"/>
      <feGaussianBlur stdDeviation="3" result="blur"/>
      <feFlood flood-opacity="0.161"/>
      <feComposite operator="in" in2="blur"/>
      <feComposite in="SourceGraphic"/>
    </filter>
  </defs>
  <g transform="matrix(1, 0, 0, 1, 0, 0)" filter="url(#Path_7234)">
    <path id="Path_7234-2" data-name="Path 7234" d="M805.723,1510.457h26.4l-4.594,33.862h-17.2Zm5.049,30.479h15.913c.076,0,.152,0,.228,0,.12.01.177-.03.19-.16.027-.287.069-.573.109-.859.157-1.128.319-2.255.472-3.384.133-.978.253-1.957.385-2.934.19-1.4.388-2.8.58-4.2q.292-2.133.579-4.267c.052-.386.1-.772.163-1.208-.1.082-.164.126-.219.176a7.8,7.8,0,0,1-4.559,1.917,9.733,9.733,0,0,1-3.818-.459,15.549,15.549,0,0,1-4.361-2.071,6.161,6.161,0,0,0-2.336-.979,8.584,8.584,0,0,0-4.144.279c-.533.162-1.051.374-1.571.562Zm-4.028-29.6,1.512,11.1c.062-.019.1-.027.133-.041a10.959,10.959,0,0,1,4.065-.91,7.349,7.349,0,0,1,3.594.766c.524.271,1.016.6,1.522.911a15.157,15.157,0,0,0,3.794,1.629,8.236,8.236,0,0,0,3.939.224,6.406,6.406,0,0,0,3.734-2.061,2.31,2.31,0,0,0,.656-1.2c.055-.452.12-.9.182-1.354l1.039-7.63c.064-.472.127-.944.193-1.433Zm20.228,30.493H810.886c.062.452.117.881.18,1.308.046.313.051.313.37.313h15.121a.361.361,0,0,0,.135,0c.047-.02.113-.062.118-.1C826.869,1542.851,826.918,1542.352,826.972,1541.832Z" transform="translate(-796.72 -1504.46)" fill="#006cfa"/>
  </g>
</svg>
