<svg xmlns="http://www.w3.org/2000/svg" xmlns:xlink="http://www.w3.org/1999/xlink" width="46.69" height="53.862" viewBox="0 0 46.69 53.862">
  <defs>
    <filter id="Path_7234" x="0" y="0" width="46.69" height="53.862" filterUnits="userSpaceOnUse">
      <feOffset dy="3" input="SourceAlpha"/>
      <feGaussianBlur stdDeviation="3" result="blur"/>
      <feFlood flood-opacity="0.161"/>
      <feComposite operator="in" in2="blur"/>
      <feComposite in="SourceGraphic"/>
    </filter>
  </defs>
  <g transform="matrix(1, 0, 0, 1, 0, 0)" filter="url(#Path_7234)">
    <g id="Path_7234-2" data-name="Path 7234" transform="translate(-795.58 -1503.46)" fill="#006cfa">
      <path d="M 827.9657592773438 1544.81884765625 L 827.5289916992188 1544.81884765625 L 810.331787109375 1544.81884765625 L 809.8952026367188 1544.81884765625 L 809.8363647460938 1544.38623046875 L 808.30029296875 1533.1005859375 L 805.2276000976562 1510.5244140625 L 805.150390625 1509.95703125 L 805.7230224609375 1509.95703125 L 832.1232299804688 1509.95703125 L 832.6956176757812 1509.95703125 L 832.6187133789062 1510.524291992188 L 830.3716430664062 1527.086059570312 L 828.0244750976562 1544.386108398438 L 827.9657592773438 1544.81884765625 Z M 811.4578247070312 1542.331787109375 C 811.486328125 1542.54296875 811.5142211914062 1542.747680664062 811.5436401367188 1542.9521484375 C 816.480712890625 1542.951904296875 821.416748046875 1542.951904296875 826.352294921875 1542.951904296875 C 826.3748168945312 1542.74755859375 826.3963623046875 1542.542114257812 826.4180297851562 1542.331787109375 L 811.4578247070312 1542.331787109375 Z M 811.2085571289062 1540.436279296875 L 815.9412841796875 1540.436279296875 L 826.6376342773438 1540.436279296875 C 826.6575317382812 1540.27294921875 826.6801147460938 1540.111450195312 826.7022094726562 1539.953247070312 L 826.7166137695312 1539.849975585938 C 826.7733764648438 1539.442138671875 826.8307495117188 1539.034545898438 826.8881225585938 1538.627075195312 C 826.98779296875 1537.919189453125 827.0908203125 1537.187255859375 827.1884765625 1536.467651367188 C 827.255126953125 1535.9775390625 827.3195190429688 1535.478149414062 827.3818359375 1534.9951171875 C 827.4436645507812 1534.516235351562 827.5075073242188 1534.02099609375 827.57373046875 1533.533569335938 C 827.6799926757812 1532.750122070312 827.7907104492188 1531.954223632812 827.8977661132812 1531.184692382812 C 827.9835205078125 1530.568115234375 828.0692749023438 1529.951538085938 828.1537475585938 1529.334716796875 C 828.2916870117188 1528.327758789062 828.427734375 1527.320678710938 828.5638427734375 1526.3134765625 L 828.7291870117188 1525.090576171875 C 827.5872802734375 1525.883178710938 826.248046875 1526.351806640625 824.6639404296875 1526.5166015625 C 824.3906860351562 1526.545043945312 824.1094970703125 1526.5595703125 823.8281860351562 1526.5595703125 C 822.8489379882812 1526.5595703125 821.8392944335938 1526.394287109375 820.6506958007812 1526.039428710938 C 819.0276489257812 1525.55419921875 817.513427734375 1524.8349609375 816.1499633789062 1523.901611328125 C 815.489990234375 1523.450073242188 814.7675170898438 1523.147094726562 814.002685546875 1523.001098632812 C 813.552490234375 1522.915283203125 813.088623046875 1522.871704101562 812.6240234375 1522.871704101562 C 811.81298828125 1522.871704101562 810.9628295898438 1523.0048828125 810.09716796875 1523.267333984375 C 809.7468872070312 1523.37353515625 809.3907470703125 1523.507446289062 809.0463256835938 1523.636840820312 C 809.0079956054688 1523.6513671875 808.9693603515625 1523.665893554688 808.9304809570312 1523.680419921875 L 811.2085571289062 1540.436279296875 Z M 812.654296875 1520.984252929688 C 814.0230102539062 1520.984252929688 815.2081298828125 1521.253784179688 816.2772827148438 1521.80810546875 C 816.6581420898438 1522.00537109375 817.0203247070312 1522.232299804688 817.3705444335938 1522.45166015625 C 817.5205688476562 1522.545776367188 817.67578125 1522.642944335938 817.8279418945312 1522.73486328125 C 818.9536743164062 1523.415405273438 820.1881713867188 1523.945434570312 821.4971923828125 1524.310302734375 C 822.3478393554688 1524.547241210938 823.1202392578125 1524.662475585938 823.8583984375 1524.662475585938 C 823.8584594726562 1524.662475585938 823.8585205078125 1524.662475585938 823.8585815429688 1524.662475585938 C 824.31494140625 1524.662475585938 824.766357421875 1524.616821289062 825.2003784179688 1524.526733398438 C 826.70361328125 1524.214965820312 827.8336181640625 1523.594970703125 828.6550903320312 1522.631469726562 C 828.946044921875 1522.290283203125 829.155029296875 1522.023559570312 829.195068359375 1521.695556640625 C 829.2355346679688 1521.364624023438 829.2816772460938 1521.031005859375 829.3263549804688 1520.708251953125 C 829.3436279296875 1520.583618164062 829.3609008789062 1520.458862304688 829.3778686523438 1520.334228515625 L 829.909912109375 1516.426635742188 L 830.4168090820312 1512.703979492188 C 830.4558715820312 1512.4169921875 830.4945068359375 1512.129760742188 830.53369140625 1511.838623046875 L 807.3163452148438 1511.838623046875 L 808.0839233398438 1517.472290039062 L 808.666259765625 1521.74609375 C 809.9447631835938 1521.2607421875 811.1851806640625 1521.011596679688 812.4432983398438 1520.986450195312 C 812.513671875 1520.984985351562 812.5841064453125 1520.984252929688 812.654296875 1520.984252929688 Z" stroke="none"/>
      <path d="M 805.7230224609375 1510.45703125 C 807.2622680664062 1521.76611328125 808.797119140625 1533.043212890625 810.331787109375 1544.31884765625 L 827.5289916992188 1544.31884765625 C 829.061767578125 1533.021240234375 830.5916748046875 1521.74560546875 832.1232299804688 1510.45703125 L 805.7230224609375 1510.45703125 M 823.8583984375 1525.162475585938 C 823.020263671875 1525.162475585938 822.1900024414062 1525.022338867188 821.3629150390625 1524.7919921875 C 820.0238647460938 1524.418701171875 818.7583618164062 1523.881591796875 817.5693359375 1523.162841796875 C 817.0631713867188 1522.85693359375 816.5711059570312 1522.5234375 816.047119140625 1522.251953125 C 814.9835815429688 1521.700561523438 813.839111328125 1521.484252929688 812.654296875 1521.484252929688 C 812.5874633789062 1521.484252929688 812.5203857421875 1521.484985351562 812.4533081054688 1521.486328125 C 811.0380249023438 1521.5146484375 809.6886596679688 1521.84765625 808.3884887695312 1522.39599609375 C 808.3543090820312 1522.410400390625 808.3174438476562 1522.41845703125 808.2557983398438 1522.437255859375 C 807.7513427734375 1518.735107421875 807.248779296875 1515.0458984375 806.7435913085938 1511.338623046875 L 831.1055297851562 1511.338623046875 C 831.0394897460938 1511.827880859375 830.9764404296875 1512.2998046875 830.9122314453125 1512.771484375 C 830.5659790039062 1515.31494140625 830.2195434570312 1517.858154296875 829.873291015625 1520.401611328125 C 829.8118896484375 1520.85302734375 829.7466430664062 1521.303955078125 829.69140625 1521.756103515625 C 829.6317749023438 1522.24462890625 829.3338012695312 1522.606201171875 829.0355834960938 1522.955810546875 C 828.0523681640625 1524.109130859375 826.7590942382812 1524.714111328125 825.3019409179688 1525.016357421875 C 824.8174438476562 1525.116821289062 824.3367309570312 1525.162475585938 823.8583984375 1525.162475585938 M 823.828125 1526.0595703125 C 824.0879516601562 1526.0595703125 824.349365234375 1526.046630859375 824.6121826171875 1526.019287109375 C 826.322998046875 1525.84130859375 827.8741455078125 1525.27099609375 829.1715087890625 1524.102783203125 C 829.2265625 1524.05322265625 829.2872924804688 1524.009521484375 829.3902587890625 1523.92724609375 C 829.3316040039062 1524.363037109375 829.2799682617188 1524.749267578125 829.2276611328125 1525.135498046875 C 829.0350341796875 1526.557861328125 828.8439331054688 1527.98046875 828.6491088867188 1529.402587890625 C 828.4573974609375 1530.80224609375 828.2590942382812 1532.200927734375 828.0691528320312 1533.600830078125 C 827.9364624023438 1534.578125 827.8168334960938 1535.557373046875 827.6839599609375 1536.534912109375 C 827.53076171875 1537.663330078125 827.3688354492188 1538.790771484375 827.2118530273438 1539.918701171875 C 827.1721801757812 1540.20458984375 827.1304931640625 1540.490478515625 827.1031494140625 1540.77783203125 C 827.091796875 1540.896240234375 827.04345703125 1540.939575195312 826.9453125 1540.939575195312 C 826.9351806640625 1540.939575195312 826.9244995117188 1540.939086914062 826.9132690429688 1540.938232421875 C 826.8812255859375 1540.935668945312 826.8490600585938 1540.934936523438 826.8168334960938 1540.934936523438 C 826.77294921875 1540.934936523438 826.72900390625 1540.936279296875 826.6852416992188 1540.936279296875 C 823.1039428710938 1540.936279296875 819.5226440429688 1540.936279296875 815.9412841796875 1540.936279296875 C 814.3145141601562 1540.936279296875 812.6878662109375 1540.936279296875 811.0611572265625 1540.936279296875 L 810.7719116210938 1540.936279296875 C 809.9743041992188 1535.0693359375 809.1815185546875 1529.23828125 808.3809814453125 1523.350341796875 C 808.9012451171875 1523.162841796875 809.4189453125 1522.950439453125 809.9520874023438 1522.788818359375 C 810.83203125 1522.52197265625 811.7239379882812 1522.371704101562 812.6240234375 1522.371704101562 C 813.1126098632812 1522.371704101562 813.6036987304688 1522.416015625 814.0963745117188 1522.510009765625 C 814.9371337890625 1522.67041015625 815.7216186523438 1523.002685546875 816.432373046875 1523.489013671875 C 817.7772827148438 1524.40966796875 819.2329711914062 1525.09375 820.793701171875 1525.560302734375 C 821.7896728515625 1525.857666015625 822.7976684570312 1526.0595703125 823.828125 1526.0595703125 M 826.6415405273438 1543.45654296875 C 826.6140747070312 1543.45654296875 826.5845947265625 1543.451904296875 826.55712890625 1543.451904296875 C 821.5166625976562 1543.451904296875 816.4762573242188 1543.451904296875 811.4357299804688 1543.4521484375 C 811.1162109375 1543.4521484375 811.1117553710938 1543.45263671875 811.065673828125 1543.1396484375 C 811.0028686523438 1542.71240234375 810.9475708007812 1542.283935546875 810.8857421875 1541.831787109375 L 826.9720458984375 1541.831787109375 C 826.9181518554688 1542.352294921875 826.8690795898438 1542.8505859375 826.8104248046875 1543.347412109375 C 826.805908203125 1543.38623046875 826.7390747070312 1543.427734375 826.6925048828125 1543.44775390625 C 826.6771850585938 1543.454467773438 826.6597900390625 1543.45654296875 826.6415405273438 1543.45654296875 M 804.5776977539062 1509.45703125 L 805.7230224609375 1509.45703125 L 832.1232299804688 1509.45703125 L 833.26806640625 1509.45703125 L 833.1141357421875 1510.591430664062 L 830.8671264648438 1527.1533203125 L 828.5198974609375 1544.453247070312 L 828.4024658203125 1545.31884765625 L 827.5289916992188 1545.31884765625 L 810.331787109375 1545.31884765625 L 809.4586791992188 1545.31884765625 L 809.3409423828125 1544.453735351562 L 807.8048706054688 1533.16796875 L 804.732177734375 1510.591918945312 L 804.5776977539062 1509.45703125 Z M 829.9617919921875 1512.338623046875 L 807.8890991210938 1512.338623046875 L 808.6035766601562 1517.582763671875 L 809.0787353515625 1521.069946289062 C 810.2056274414062 1520.700805664062 811.311767578125 1520.508911132812 812.4332885742188 1520.486572265625 C 812.5068359375 1520.484985351562 812.5806274414062 1520.484252929688 812.6541748046875 1520.484252929688 C 814.1050415039062 1520.484252929688 815.3654174804688 1520.772094726562 816.5073852539062 1521.364135742188 C 816.9063110351562 1521.57080078125 817.2772216796875 1521.80322265625 817.635986328125 1522.027954101562 C 817.7911987304688 1522.125244140625 817.9378051757812 1522.217041015625 818.0866088867188 1522.307006835938 C 819.1734619140625 1522.963989257812 820.3661499023438 1523.475952148438 821.6314697265625 1523.828735351562 C 822.437744140625 1524.05322265625 823.166259765625 1524.162475585938 823.8583984375 1524.162475585938 C 824.2808227539062 1524.162475585938 824.6981201171875 1524.120361328125 825.0988159179688 1524.037231445312 C 826.4891357421875 1523.748779296875 827.5279541015625 1523.182861328125 828.2745971679688 1522.307006835938 C 828.5084838867188 1522.032836914062 828.6756591796875 1521.824340820312 828.6987915039062 1521.634887695312 C 828.7396850585938 1521.30029296875 828.7860717773438 1520.96484375 828.8309936523438 1520.640380859375 C 828.8482055664062 1520.515869140625 828.865478515625 1520.391357421875 828.8823852539062 1520.266845703125 L 829.4019165039062 1516.45166015625 L 829.92138671875 1512.636596679688 C 829.9348754882812 1512.537353515625 829.9483642578125 1512.438110351562 829.9617919921875 1512.338623046875 Z M 823.8281860351562 1527.0595703125 C 822.799072265625 1527.0595703125 821.7439575195312 1526.887573242188 820.5076293945312 1526.5185546875 C 818.8348388671875 1526.018432617188 817.2737426757812 1525.27685546875 815.8674926757812 1524.314208984375 C 815.2647705078125 1523.90185546875 814.6057739257812 1523.625244140625 813.9089965820312 1523.492309570312 C 813.4896240234375 1523.412353515625 813.0573120117188 1523.371704101562 812.6240234375 1523.371704101562 C 811.8621215820312 1523.371704101562 811.0608520507812 1523.49755859375 810.2422485351562 1523.745849609375 C 809.9900512695312 1523.822265625 809.7388916015625 1523.912109375 809.4796752929688 1524.008544921875 L 811.6451416015625 1539.936279296875 L 815.9412841796875 1539.936279296875 L 826.19970703125 1539.936279296875 C 826.2021484375 1539.918823242188 826.20458984375 1539.901489257812 826.20703125 1539.884155273438 L 826.2213745117188 1539.78125 C 826.2781372070312 1539.372924804688 826.3355712890625 1538.965209960938 826.3930053710938 1538.557373046875 C 826.4925537109375 1537.85009765625 826.5955200195312 1537.118774414062 826.6930541992188 1536.400390625 C 826.7594604492188 1535.911865234375 826.8237915039062 1535.413330078125 826.885986328125 1534.93115234375 C 826.9478759765625 1534.451416015625 827.0118408203125 1533.955322265625 827.0782470703125 1533.46630859375 C 827.1846313476562 1532.682006835938 827.29541015625 1531.8857421875 827.4025268554688 1531.11572265625 C 827.4882202148438 1530.49951171875 827.5739135742188 1529.88330078125 827.6583251953125 1529.266845703125 C 827.7962646484375 1528.26025390625 827.9323120117188 1527.25341796875 828.0682983398438 1526.24658203125 L 828.0942993164062 1526.054443359375 C 827.0999145507812 1526.565551757812 825.98095703125 1526.88232421875 824.7156372070312 1527.013916015625 C 824.42529296875 1527.044189453125 824.1266479492188 1527.0595703125 823.8281860351562 1527.0595703125 Z" stroke="none" fill="#fff"/>
    </g>
  </g>
</svg>
