<svg xmlns="http://www.w3.org/2000/svg" width="46.177" height="32.195" viewBox="0 0 46.177 32.195">
  <g id="Group_645" data-name="Group 645" transform="translate(-963.441 -1781.057)">
    <path id="Path_7242" data-name="Path 7242" d="M964.191,1808.294a3.989,3.989,0,0,1,2.523-2.683c.215-.072.349-.611.387-.95a19.113,19.113,0,0,1,3.984-9.787,19.4,19.4,0,0,1,10.563-6.963c.194-.052.386-.109.674-.191,0-.6-.014-1.2,0-1.8a4.182,4.182,0,0,1,8.362-.015c.057,1.786.075,1.736,1.74,2.332,7.722,2.764,12.249,8.187,13.443,16.327a1.386,1.386,0,0,0,.956,1.323,3.354,3.354,0,0,1,1.94,3.721,3.511,3.511,0,0,1-3.2,2.861c-.318.022-.639.01-.958.01-12.024,0-24.048-.026-36.072.024-2.161.009-3.644-.723-4.35-2.813Zm38.952-2.824c-.49-8.907-8.492-15.84-17.716-15.317-9.626.546-15.384,8.828-15.506,15.317Zm-16.545,2.824H968.4c-.261,0-.574-.079-.771.036a1.2,1.2,0,0,0-.59.7c-.024.185.33.48.576.62.177.1.453.033.685.033h36.4c.232,0,.519.075.684-.033a1.26,1.26,0,0,0,.59-.707c.024-.186-.327-.492-.575-.618a1.853,1.853,0,0,0-.773-.036Zm-1.444-21.013h2.688c.172-1.813-.232-2.639-1.286-2.683C985.469,1784.552,985.017,1785.394,985.154,1787.282Z" transform="translate(0 0)" fill="#006cfa" stroke="#fff" stroke-width="1.5"/>
    <path id="Path_7243" data-name="Path 7243" d="M1118.141,1854.7c-.019.661-.343,1.249-1.008,1.3a2.96,2.96,0,0,1-1.509-.537c-.2-.114-.244-.505-.349-.774a12.516,12.516,0,0,0-7.878-7.6c-.109-.038-.224-.062-.332-.1a1.377,1.377,0,0,1-1.005-1.752,1.331,1.331,0,0,1,1.879-.874,26,26,0,0,1,4.139,1.986,14.632,14.632,0,0,1,5.853,7.483c.07.19.127.385.18.581A1.923,1.923,0,0,1,1118.141,1854.7Z" transform="translate(-116.983 -51.501)" fill="#006cfa" stroke="#fff" stroke-width="1.5"/>
  </g>
</svg>
