<svg xmlns="http://www.w3.org/2000/svg" width="30.326" height="27.645" viewBox="0 0 30.326 27.645">
  <path id="Path_7373" data-name="Path 7373" d="M925.892,1460.146c.2-.357.385-.725.606-1.069a7.668,7.668,0,0,1,4.776-3.523,7.3,7.3,0,0,1,7.305,2.181,8.766,8.766,0,0,1,2.446,6.977,10.321,10.321,0,0,1-1.44,4.355,28.815,28.815,0,0,1-4.436,5.87,83.745,83.745,0,0,1-8.7,7.808.8.8,0,0,1-1.092.012,84.9,84.9,0,0,1-8.53-7.635,29.579,29.579,0,0,1-3.7-4.535,18.36,18.36,0,0,1-1.851-3.495,9.079,9.079,0,0,1,2.419-9.837,7.536,7.536,0,0,1,10.73.676,8.882,8.882,0,0,1,1.354,2.028c.027.057.057.113.087.168C925.87,1460.135,925.883,1460.14,925.892,1460.146Zm-.015,20.977c.047-.031.069-.044.089-.059A85.086,85.086,0,0,0,933.81,1474a27.569,27.569,0,0,0,4.482-5.925,8.086,8.086,0,0,0,1.089-5.042,7.035,7.035,0,0,0-2.7-4.837,5.671,5.671,0,0,0-4.4-1.193,6.03,6.03,0,0,0-4.2,2.626,11.906,11.906,0,0,0-.881,1.608,1.431,1.431,0,0,1-1.994.684,1.744,1.744,0,0,1-.737-.931,6.993,6.993,0,0,0-1.68-2.408,5.8,5.8,0,0,0-6.748-.977,6.844,6.844,0,0,0-3.673,5.768,7.656,7.656,0,0,0,.94,4.349,25.337,25.337,0,0,0,3.888,5.447,73.232,73.232,0,0,0,6.5,6.146C924.417,1479.922,925.147,1480.516,925.878,1481.123Z" transform="translate(-910.725 -1455.319)" fill="#006fff"/>
</svg>
