<svg xmlns="http://www.w3.org/2000/svg" width="34.623" height="33.25" viewBox="0 0 34.623 33.25">
  <path id="Path_7350" data-name="Path 7350" d="M2699.05,2063.6c-.075.1-.128.162-.176.229-.409.569-.814,1.141-1.232,1.7a.35.35,0,0,1-.259.138,10.128,10.128,0,0,1-4.07-1.265,6.017,6.017,0,0,1-2.135-2.062,1.06,1.06,0,0,1-.04-1.172,65.889,65.889,0,0,1,3.794-6.581c.089-.13.186-.254.273-.386a6.074,6.074,0,0,1,2.517-2.153q2.449-1.167,4.9-2.322a.5.5,0,0,1,.269-.028c1.558.217,3.112.462,4.674.65a10.823,10.823,0,0,0,2.848-.145c1.09-.158,2.175-.346,3.263-.515a.409.409,0,0,1,.224.035q2.557,1.215,5.11,2.438a6.149,6.149,0,0,1,2.371,2.11,52.917,52.917,0,0,1,3.415,5.765c.25.473.48.957.735,1.427a.489.489,0,0,1,.019.467,5.029,5.029,0,0,1-1.66,2.021,8.828,8.828,0,0,1-3.847,1.586c-.271.05-.545.08-.815.131a.31.31,0,0,1-.356-.145c-.4-.575-.814-1.141-1.223-1.709-.045-.062-.094-.122-.182-.234-.046.341-.094.625-.12.91a30.949,30.949,0,0,0-.035,4.886q.153,2.332.4,4.657a47.654,47.654,0,0,0,1.383,7.582c.01.037.02.074.047.179-.6.16-1.179.347-1.774.469a31.984,31.984,0,0,1-4.474.531c-2.494.155-4.99.178-7.487.087a36.743,36.743,0,0,1-6.682-.71c-.449-.1-.885-.259-1.325-.391.179-.74.361-1.431.513-2.128.409-1.877.692-3.775.914-5.683a56.688,56.688,0,0,0,.449-7.634c-.016-.84-.116-1.679-.18-2.519A1.7,1.7,0,0,0,2699.05,2063.6Zm.088,17.192c2.466.947,16.44.929,18.259-.018a.624.624,0,0,0-.009-.092,57.189,57.189,0,0,1-1.045-6.09,62.738,62.738,0,0,1-.524-7.37,20.407,20.407,0,0,1,.346-4.346,8.608,8.608,0,0,1,.948-2.243c.071.1.123.165.173.235.745,1.035,1.493,2.069,2.23,3.11a.3.3,0,0,0,.371.147c.535-.156,1.084-.275,1.605-.468a5.231,5.231,0,0,0,2.448-1.742.3.3,0,0,0,.031-.378c-.5-.919-.974-1.853-1.484-2.766a35.233,35.233,0,0,0-2.518-4.019,3.6,3.6,0,0,0-1.261-1.117c-1.508-.748-3.02-1.486-4.527-2.235-.184-.092-.216.043-.28.143a6.563,6.563,0,0,1-6.792,2.961,6.3,6.3,0,0,1-4.494-2.99c-.081-.126-.141-.177-.294-.1q-2.034,1-4.075,1.979a5.038,5.038,0,0,0-1.986,1.765,59.409,59.409,0,0,0-3.728,6.456.283.283,0,0,0,.028.248,5.081,5.081,0,0,0,.554.642,6.929,6.929,0,0,0,3.629,1.63.339.339,0,0,0,.252-.141c.76-1.044,1.512-2.094,2.266-3.142.047-.066.1-.127.16-.2a7.094,7.094,0,0,1,.979,2.421c.124.9.25,1.8.286,2.7a47.216,47.216,0,0,1-.365,7.614c-.216,1.772-.49,3.537-.762,5.3C2699.454,2079.38,2699.283,2080.076,2699.138,2080.79Zm5.213-29.378a4.972,4.972,0,0,0,4.313,1.744,4.756,4.756,0,0,0,3.521-1.75A20.21,20.21,0,0,1,2704.352,2051.412Z" transform="translate(-2690.981 -2049.686)" fill="#006fff"/>
</svg>
