<svg xmlns="http://www.w3.org/2000/svg" width="233.738" height="114.225" viewBox="0 0 233.738 114.225">
  <g id="Path_92" data-name="Path 92" transform="translate(8.659 119.914)" fill="none">
    <path d="M9.408-13.689a9.955,9.955,0,0,0,4.081-1.088,3.419,3.419,0,0,1-1.034-2.177,14.983,14.983,0,0,1-.163-1.85c0-4.734,2.122-12.734,6.313-24.107a40.11,40.11,0,0,0,16.217-6.149,64.392,64.392,0,0,0,14.2-12.026A64.48,64.48,0,0,0,59.31-76.379a45.9,45.9,0,0,0,2.939-7.836,27.421,27.421,0,0,0,1.088-5.877c.054-1.306.054-2.122.054-2.34A18.093,18.093,0,0,0,59.364-104.4q-6.449-7.51-21.713-7.51A53.725,53.725,0,0,0,21.217-109.3C9.68-105.656,2.66-100.051.1-92.6a12.081,12.081,0,0,0-.762,3.374v1.306a10.823,10.823,0,0,0,.653,3.7,9.4,9.4,0,0,0,2.177,3.156,10.584,10.584,0,0,0,3.646,2.231,19.792,19.792,0,0,1,5.17-10.394A35.858,35.858,0,0,1,21.6-97.439c4.6-2.4,15.261-4.832,19.685-5.044.137-.008.5-.017.87-.017a14.256,14.256,0,0,1,8.925,2.612,10.291,10.291,0,0,1,3.047,3.809,10.77,10.77,0,0,1,1.088,3.864c.054,1.034.054,1.687.054,1.959a30.114,30.114,0,0,1-2.612,11.428,54.712,54.712,0,0,1-7.619,12.843C39.7-59.237,27.747-53.414,21.544-50.639q8.326-21.386,9.85-25.849,2.122-6.367,2.122-8.816a6.984,6.984,0,0,0-1.36-4.3c-1.9-2.449-4.843-3.646-8.816-3.646a15.177,15.177,0,0,0-3.483.381A117.089,117.089,0,0,1,15.5-76.324C10.388-60.543,7.449-51.237,6.578-48.408,3.313-37.578,1.735-29.579,1.735-24.355c0,3.755.707,6.421,2.177,7.945A7.451,7.451,0,0,0,9.408-13.689Zm59.9-14.639a16.009,16.009,0,0,0,12.081-5.605c3.973-4.245,6.53-9.959,7.782-17.251a36.579,36.579,0,0,0,.49-6.149c0-6.476-1.687-11.373-5.061-14.8a13.253,13.253,0,0,0-9.686-3.755,15.043,15.043,0,0,0-8.707,2.775A22.553,22.553,0,0,0,59.73-65.93a14.867,14.867,0,0,0-4.462,5.714,29.16,29.16,0,0,0-2.612,12.68,24.134,24.134,0,0,0,1.524,8.653c2.068,5.823,6.04,9.2,11.809,10.231A18.489,18.489,0,0,0,69.308-28.327Zm3.156-5.17a4.545,4.545,0,0,1-2.612-.871c-1.9-1.415-2.884-4.462-2.884-9.251a42.132,42.132,0,0,1,3.156-15.836c.282-.669.573-1.3.976-2.116a19.094,19.094,0,0,1,2.452-3.816s2.408-2.181,4.379-2.181c1.252,0,3.61,3.287,4.535,4.1-.081.007.718-.235.718,5.37a45.189,45.189,0,0,1-2.068,13.387,31.992,31.992,0,0,1-2.993,6.857C76.273-34.912,74.369-33.5,72.464-33.5Zm40.146,5.17c4.136-.109,8.054-1.741,11.863-4.843,3.5-2.894,8.364-15.313,7.7-17.034.133.049.069-.007-.024,0a41.412,41.412,0,0,1-7.51,10.122c-4.353,4.517-8.108,6.8-11.319,6.8a4.705,4.705,0,0,1-2.83-.816c-2.286-1.578-3.374-4.245-3.374-8.054a21.391,21.391,0,0,1,1.469-7.238,17.952,17.952,0,0,0,3.156.272,16.829,16.829,0,0,0,6.2-1.252,27.148,27.148,0,0,0,11.21-8.489,19.417,19.417,0,0,0,3.156-5.387,10.959,10.959,0,0,0,.871-3.973q0-4.245-3.1-5.877c-2.286-1.252-5.605-1.85-9.9-1.85a20.848,20.848,0,0,0-7.673,1.088,26.086,26.086,0,0,0-7.836,4.952A33.713,33.713,0,0,0,95.032-54.72a29.055,29.055,0,0,0-1.469,9.033,19.181,19.181,0,0,0,1.85,8.6,12.377,12.377,0,0,0,4.353,5.061A21.586,21.586,0,0,0,112.61-28.327ZM110.6-54.122a48.79,48.79,0,0,1,3.864-6.639c2.884-4.136,5.714-6.911,8.544-8.326a8.346,8.346,0,0,1,2.286-.816c.435,0,.653.272.653.762a4.91,4.91,0,0,1-.49,1.9,26.033,26.033,0,0,1-5.932,8.217,21.962,21.962,0,0,1-3.1,2.612A12.408,12.408,0,0,1,110.6-54.122Zm53.968,25.849a9.774,9.774,0,0,0,3.1-.544,14.155,14.155,0,0,1-.653-4.734c0-4.353,1.034-10.285,3.156-17.849a135.148,135.148,0,0,1,5.061-14.747,11.693,11.693,0,0,0,1.143-4.571,4.952,4.952,0,0,0-2.177-4.462,5.873,5.873,0,0,0-2.939-.707,10.847,10.847,0,0,0-5.714,1.633c-4.734,2.939-9.85,10.34-15.509,22.257l-3.7,8.217A141.546,141.546,0,0,1,151.667-63.7c1.741-5.115,3.265-8.272,4.517-9.414a11.906,11.906,0,0,0-7.564-2.83,10.993,10.993,0,0,0-8.707,4.245,64.925,64.925,0,0,0-3.32,9.686,84.683,84.683,0,0,0-3.1,21.223,24.979,24.979,0,0,0,.816,7.074,7.122,7.122,0,0,0,3.918,4.626,7.886,7.886,0,0,0,3.592.762,10.064,10.064,0,0,0,3.047-.435,141.152,141.152,0,0,1,12.68-27.971,82.867,82.867,0,0,0-2.068,17.305,20.29,20.29,0,0,0,.6,5.224,7.468,7.468,0,0,0,2.612,3.864A9.112,9.112,0,0,0,164.564-28.273Zm22.514-21.114a13.313,13.313,0,0,0,3.374-.435,8.8,8.8,0,0,1-.272-2.667,42.964,42.964,0,0,1,1.633-9.741q3.755-14.611,9.741-24.271c2.177-3.592,4.353-5.986,6.585-7.183a16.683,16.683,0,0,0-8-1.85c-4.3,0-7.455.925-9.578,2.83a28.585,28.585,0,0,0-4.9,6.8,70.24,70.24,0,0,0-4.3,9.959q-3.755,10.448-3.755,17.795a12.323,12.323,0,0,0,.816,5.115c.707,1.578,2.5,2.667,5.333,3.265A13.51,13.51,0,0,0,187.078-49.387Zm-4.027,21.55a5.231,5.231,0,0,0,2.775-.707c.925-.49,1.524-1.8,1.741-3.918q.082-1.388.163-3.1a33.041,33.041,0,0,1,1.469-9.578c-.49-.163-1.034-.381-1.687-.544-.707-.163-1.415-.327-2.177-.49A16.341,16.341,0,0,0,183-46.34a7.612,7.612,0,0,0-4.027.98,6.45,6.45,0,0,0-2.5,3.755,19.735,19.735,0,0,0-.98,6.2,15.475,15.475,0,0,0,.435,3.755,5,5,0,0,0,2.939,2.83A9.466,9.466,0,0,0,183.051-27.838Z" stroke="none"/>
    <path d="M 9.408254623413086 -13.68872451782227 C 10.71428775787354 -13.74312496185303 12.0747537612915 -14.06965827941895 13.48962116241455 -14.77709197998047 C 12.89102077484131 -15.37569141387939 12.51008796691895 -16.13755798339844 12.45568752288818 -16.95382499694824 C 12.34682083129883 -17.77009201049805 12.29242038726807 -18.36869239807129 12.29242038726807 -18.80405807495117 C 12.29242038726807 -23.5384578704834 14.41475391387939 -31.53799247741699 18.60495376586914 -42.91142654418945 C 23.99238777160645 -43.61889266967773 29.37982177734375 -45.63235855102539 34.8216552734375 -49.06072616577148 C 39.99142074584961 -52.27142333984375 44.78025436401367 -56.29839324951172 49.02488708496094 -61.08722305297852 C 53.32395553588867 -65.87602233886719 56.6978874206543 -70.93695831298828 59.30998611450195 -76.37879180908203 C 60.56158828735352 -78.99089050292969 61.54112243652344 -81.60295867919922 62.24858856201172 -84.21505737304688 C 62.95602035522461 -86.77272796630859 63.28252029418945 -88.73178863525391 63.33695602416992 -90.09225463867188 C 63.39135360717773 -91.39829254150391 63.39135360717773 -92.21459197998047 63.39135360717773 -92.43225860595703 C 63.39135360717773 -97.22106170654297 62.03088760375977 -101.1936264038086 59.36438751220703 -104.4043273925781 C 55.0653190612793 -109.4108276367188 47.82768630981445 -111.9140548706055 37.65142059326172 -111.9140548706055 C 32.15515518188477 -111.9140548706055 26.65888786315918 -111.0433578491211 21.21705436706543 -109.3019561767578 C 9.680320739746094 -105.6559600830078 2.660354137420654 -100.0508270263672 0.1026875153183937 -92.59548950195312 C -0.3870791494846344 -91.12619018554688 -0.659179151058197 -89.98342132568359 -0.659179151058197 -89.2215576171875 L -0.659179151058197 -87.91552734375 C -0.659179151058197 -86.66389465332031 -0.4415124952793121 -85.41226196289062 -0.006145820952951908 -84.21505737304688 C 0.4836208522319794 -83.07225799560547 1.191054224967957 -81.98389434814453 2.170587539672852 -81.05879211425781 C 3.150120735168457 -80.13365936279297 4.347321033477783 -79.371826171875 5.816620826721191 -78.82762145996094 C 6.306387424468994 -82.41925811767578 8.047787666320801 -85.90202331542969 10.98638725280762 -89.2215576171875 C 13.9793872833252 -92.59548950195312 17.46218681335449 -95.31642150878906 21.59798812866211 -97.43875885009766 C 26.19895362854004 -99.83925628662109 36.85898590087891 -102.2710571289062 41.28258895874023 -102.4829940795898 C 41.4194221496582 -102.49072265625 41.78705596923828 -102.4996566772461 42.15291976928711 -102.4996566772461 C 45.85338592529297 -102.4996566772461 48.79198837280273 -101.6289596557617 51.07755279541016 -99.88755798339844 C 52.43802261352539 -98.85362243652344 53.41755294799805 -97.54759216308594 54.1249885559082 -96.07829284667969 C 54.83242034912109 -94.55455780029297 55.15895462036133 -93.24852752685547 55.21335601806641 -92.21459197998047 C 55.26778793334961 -91.18062591552734 55.26778793334961 -90.527587890625 55.26778793334961 -90.2554931640625 C 55.26778793334961 -86.82715606689453 54.39708709716797 -83.01786041259766 52.65568923950195 -78.82762145996094 C 50.80545425415039 -74.36532592773438 48.24778747558594 -70.06626129150391 45.03708648681641 -65.98485565185547 C 39.70408630371094 -59.23699188232422 27.74725341796875 -53.41419219970703 21.54355430603027 -50.63885879516602 C 27.09425354003906 -64.89649200439453 30.35935401916504 -73.49462127685547 31.39332008361816 -76.48762512207031 C 32.80818939208984 -80.73229217529297 33.51562118530273 -83.67086029052734 33.51562118530273 -85.30342864990234 C 33.51562118530273 -86.93598937988281 33.08028793334961 -88.35086059570312 32.15515518188477 -89.60249328613281 C 30.25052070617676 -92.05132293701172 27.31192016601562 -93.24852752685547 23.33935356140137 -93.24852752685547 C 22.19658660888672 -93.24852752685547 20.99938774108887 -93.13969421386719 19.85658836364746 -92.86759185791016 C 19.25798797607422 -89.05828857421875 17.84312057495117 -83.56202697753906 15.50312042236328 -76.32439422607422 C 10.38778781890869 -60.54302597045898 7.449187278747559 -51.23745727539062 6.578487396240234 -48.40769195556641 C 3.313387393951416 -37.57842636108398 1.735220789909363 -29.57892417907715 1.735220789909363 -24.35475921630859 C 1.735220789909363 -20.59985733032227 2.442687511444092 -17.93335914611816 3.911987543106079 -16.40965843200684 C 5.598954200744629 -14.61382484436035 7.394754409790039 -13.68872451782227 9.408254623413086 -13.68872451782227 M 183.0510559082031 -27.8375244140625 C 184.1938171386719 -27.8375244140625 185.1189575195312 -28.1096248626709 185.8263854980469 -28.54495811462402 C 186.7514801025391 -29.03472518920898 187.3500823974609 -30.34075736999512 187.5677947998047 -32.46309280395508 C 187.6221923828125 -33.38819122314453 187.6766204833984 -34.42215728759766 187.7310180664062 -35.56495666503906 C 187.894287109375 -39.70075988769531 188.3840484619141 -42.91142654418945 189.2003173828125 -45.14259338378906 C 188.7105865478516 -45.30585861206055 188.1663818359375 -45.52352523803711 187.5133819580078 -45.68679046630859 C 186.8059234619141 -45.85002517700195 186.0984802246094 -46.01329040527344 185.3366241455078 -46.17655944824219 C 184.5747833251953 -46.28539276123047 183.8128814697266 -46.33979034423828 182.9966278076172 -46.33979034423828 C 181.3640899658203 -46.33979034423828 180.0580139160156 -46.01329040527344 178.9696502685547 -45.36026000976562 C 177.8812866210938 -44.70726013183594 177.0650177001953 -43.45562362670898 176.4664154052734 -41.60539245605469 C 175.8133850097656 -39.64632415771484 175.4868927001953 -37.52402496337891 175.4868927001953 -35.40169143676758 C 175.4868927001953 -33.98682403564453 175.6501159667969 -32.73519134521484 175.9222259521484 -31.64682579040527 C 176.2487487792969 -30.55845832824707 177.2282867431641 -29.57892417907715 178.8608245849609 -28.81705856323242 C 180.2212829589844 -28.16402435302734 181.5817565917969 -27.8375244140625 183.0510559082031 -27.8375244140625 M 164.5639801025391 -28.27285766601562 C 165.6523895263672 -28.27285766601562 166.6863250732422 -28.49055862426758 167.6658477783203 -28.81705856323242 C 167.2305145263672 -30.01425743103027 167.0128173828125 -31.59239196777344 167.0128173828125 -33.55145645141602 C 167.0128173828125 -37.90492630004883 168.0467834472656 -43.8365592956543 170.1690826416016 -51.40072631835938 C 171.5295867919922 -56.29839324951172 173.216552734375 -61.1960563659668 175.2300262451172 -66.14812469482422 C 175.9918823242188 -67.8895263671875 176.3728179931641 -69.41322326660156 176.3728179931641 -70.71929168701172 C 176.3728179931641 -72.78719329833984 175.6109466552734 -74.25649261474609 174.1960906982422 -75.18159484863281 C 173.3253936767578 -75.67135620117188 172.3458557128906 -75.88902282714844 171.2574920654297 -75.88902282714844 C 169.2439880371094 -75.88902282714844 167.33935546875 -75.34485626220703 165.5435180664062 -74.25649261474609 C 160.8091278076172 -71.31789398193359 155.6937866210938 -63.91695785522461 150.0342864990234 -51.99932479858398 L 146.3338165283203 -43.78212356567383 C 147.6398468017578 -50.53002548217773 149.3812561035156 -57.16909027099609 151.6668243408203 -63.69929122924805 C 153.4082183837891 -68.81462860107422 154.9319152832031 -71.97089385986328 156.1835479736328 -73.11369323730469 C 153.7891540527344 -75.01832580566406 151.285888671875 -75.94345855712891 148.619384765625 -75.94345855712891 C 145.1910247802734 -75.94345855712891 142.3068542480469 -74.52855682373047 139.9124145507812 -71.69879150390625 C 138.6608276367188 -68.81462860107422 137.5180206298828 -65.60395812988281 136.5929260253906 -62.01232528686523 C 134.5250244140625 -54.12165832519531 133.4910583496094 -47.04725646972656 133.4910583496094 -40.78912353515625 C 133.4910583496094 -37.85052490234375 133.7631530761719 -35.51052474975586 134.3073272705078 -33.71472549438477 C 134.9603576660156 -31.53799247741699 136.2664184570312 -30.01425743103027 138.2254486083984 -29.08915901184082 C 139.3138275146484 -28.54495811462402 140.5110168457031 -28.32729148864746 141.8170928955078 -28.32729148864746 C 142.7966156005859 -28.32729148864746 143.8305511474609 -28.43612480163574 144.8645172119141 -28.76262474060059 C 148.2384490966797 -38.93889236450195 152.4831237792969 -48.24445724487305 157.5440216064453 -56.73372650146484 C 156.1835479736328 -50.42119216918945 155.4761199951172 -44.65282440185547 155.4761199951172 -39.42865753173828 C 155.4761199951172 -37.36075973510742 155.6937866210938 -35.61935806274414 156.0747222900391 -34.20449066162109 C 156.5100860595703 -32.68075942993164 157.3807525634766 -31.37472534179688 158.6868133544922 -30.34075736999512 C 160.3737945556641 -28.98032569885254 162.3328552246094 -28.27285766601562 164.5639801025391 -28.27285766601562 M 112.609619140625 -28.32729148864746 C 116.7454223632812 -28.43612480163574 120.6635513305664 -30.06869125366211 124.4728240966797 -33.17052459716797 C 127.9761505126953 -36.06455993652344 132.8363800048828 -48.48398971557617 132.1701202392578 -50.20402526855469 C 132.2112884521484 -50.1888542175293 132.2335662841797 -50.18378448486328 132.2419128417969 -50.18378448486328 C 132.2586975097656 -50.18378448486328 132.2191925048828 -50.20424652099609 132.1637420654297 -50.20424652099609 C 132.1579284667969 -50.20424652099609 132.1519470214844 -50.20402145385742 132.1458282470703 -50.20352554321289 C 130.2411804199219 -46.55749130249023 127.7379531860352 -43.18352508544922 124.6360855102539 -40.08169174194336 C 120.2826232910156 -35.56495666503906 116.5277557373047 -33.27935791015625 113.3170547485352 -33.27935791015625 C 112.1742553710938 -33.27935791015625 111.249153137207 -33.55145645141602 110.4872894287109 -34.09565734863281 C 108.2017211914062 -35.67378997802734 107.1133575439453 -38.34029006958008 107.1133575439453 -42.14959335327148 C 107.1133575439453 -44.27189254760742 107.6030883789062 -46.72072601318359 108.5826568603516 -49.38722610473633 C 109.5077514648438 -49.22399139404297 110.5416870117188 -49.11515808105469 111.7389221191406 -49.11515808105469 C 113.8068237304688 -49.11515808105469 115.8747177124023 -49.55049133300781 117.9426193237305 -50.36675643920898 C 122.3505172729492 -52.16259002685547 126.1053848266602 -54.99232482910156 129.1528167724609 -58.85606002807617 C 130.5132904052734 -60.54302597045898 131.6016540527344 -62.33882522583008 132.30908203125 -64.24349212646484 C 132.9076843261719 -65.76718902587891 133.1797943115234 -67.07325744628906 133.1797943115234 -68.21602630615234 C 133.1797943115234 -71.04579162597656 132.1458282470703 -73.00485992431641 130.0779266357422 -74.09322357177734 C 127.792350769043 -75.34485626220703 124.4728240966797 -75.94345855712891 120.1737899780273 -75.94345855712891 C 116.7454223632812 -75.94345855712891 114.1877517700195 -75.56252288818359 112.5007858276367 -74.85509490966797 C 109.6710205078125 -73.71228790283203 107.0589218139648 -72.07975769042969 104.6645202636719 -69.90299224853516 C 100.1477890014648 -65.82162475585938 96.93708801269531 -60.76069259643555 95.03245544433594 -54.72025680541992 C 94.05291748046875 -51.72722625732422 93.56315612792969 -48.67979049682617 93.56315612792969 -45.68679046630859 C 93.56315612792969 -42.47609329223633 94.16175079345703 -39.64632415771484 95.41335296630859 -37.08865737915039 C 96.2840576171875 -35.12959289550781 97.75335693359375 -33.44262313842773 99.76685333251953 -32.02775955200195 C 103.1952209472656 -29.57892417907715 107.494255065918 -28.32729148864746 112.609619140625 -28.32729148864746 M 125.2891235351562 -69.90299224853516 C 125.7244567871094 -69.90299224853516 125.9421234130859 -69.63088989257812 125.9421234130859 -69.14115905761719 C 125.9421234130859 -68.59696197509766 125.7788848876953 -67.99835968017578 125.4523544311523 -67.23648834228516 C 124.1463241577148 -64.29788970947266 122.187255859375 -61.57699203491211 119.520751953125 -59.01932525634766 C 118.4867858886719 -57.98535919189453 117.4528579711914 -57.11465835571289 116.4188842773438 -56.4072265625 C 114.2421569824219 -54.99232482910156 112.3375244140625 -54.23049163818359 110.5961227416992 -54.12165832519531 C 111.6844863891602 -56.35279083251953 112.9361190795898 -58.58395767211914 114.4598236083984 -60.76069259643555 C 117.3440246582031 -64.89649200439453 120.1737899780273 -67.67185974121094 123.0035171508789 -69.08672332763672 C 123.8742218017578 -69.52205657958984 124.6360855102539 -69.79415893554688 125.2891235351562 -69.90299224853516 M 69.30775451660156 -28.32729148864746 C 73.87889099121094 -28.32729148864746 77.90585327148438 -30.17752456665039 81.38865661621094 -33.93239212036133 C 85.36119079589844 -38.17702484130859 87.91885375976562 -43.89095687866211 89.17048645019531 -51.18305969238281 C 89.49698638916016 -53.08769226074219 89.66025543212891 -55.15559005737305 89.66025543212891 -57.33232498168945 C 89.66025543212891 -63.80812454223633 87.97328948974609 -68.70579528808594 84.59931945800781 -72.1341552734375 C 82.04165649414062 -74.63739013671875 78.83098602294922 -75.88902282714844 74.91285705566406 -75.88902282714844 C 71.81098937988281 -75.88902282714844 68.87239074707031 -74.96392822265625 66.20588684082031 -73.11369323730469 C 63.70262145996094 -71.37229156494141 61.580322265625 -69.03229522705078 59.73008728027344 -65.93045806884766 C 57.98868560791016 -64.67882537841797 56.51938629150391 -62.77419281005859 55.26778793334961 -60.21652603149414 C 53.52638626098633 -56.57049179077148 52.65568923950195 -52.32582473754883 52.65568923950195 -47.53702545166016 C 52.65568923950195 -44.48959350585938 53.14545440673828 -41.60539245605469 54.17938613891602 -38.88445663452148 C 56.24732208251953 -33.06169128417969 60.21985244750977 -29.68775749206543 65.98822021484375 -28.6537914276123 C 67.18541717529297 -28.43612480163574 68.27378845214844 -28.32729148864746 69.30775451660156 -28.32729148864746 M 77.93185424804688 -67.56758880615234 C 79.18348693847656 -67.56758880615234 81.54155731201172 -64.28065490722656 82.46665191650391 -63.46438980102539 C 82.46562957763672 -63.46430206298828 82.46475219726562 -63.46425247192383 82.46400451660156 -63.46422958374023 C 82.515380859375 -63.45624160766602 83.18445587158203 -63.22410202026367 83.18445587158203 -58.09419250488281 C 83.18445587158203 -53.57745742797852 82.47702026367188 -49.11515808105469 81.11655426025391 -44.70726013183594 C 80.19145202636719 -41.82305908203125 79.15748596191406 -39.53749084472656 78.12351989746094 -37.85052490234375 C 76.27332305908203 -34.91192626953125 74.36865234375 -33.4970588684082 72.46401977539062 -33.4970588684082 C 71.59332275390625 -33.4970588684082 70.72261810302734 -33.76912307739258 69.85192108154297 -34.36772537231445 C 67.94728851318359 -35.78262329101562 66.96775054931641 -38.83005905151367 66.96775054931641 -43.61889266967773 C 66.96775054931641 -48.89745712280273 68.00168609619141 -54.17605972290039 70.1240234375 -59.45465850830078 C 70.40628814697266 -60.12319183349609 70.6966552734375 -60.75925827026367 71.10018920898438 -61.5701904296875 C 71.79005432128906 -62.9622917175293 72.6424560546875 -64.31809234619141 73.55239105224609 -65.38626098632812 C 73.55035400390625 -65.39028930664062 75.96038818359375 -67.56758880615234 77.93185424804688 -67.56758880615234 M 187.0780181884766 -49.38722610473633 C 188.2752227783203 -49.38722610473633 189.4179840087891 -49.55049133300781 190.4519500732422 -49.82258987426758 C 190.2886810302734 -50.2579231262207 190.1798858642578 -51.12862396240234 190.1798858642578 -52.48908996582031 C 190.2342834472656 -55.10119247436523 190.7784881591797 -58.31185913085938 191.8124237060547 -62.2299919128418 C 194.3156890869141 -71.97089385986328 197.5807800292969 -80.07926177978516 201.5533142089844 -86.50062561035156 C 203.7300872802734 -90.09225463867188 205.9067840576172 -92.48665618896484 208.1379547119141 -93.68386077880859 C 205.7979888916016 -94.93549346923828 203.1314544677734 -95.53408813476562 200.1384582519531 -95.53408813476562 C 195.8393859863281 -95.53408813476562 192.6831207275391 -94.60899353027344 190.560791015625 -92.70436096191406 C 189.0370941162109 -91.28945922851562 187.4045257568359 -89.00389099121094 185.6631164550781 -85.90202331542969 C 184.0849914550781 -82.90902709960938 182.6156921386719 -79.58949279785156 181.3640899658203 -75.94345855712891 C 178.8608245849609 -68.97789001464844 177.6091918945312 -63.04629135131836 177.6091918945312 -58.14862442016602 C 177.6091918945312 -55.8630256652832 177.8812866210938 -54.17605972290039 178.4254913330078 -53.03329086303711 C 179.1329193115234 -51.45512390136719 180.9287261962891 -50.36675643920898 183.7584838867188 -49.76815795898438 C 184.8468475341797 -49.49608993530273 185.9352264404297 -49.38722610473633 187.0780181884766 -49.38722610473633 M 82.46303558349609 -63.46421051025391 C 82.46332550048828 -63.46421051025391 82.46365356445312 -63.46421813964844 82.46400451660156 -63.46422958374023 C 82.46279144287109 -63.46441650390625 82.46192169189453 -63.46448135375977 82.46141815185547 -63.46448135375977 C 82.46037292480469 -63.46448135375977 82.46086883544922 -63.46421051025391 82.46303558349609 -63.46421051025391 M 9.574787139892578 -5.688724994659424 L 9.408254623413086 -5.688724994659424 C 6.487954139709473 -5.688724994659424 2.152287483215332 -6.598424911499023 -1.918845772743225 -10.93229198455811 C -4.819612503051758 -13.93949127197266 -6.264779090881348 -18.35479164123535 -6.264779090881348 -24.35475921630859 C -6.264779090881348 -30.52469253540039 -4.569145679473877 -39.14785766601562 -1.08094584941864 -50.71706008911133 C -0.3609083294868469 -53.05747604370117 1.71734356880188 -59.65085983276367 5.218899726867676 -70.51791381835938 L 3.038054227828979 -71.32566070556641 C 0.6221208572387695 -72.220458984375 -1.517879128456116 -73.53836059570312 -3.322445869445801 -75.24272155761719 C -5.041545867919922 -76.86629486083984 -6.399779319763184 -78.82479095458984 -7.359312534332275 -81.06372833251953 C -8.277412414550781 -83.55152130126953 -8.659178733825684 -85.71639251708984 -8.659178733825684 -87.91552734375 L -8.659178733825684 -89.2215576171875 C -8.659178733825684 -90.87205505371094 -8.297612190246582 -92.69285583496094 -7.48677921295166 -95.12532806396484 C -4.033812522888184 -105.1912612915039 4.804920673370361 -112.5051574707031 18.80632019042969 -116.9300918579102 C 24.98445510864258 -118.9071578979492 31.33412170410156 -119.9140548706055 37.65142059326172 -119.9140548706055 C 50.21875381469727 -119.9140548706055 59.56608581542969 -116.4493255615234 65.43378448486328 -109.6160888671875 C 69.41551971435547 -104.8234252929688 71.391357421875 -99.07579040527344 71.391357421875 -92.43225860595703 C 71.391357421875 -92.18362426757812 71.39215087890625 -91.25115966796875 71.33001708984375 -89.75932312011719 C 71.25865936279297 -87.97509002685547 70.91648864746094 -85.84516906738281 70.31175231933594 -83.42160797119141 C 71.81986999511719 -83.73145294189453 73.35918426513672 -83.88902282714844 74.91285705566406 -83.88902282714844 C 80.87485504150391 -83.88902282714844 86.15935516357422 -81.80129241943359 90.19502258300781 -77.85152435302734 C 92.12722015380859 -75.88893890380859 93.68267822265625 -73.65592193603516 94.86315155029297 -71.15827178955078 C 96.20912170410156 -72.82023620605469 97.68978118896484 -74.38278961181641 99.30098724365234 -75.83869171142578 C 102.3330841064453 -78.59526062011719 105.7722549438477 -80.76552581787109 109.5050506591797 -82.27302551269531 C 112.1521530151367 -83.38385772705078 115.6740188598633 -83.94345855712891 120.1737899780273 -83.94345855712891 C 125.9422225952148 -83.94345855712891 130.4388275146484 -83.01662445068359 133.9204559326172 -81.10999298095703 C 134.8123779296875 -80.64080047607422 135.63232421875 -80.08360290527344 136.3749084472656 -79.44735717773438 C 139.8610382080078 -82.40060424804688 144.0349578857422 -83.94345855712891 148.619384765625 -83.94345855712891 C 152.7000274658203 -83.94345855712891 156.5421752929688 -82.68619537353516 160.0586090087891 -80.20364379882812 C 160.4797058105469 -80.50790405273438 160.9013824462891 -80.79092407226562 161.3246154785156 -81.05362701416016 C 164.452880859375 -82.95002746582031 167.7703552246094 -83.88902282714844 171.2574920654297 -83.88902282714844 C 172.7765808105469 -83.88902282714844 174.2230224609375 -83.67454528808594 175.5825653076172 -83.24917602539062 C 176.4851684570312 -85.415283203125 177.4919891357422 -87.557373046875 178.5865936279297 -89.63332366943359 C 180.8792877197266 -93.72285461425781 182.9824829101562 -96.58445739746094 185.1171264648438 -98.56662750244141 C 188.8226470947266 -101.8936614990234 193.8427886962891 -103.5340881347656 200.1384582519531 -103.5340881347656 C 204.4817810058594 -103.5340881347656 208.4427185058594 -102.593391418457 211.9112243652344 -100.7380905151367 L 225.07861328125 -93.69496154785156 L 211.9204559326172 -86.63455963134766 C 211.6899871826172 -86.51089477539062 210.4367828369141 -85.72328948974609 208.3948822021484 -82.35419464111328 C 204.8053894042969 -76.55136108398438 201.8459930419922 -69.13166046142578 199.5606536865234 -60.23882675170898 C 198.6790466308594 -56.89732360839844 198.2183227539062 -54.25072479248047 198.1781616210938 -52.32252502441406 L 198.9859466552734 -50.16864013671875 L 199.0759582519531 -50.13685989379883 L 199.0409240722656 -50.02204895019531 L 201.2879943847656 -44.03049087524414 L 196.9180297851562 -43.06488800048828 L 196.7133178710938 -42.39399337768555 C 196.4175567626953 -41.5855598449707 195.8958587646484 -39.58235931396484 195.7247924804688 -35.24939346313477 L 195.5539855957031 -31.99345779418945 C 194.8968200683594 -25.51272583007812 191.9395599365234 -22.72942543029785 189.5695190429688 -21.47469139099121 C 188.0054168701172 -20.49249076843262 185.5959167480469 -19.8375244140625 183.0510559082031 -19.8375244140625 C 180.4166564941406 -19.8375244140625 177.8421173095703 -20.43215751647949 175.39892578125 -21.60489082336426 C 174.7786865234375 -21.8942756652832 174.2091979980469 -22.20327377319336 173.685791015625 -22.52739715576172 L 170.1955871582031 -21.22755813598633 C 168.2682800292969 -20.58515739440918 166.4261474609375 -20.27285766601562 164.5639801025391 -20.27285766601562 C 160.5492858886719 -20.27285766601562 156.7804260253906 -21.60089111328125 153.6648559570312 -24.11342430114746 C 153.1437225341797 -24.5258903503418 152.6518707275391 -24.96922874450684 152.1913604736328 -25.44063377380371 L 151.1715850830078 -22.36485862731934 L 147.2734527587891 -21.13392448425293 C 145.5784606933594 -20.59869194030762 143.7426605224609 -20.32729148864746 141.8170928955078 -20.32729148864746 C 139.1917266845703 -20.32729148864746 136.7795867919922 -20.8677921295166 134.6476593017578 -21.93379211425781 C 132.3822937011719 -23.00223541259766 130.4764251708984 -24.57586097717285 129.0232543945312 -26.56766700744629 C 123.9182968139648 -22.56622505187988 118.4833831787109 -20.47907829284668 112.8200531005859 -20.33005905151367 L 112.7148513793945 -20.32729148864746 L 112.609619140625 -20.32729148864746 C 105.8242568969727 -20.32729148864746 99.93885040283203 -22.07365798950195 95.11695098876953 -25.51789093017578 C 92.82127380371094 -27.13082885742188 90.94483184814453 -29.04340744018555 89.53108978271484 -31.21327781677246 C 88.80902862548828 -30.24975967407227 88.04148864746094 -29.33333206176758 87.22962188720703 -28.46585845947266 C 82.29962158203125 -23.15062522888184 76.09391784667969 -20.32729148864746 69.30775451660156 -20.32729148864746 C 67.82838439941406 -20.32729148864746 66.27008819580078 -20.47139167785645 64.55718994140625 -20.7828254699707 C 55.87332153320312 -22.33935737609863 49.67111968994141 -27.67422485351562 46.64068603515625 -36.20712661743164 C 45.49155426025391 -39.2264518737793 44.82033920288086 -42.60671615600586 44.68235397338867 -46.15906143188477 C 42.86264801025391 -44.76848983764648 40.98028945922852 -43.46828079223633 39.04235458374023 -42.26472473144531 C 34.33813095092773 -39.30089950561523 29.49403953552246 -37.17762756347656 24.60363578796387 -35.93473434448242 C 21.17624282836914 -26.05549621582031 20.40224075317383 -21.38595962524414 20.30404090881348 -19.27640533447266 L 26.99495506286621 -12.58549118041992 L 17.06732177734375 -7.621658325195312 C 14.72078704833984 -6.448391437530518 12.25592041015625 -5.800391674041748 9.74118709564209 -5.695658206939697 L 9.574787139892578 -5.688724994659424 Z M 38.76388168334961 -94.10472106933594 C 40.62458801269531 -91.43193054199219 41.51562118530273 -88.51878356933594 41.51562118530273 -85.30342864990234 C 41.51562118530273 -82.71202850341797 40.73445510864258 -79.21292114257812 38.9827880859375 -73.95782470703125 C 38.64509963989258 -72.97986602783203 38.0873908996582 -71.44937133789062 37.30661392211914 -69.36152648925781 C 37.87039566040039 -69.90518951416016 38.35652923583984 -70.43399810791016 38.7606201171875 -70.94528961181641 C 41.51581954956055 -74.44772338867188 43.70822143554688 -78.13542175292969 45.26575469970703 -81.89176177978516 C 46.59505462646484 -85.09035491943359 47.26778793334961 -87.90229034423828 47.26778793334961 -90.2554931640625 L 47.22479248046875 -91.78085327148438 C 47.22471618652344 -91.78065490722656 47.22461700439453 -91.78055572509766 47.22450256347656 -91.78055572509766 C 47.21780395507812 -91.78054809570312 47.14582443237305 -92.11295318603516 46.86888885498047 -92.70945739746094 C 46.64905548095703 -93.16422271728516 46.40055465698242 -93.39385986328125 46.23695373535156 -93.51822662353516 C 45.37958908081055 -94.17145538330078 44.00812149047852 -94.49965667724609 42.15291976928711 -94.49965667724609 C 41.2386360168457 -94.4593505859375 40.06797409057617 -94.31833648681641 38.76388168334961 -94.10472106933594 Z" stroke="none" fill="#fff"/>
  </g>
</svg>
