<svg xmlns="http://www.w3.org/2000/svg" width="50" height="50" viewBox="0 0 50 50">
  <path id="man" d="M49.973,1.815a2.064,2.064,0,0,0-.128-.515.063.063,0,0,1,0-.015s0,0,0,0a2.12,2.12,0,0,0-.282-.47c-.027-.034-.054-.068-.083-.1a2.126,2.126,0,0,0-.4-.36L49.063.346A2.052,2.052,0,0,0,48.59.121c-.042-.015-.082-.027-.125-.039A2.077,2.077,0,0,0,47.917,0H33.333a2.083,2.083,0,0,0,0,4.167h9.553L30.452,16.6A18.762,18.762,0,1,0,33.4,19.548L45.833,7.113v9.554a2.083,2.083,0,1,0,4.167,0V2.083c0-.044-.01-.085-.013-.128S49.979,1.862,49.973,1.815ZM18.75,45.833A14.592,14.592,0,1,1,33.333,31.25,14.6,14.6,0,0,1,18.75,45.833Zm0,0" fill="#006fff"/>
</svg>
