<svg xmlns="http://www.w3.org/2000/svg" width="34.734" height="34.708" viewBox="0 0 34.734 34.708">
  <g id="Group_756" data-name="Group 756" transform="translate(-1242.295 -1784.966)">
    <path id="Path_7352" data-name="Path 7352" d="M1349.562,2049.254v-1.133c.582,0,1.146.014,1.708-.01a.56.56,0,0,0,.387-.219c.31-.469.588-.96.917-1.507h-.725c-.952,0-1.9.005-2.857,0a2.881,2.881,0,0,1-2.918-2.911q-.011-4.032,0-8.064a2.878,2.878,0,0,1,2.914-2.914q6.907-.008,13.814,0a2.876,2.876,0,0,1,2.949,2.951q.01,4.014,0,8.028a2.88,2.88,0,0,1-2.918,2.909c-1.145.007-2.29,0-3.435,0a.905.905,0,0,0-.128.028c.335.555.656,1.1,1,1.63.04.062.192.071.293.072.554.007,1.109,0,1.694,0v1.133Zm15.019-6.938c.005-.077.013-.135.013-.192,0-2.253.008-4.507,0-6.76a1.718,1.718,0,0,0-1.776-1.711q-6.905-.007-13.81,0a1.723,1.723,0,0,0-1.773,1.789q0,3.073,0,6.146v.729Zm0,1.192h-17.332a1.7,1.7,0,0,0,1.773,1.717c2.024.008,4.049,0,6.073,0,2.567,0,5.133,0,7.7,0A1.711,1.711,0,0,0,1364.58,2043.508Zm-11.677,4.584h6.02c-.326-.545-.622-1.053-.937-1.549a.394.394,0,0,0-.285-.15q-1.789-.015-3.578,0a.393.393,0,0,0-.284.149C1353.524,2047.039,1353.229,2047.548,1352.9,2048.092Z" transform="translate(-96.251 -229.58)" fill="#006fff"/>
    <path id="Path_7353" data-name="Path 7353" d="M1467.424,1797.146h-7.559a1.769,1.769,0,0,1-1.974-1.991q0-4.1,0-8.21a1.757,1.757,0,0,1,1.937-1.955h15.226a1.753,1.753,0,0,1,1.938,1.918q0,4.177,0,8.355a1.74,1.74,0,0,1-1.865,1.882c-2.568.006-5.136,0-7.7,0Zm5.5-10.973h-10.953v9.8h10.953Zm-12.151-.023c-.361,0-.685,0-1.009,0-.512,0-.714.208-.716.729,0,.964,0,1.927,0,2.891q0,2.764,0,5.528c0,.393.178.656.5.678.4.028.808.007,1.222.007Zm13.353,0v9.838c.341,0,.654,0,.967,0,.539,0,.74-.2.741-.74q0-1.716,0-3.432,0-2.475,0-4.949c0-.436-.186-.693-.546-.712C1474.907,1786.135,1474.523,1786.151,1474.126,1786.151Z" transform="translate(-199.966 -0.022)" fill="#006fff"/>
    <path id="Path_7354" data-name="Path 7354" d="M1242.3,1791.043c0-1.4,0-2.8,0-4.195a1.742,1.742,0,0,1,1.867-1.88q1.917-.006,3.833,0a1.731,1.731,0,0,1,1.823,1.813q.006,4.267,0,8.534a1.725,1.725,0,0,1-1.792,1.807q-1.953.01-3.905,0a1.733,1.733,0,0,1-1.825-1.848C1242.293,1793.864,1242.3,1792.453,1242.3,1791.043Zm6.342,2.592v-5.166h-5.165v5.166Zm-5.183-6.378h5.208c0-.194.006-.362,0-.529a.567.567,0,0,0-.587-.6q-2.021-.013-4.042,0a.564.564,0,0,0-.577.572C1243.446,1786.88,1243.455,1787.059,1243.455,1787.257Zm0,7.563c0,.216-.01.4,0,.574a.563.563,0,0,0,.581.568q2.021.013,4.044,0a.558.558,0,0,0,.578-.569c.011-.187,0-.375,0-.573Z" fill="#006fff"/>
    <path id="Path_7355" data-name="Path 7355" d="M1363.447,1865.216v1.11h-1.128v-1.11Z" transform="translate(-111.323 -74.432)" fill="#006fff"/>
    <path id="Path_7356" data-name="Path 7356" d="M1395.494,1866.3h-1.1v-1.128h1.1Z" transform="translate(-141.071 -74.393)" fill="#006fff"/>
    <path id="Path_7357" data-name="Path 7357" d="M1427.468,1866.318h-1.106v-1.126h1.106Z" transform="translate(-170.723 -74.411)" fill="#006fff"/>
    <path id="Path_7358" data-name="Path 7358" d="M1283.592,1970.126h-1.117v-1.114h1.117Z" transform="translate(-37.267 -170.704)" fill="#006fff"/>
    <path id="Path_7359" data-name="Path 7359" d="M1698.9,1968.951v1.106h-1.126v-1.106Z" transform="translate(-422.462 -170.647)" fill="#006fff"/>
    <path id="Path_7360" data-name="Path 7360" d="M1282.332,2002.043v-1.1h1.127v1.1Z" transform="translate(-37.135 -200.318)" fill="#006fff"/>
    <path id="Path_7361" data-name="Path 7361" d="M1697.6,2001.974v-1.11h1.127v1.11Z" transform="translate(-422.293 -200.246)" fill="#006fff"/>
    <path id="Path_7362" data-name="Path 7362" d="M1282.441,2033.961v-1.117h1.122v1.117Z" transform="translate(-37.236 -229.908)" fill="#006fff"/>
    <path id="Path_7363" data-name="Path 7363" d="M1697.684,2032.731h1.114v1.12h-1.114Z" transform="translate(-422.375 -229.803)" fill="#006fff"/>
    <path id="Path_7364" data-name="Path 7364" d="M1282.406,2065.858v-1.108h1.127v1.108Z" transform="translate(-37.203 -259.501)" fill="#006fff"/>
    <path id="Path_7365" data-name="Path 7365" d="M1697.647,2064.64h1.119v1.124h-1.119Z" transform="translate(-422.341 -259.399)" fill="#006fff"/>
    <path id="Path_7366" data-name="Path 7366" d="M1283.653,2096.654v1.114h-1.12v-1.114Z" transform="translate(-37.321 -289.092)" fill="#006fff"/>
    <path id="Path_7367" data-name="Path 7367" d="M1698.837,2097.783h-1.108v-1.127h1.108Z" transform="translate(-422.417 -289.094)" fill="#006fff"/>
    <path id="Path_7368" data-name="Path 7368" d="M1282.489,2128.542h1.114v1.121h-1.114Z" transform="translate(-37.28 -318.668)" fill="#006fff"/>
    <path id="Path_7369" data-name="Path 7369" d="M1315.644,2129.776h-1.1v-1.127h1.1Z" transform="translate(-67.011 -318.767)" fill="#006fff"/>
    <path id="Path_7370" data-name="Path 7370" d="M1634.937,2128.7v1.109h-1.127V2128.7Z" transform="translate(-363.132 -318.816)" fill="#006fff"/>
    <path id="Path_7371" data-name="Path 7371" d="M1665.739,2128.524h1.116v1.123h-1.116Z" transform="translate(-392.746 -318.651)" fill="#006fff"/>
    <path id="Path_7372" data-name="Path 7372" d="M1698.942,2128.691v1.112h-1.114v-1.112Z" transform="translate(-422.509 -318.806)" fill="#006fff"/>
  </g>
</svg>
