<svg xmlns="http://www.w3.org/2000/svg" xmlns:xlink="http://www.w3.org/1999/xlink" width="33" height="33" viewBox="0 0 33 33">
  <defs>
    <clipPath id="clip-path">
      <rect id="Rectangle_14" data-name="Rectangle 14" width="33" height="33" transform="translate(0.168 0.168)" fill="#006fff" stroke="#fff" stroke-width="2"/>
    </clipPath>
  </defs>
  <g id="Group_4" data-name="Group 4" transform="translate(-45.168 -455.55)">
    <g id="Profile" transform="translate(45 455.381)" clip-path="url(#clip-path)">
      <g id="Icon_awesome-user" data-name="Icon awesome-user" transform="translate(4.493 2.992)" fill="none">
        <path d="M11.735,13.412A6.706,6.706,0,1,0,5.029,6.706,6.705,6.705,0,0,0,11.735,13.412Zm4.694,1.676h-.875a9.12,9.12,0,0,1-7.639,0H7.041A7.043,7.043,0,0,0,0,22.13v2.179a2.515,2.515,0,0,0,2.515,2.515H20.956a2.515,2.515,0,0,0,2.515-2.515V22.13A7.043,7.043,0,0,0,16.43,15.088Z" stroke="none"/>
        <path d="M 11.73544692993164 2 C 9.140566825866699 2 7.029476165771484 4.111089706420898 7.029476165771484 6.705968856811523 C 7.029476165771484 9.300849914550781 9.140566825866699 11.41193962097168 11.73544692993164 11.41193962097168 C 14.33032703399658 11.41193962097168 16.4414176940918 9.300849914550781 16.4414176940918 6.705968856811523 C 16.4414176940918 4.111089706420898 14.33032703399658 2 11.73544692993164 2 M 7.041267395019531 17.08842849731445 C 4.261497497558594 17.08842849731445 1.999996185302734 19.34992980957031 1.999996185302734 22.12969970703125 L 1.999996185302734 24.30913925170898 C 1.999996185302734 24.59296989440918 2.230907440185547 24.82387924194336 2.514736175537109 24.82387924194336 L 20.95615768432617 24.82387924194336 C 21.23998641967773 24.82387924194336 21.47089767456055 24.59296989440918 21.47089767456055 24.30913925170898 L 21.47089767456055 22.12969970703125 C 21.47089767456055 19.34992980957031 19.20939636230469 17.08842849731445 16.42962646484375 17.08842849731445 L 15.97039222717285 17.08842849731445 C 14.61968612670898 17.64492416381836 13.19732856750488 17.92667961120605 11.73544692993164 17.92667961120605 C 10.27858066558838 17.92667961120605 8.856602668762207 17.6448974609375 7.50189208984375 17.08842849731445 L 7.041267395019531 17.08842849731445 M 11.73544692993164 0 C 15.4394474029541 0 18.4414176940918 3.001970291137695 18.4414176940918 6.705968856811523 C 18.4414176940918 10.40996932983398 15.4394474029541 13.41193962097168 11.73544692993164 13.41193962097168 C 8.03144645690918 13.41193962097168 5.029476165771484 10.40996932983398 5.029476165771484 6.705968856811523 C 5.029476165771484 3.001970291137695 8.03144645690918 0 11.73544692993164 0 Z M 7.041267395019531 15.08842945098877 L 7.916187286376953 15.08842945098877 C 9.084486961364746 15.6228199005127 10.3732967376709 15.92667961120605 11.73544692993164 15.92667961120605 C 13.09759712219238 15.92667961120605 14.39163684844971 15.6228199005127 15.55470657348633 15.08842945098877 L 16.42962646484375 15.08842945098877 C 20.31698608398438 15.08842945098877 23.47089767456055 18.24232864379883 23.47089767456055 22.12969970703125 L 23.47089767456055 24.30913925170898 C 23.47089767456055 25.69747924804688 22.34449768066406 26.82387924194336 20.95615768432617 26.82387924194336 L 2.514736175537109 26.82387924194336 C 1.126396179199219 26.82387924194336 -3.814697265625e-06 25.69747924804688 -3.814697265625e-06 24.30913925170898 L -3.814697265625e-06 22.12969970703125 C -3.814697265625e-06 18.24232864379883 3.153896331787109 15.08842945098877 7.041267395019531 15.08842945098877 Z" stroke="none" fill="#fff"/>
      </g>
    </g>
  </g>
</svg>
