<svg xmlns="http://www.w3.org/2000/svg" width="33.674" height="33.57" viewBox="0 0 33.674 33.57">
  <path id="Path_7349" data-name="Path 7349" d="M2942.478,1860.65c-1.18-.969-2.327-1.911-3.474-2.851s-2.3-1.881-3.452-2.827a3.534,3.534,0,0,1-.419-5.568,4.052,4.052,0,0,1,5-1.119q5.128,1.895,10.239,3.837a.682.682,0,0,0,.864-.2q2.564-2.6,5.159-5.169a4.862,4.862,0,0,1,2.86-1.5,3.7,3.7,0,0,1,4.06,5.066,5.593,5.593,0,0,1-1.365,2.1c-1.72,1.723-3.433,3.453-5.165,5.164a.59.59,0,0,0-.158.742q1.908,5.124,3.785,10.259a4.336,4.336,0,0,1-3.775,6.221,3.967,3.967,0,0,1-2.913-1.641c-1.759-2.12-3.493-4.261-5.239-6.393-.115-.141-.235-.278-.387-.456-.959.96-1.832,1.958-2.834,2.8a2.148,2.148,0,0,0-.784,2.693,25.675,25.675,0,0,1,.712,3.055,2.122,2.122,0,0,1-.707,2.239,9.5,9.5,0,0,1-.829.666,1.893,1.893,0,0,1-2.865-.631c-1.05-1.773-2.084-3.555-3.147-5.32a2.132,2.132,0,0,0-.688-.7c-1.789-1.088-3.595-2.148-5.395-3.219a1.76,1.76,0,0,1-.821-2.3c.722-1.527,1.924-2.565,3.7-2.014.756.235,1.537.392,2.309.575a4.132,4.132,0,0,0,1.756.332c.5-.133.868-.757,1.287-1.172C2940.677,1862.446,2941.561,1861.563,2942.478,1860.65Zm-9.951,5.585c.2.123.339.214.483.3,1.8,1.063,3.613,2.118,5.407,3.2a1.915,1.915,0,0,1,.622.627c.772,1.27,1.515,2.557,2.27,3.837q.59,1,1.185,2c.865-.525.9-.578.7-1.453-.346-1.531-.69-3.063-1.06-4.588a.779.779,0,0,1,.235-.844q5.455-5.445,10.889-10.912,3.687-3.7,7.376-7.4a3.021,3.021,0,0,0,.993-1.99,1.7,1.7,0,0,0-1.846-1.858,3.092,3.092,0,0,0-2.072,1.039q-9.092,9.088-18.186,18.174a.864.864,0,0,1-.965.275c-1.564-.42-3.143-.783-4.71-1.193a.728.728,0,0,0-.848.255C2932.859,1865.867,2932.71,1866.027,2932.527,1866.236Zm17-1.291c.025.037.067.11.119.174q2.789,3.416,5.585,6.826a3.71,3.71,0,0,0,.8.69,1.287,1.287,0,0,0,1.558-.035c1.306-.894,1.586-1.832,1-3.424q-1.7-4.6-3.407-9.208c-.061-.165-.131-.327-.2-.491Zm-.274-11.155a2.4,2.4,0,0,0-.238-.117c-2.26-.844-4.518-1.694-6.783-2.527-1.17-.431-2.341-.868-3.535-1.224a1.677,1.677,0,0,0-1.218.083c-1.74,1.074-2.2,2.22-.494,3.63.637.528,1.279,1.052,1.92,1.577l4.909,4.019Z" transform="translate(-2930.226 -1844.908)" fill="#006cfa" stroke="#fff" stroke-width="0.6"/>
</svg>
