<svg xmlns="http://www.w3.org/2000/svg" xmlns:xlink="http://www.w3.org/1999/xlink" width="42.801" height="38.367" viewBox="0 0 42.801 38.367">
  <defs>
    <filter id="Path_7294" x="0" y="0.513" width="39.589" height="37.83" filterUnits="userSpaceOnUse">
      <feOffset dy="3" input="SourceAlpha"/>
      <feGaussianBlur stdDeviation="3" result="blur"/>
      <feFlood flood-opacity="0.161"/>
      <feComposite operator="in" in2="blur"/>
      <feComposite in="SourceGraphic"/>
    </filter>
    <filter id="Path_7295" x="9.384" y="0" width="33.416" height="38.367" filterUnits="userSpaceOnUse">
      <feOffset dy="3" input="SourceAlpha"/>
      <feGaussianBlur stdDeviation="3" result="blur-2"/>
      <feFlood flood-opacity="0.161"/>
      <feComposite operator="in" in2="blur-2"/>
      <feComposite in="SourceGraphic"/>
    </filter>
  </defs>
  <g id="Group_705" data-name="Group 705" transform="translate(-822.721 -721.616)">
    <path id="Path_7293" data-name="Path 7293" d="M837.814,914.736H824.874c-.991,0-1.128-.136-1.129-1.116,0-1.438,0-2.876,0-4.314,0-.757.182-.953.918-.953q13.153-.006,26.306,0c.633,0,.837.21.84.839.008,1.519.007,3.038.005,4.557,0,.825-.165.989-1,.989Q844.315,914.739,837.814,914.736Zm-4.314-5.043c0,.5.008.959,0,1.42-.01.424-.212.715-.661.7s-.631-.3-.631-.732c0-.459,0-.917,0-1.385h-7.1v3.711h7.035a1.371,1.371,0,0,1,.682-.672.657.657,0,0,1,.568.317c.131.414.405.374.712.374q7.872,0,15.745,0h.64v-3.734Z" transform="translate(0 -158.754)" fill="#006fff"/>
    <g transform="matrix(1, 0, 0, 1, 822.72, 721.62)" filter="url(#Path_7294)">
      <path id="Path_7294-2" data-name="Path 7294" d="M897.369,742.431a7.809,7.809,0,0,1-4.761-1.322,7.559,7.559,0,0,1-2.9-8.527c.148-.462.339-.885.917-.706s.474.651.337,1.1a6.214,6.214,0,0,0,4.341,7.936,13.16,13.16,0,0,0,1.741.206c.343.04.49-.1.58-.447a4.773,4.773,0,0,1,1.5-2.377c.345-.306.719-.44,1.053-.042.3.352.178.69-.154,1a3.76,3.76,0,0,0,.21,5.921,4.1,4.1,0,0,0,2.5.8c1.313.043,2.626.1,3.936.182a4.665,4.665,0,0,1,4.263,4.675c-.009.431-.118.8-.6.822-.5.021-.674-.306-.7-.791a3.377,3.377,0,0,0-2.818-3.379c-1.1-.127-2.214-.136-3.323-.17a6.516,6.516,0,0,1-4.318-1.292,5.235,5.235,0,0,1-1.686-2.938C897.44,742.9,897.415,742.7,897.369,742.431Z" transform="translate(-880.34 -725.32)" fill="#006fff"/>
    </g>
    <g transform="matrix(1, 0, 0, 1, 822.72, 721.62)" filter="url(#Path_7295)">
      <path id="Path_7295-2" data-name="Path 7295" d="M976.484,736.019a6.988,6.988,0,0,1,3.2,1.61,6.554,6.554,0,0,1,2.209,4.769c.061,1.577.031,3.158.005,4.737a1.031,1.031,0,0,1-.318.723c-.441.337-.969-.039-.975-.685-.015-1.478,0-2.955-.008-4.433a5.416,5.416,0,0,0-7.532-5.1c-.438.177-.862.261-1.074-.264-.205-.509.106-.819.574-.943a19.782,19.782,0,0,1,2.117-.479c.343-.052.5-.154.554-.49a5.5,5.5,0,0,0-7.366-6.17,2.854,2.854,0,0,0-.28.118c-.427.208-.807.186-1.012-.29-.2-.46.085-.725.473-.9a6.662,6.662,0,0,1,4.153-.468,6.733,6.733,0,0,1,5.324,7.832C976.506,735.71,976.5,735.831,976.484,736.019Z" transform="translate(-948.13 -721.62)" fill="#006fff"/>
    </g>
    <rect id="Rectangle_1844" data-name="Rectangle 1844" width="1.49" height="3.33" rx="0.745" transform="translate(852.682 749.884)" fill="#006fff"/>
    <rect id="Rectangle_1845" data-name="Rectangle 1845" width="1.49" height="3.33" rx="0.745" transform="translate(855.106 749.884)" fill="#006fff"/>
    <rect id="Rectangle_1846" data-name="Rectangle 1846" width="1.49" height="1.996" rx="0.745" transform="translate(852.682 753.986)" fill="#006fff"/>
    <rect id="Rectangle_1847" data-name="Rectangle 1847" width="1.49" height="1.996" rx="0.745" transform="translate(855.106 753.986)" fill="#006fff"/>
  </g>
</svg>
