<svg xmlns="http://www.w3.org/2000/svg" xmlns:xlink="http://www.w3.org/1999/xlink" width="44.804" height="40.367" viewBox="0 0 44.804 40.367">
  <defs>
    <filter id="Path_7294" x="0" y="0.513" width="41.592" height="39.83" filterUnits="userSpaceOnUse">
      <feOffset dy="3" input="SourceAlpha"/>
      <feGaussianBlur stdDeviation="3" result="blur"/>
      <feFlood flood-opacity="0.161"/>
      <feComposite operator="in" in2="blur"/>
      <feComposite in="SourceGraphic"/>
    </filter>
    <filter id="Path_7295" x="9.39" y="0" width="35.414" height="40.367" filterUnits="userSpaceOnUse">
      <feOffset dy="3" input="SourceAlpha"/>
      <feGaussianBlur stdDeviation="3" result="blur-2"/>
      <feFlood flood-opacity="0.161"/>
      <feComposite operator="in" in2="blur-2"/>
      <feComposite in="SourceGraphic"/>
    </filter>
  </defs>
  <g id="Group_705" data-name="Group 705" transform="translate(-821.718 -720.616)">
    <g id="Path_7293" data-name="Path 7293" transform="translate(0 -158.754)" fill="#006fff">
      <path d="M 845.4035034179688 915.2368774414062 C 843.0653076171875 915.2368774414062 840.7272338867188 915.2363891601562 838.3889770507812 915.2359619140625 L 837.8142700195312 915.23583984375 C 835.5484008789062 915.2354125976562 833.2825317382812 915.2352905273438 831.0167846679688 915.2352294921875 C 828.9690551757812 915.2351684570312 826.9214477539062 915.235107421875 824.873779296875 915.2347412109375 C 824.354736328125 915.234619140625 823.899658203125 915.2092895507812 823.5864868164062 914.8992919921875 C 823.2716064453125 914.587646484375 823.2456665039062 914.135009765625 823.2452392578125 913.6188354492188 L 823.2447509765625 913.0073852539062 C 823.24365234375 911.7935180664062 823.2425537109375 910.5382690429688 823.2463989257812 909.3032836914062 C 823.2476806640625 908.9036865234375 823.28759765625 908.493408203125 823.568603515625 908.1990356445312 C 823.86083984375 907.8929443359375 824.286376953125 907.8515014648438 824.6640625 907.851318359375 C 829.1228637695312 907.849365234375 833.5829467773438 907.8484497070312 838.041748046875 907.8484497070312 C 842.3518676757812 907.8484497070312 846.6607666015625 907.8493041992188 850.9708251953125 907.85107421875 C 851.8800659179688 907.8514404296875 852.3057861328125 908.276123046875 852.310546875 909.1875610351562 C 852.318115234375 910.6837768554688 852.3173828125 912.1981201171875 852.31591796875 913.7471923828125 C 852.3154907226562 914.1475219726562 852.2891845703125 914.6001586914062 851.9803466796875 914.9059448242188 C 851.6730346679688 915.2101440429688 851.2180786132812 915.2357177734375 850.8157348632812 915.23583984375 C 849.0117797851562 915.236572265625 847.2075805664062 915.2368774414062 845.4035034179688 915.2368774414062 Z M 833.8777465820312 912.926025390625 C 833.8956909179688 912.9273071289062 833.9218139648438 912.9282836914062 833.959716796875 912.9282836914062 C 833.9815673828125 912.9282836914062 834.0037231445312 912.9280395507812 834.026123046875 912.9277954101562 C 834.0521240234375 912.9275512695312 834.0784301757812 912.92724609375 834.10498046875 912.92724609375 C 836.7291870117188 912.9262084960938 839.3533935546875 912.9259033203125 841.9776611328125 912.9259033203125 L 847.6275024414062 912.9262084960938 L 849.8504028320312 912.9263916015625 L 849.9900512695312 912.9263916015625 L 849.9900512695312 910.192626953125 L 834.0021362304688 910.192626953125 C 834.0038452148438 910.5115356445312 834.0050048828125 910.814697265625 833.9977416992188 911.1239013671875 C 833.9833374023438 911.732666015625 833.6661376953125 912.1602172851562 833.1658935546875 912.280517578125 C 833.4680786132812 912.3807983398438 833.7794189453125 912.6175537109375 833.8695068359375 912.9022827148438 C 833.8724365234375 912.9114990234375 833.875244140625 912.9193725585938 833.8777465820312 912.926025390625 Z M 825.6080322265625 912.908935546875 L 831.867431640625 912.908935546875 C 832.0795288085938 912.60791015625 832.32275390625 912.4003295898438 832.5934448242188 912.2896118164062 C 832.0389404296875 912.1818237304688 831.7047119140625 911.7367553710938 831.7059936523438 911.081787109375 C 831.7066650390625 910.7877807617188 831.70654296875 910.4939575195312 831.7064208984375 910.19775390625 L 825.6080322265625 910.19775390625 L 825.6080322265625 912.908935546875 Z" stroke="none"/>
      <path d="M 845.403564453125 914.7368774414062 C 847.20751953125 914.7368774414062 849.0115966796875 914.7366333007812 850.8156127929688 914.73583984375 C 851.650634765625 914.735595703125 851.8150634765625 914.57177734375 851.81591796875 913.7467041015625 C 851.8173828125 912.2279052734375 851.8182373046875 910.7091064453125 851.810546875 909.190185546875 C 851.8072509765625 908.560791015625 851.6034545898438 908.351318359375 850.9706420898438 908.35107421875 C 846.6605834960938 908.3493041992188 842.3517456054688 908.3484497070312 838.041748046875 908.3484497070312 C 833.5830078125 908.3484497070312 829.123046875 908.349365234375 824.664306640625 908.351318359375 C 823.9283447265625 908.3516845703125 823.7488403320312 908.5477294921875 823.7463989257812 909.3048095703125 C 823.741943359375 910.74267578125 823.744140625 912.1805419921875 823.7452392578125 913.618408203125 C 823.7460327148438 914.5982666015625 823.8828735351562 914.7344970703125 824.8738403320312 914.7347412109375 C 829.1873168945312 914.7354736328125 833.500732421875 914.7349853515625 837.8143920898438 914.73583984375 C 840.3441772460938 914.736328125 842.873779296875 914.7368774414062 845.403564453125 914.7368774414062 M 832.876708984375 912.7290649414062 C 832.857421875 912.7290649414062 832.8400268554688 912.7314453125 832.8250122070312 912.736572265625 C 832.5433959960938 912.8328857421875 832.3186645507812 913.0955810546875 832.1434936523438 913.408935546875 L 825.1080322265625 913.408935546875 L 825.1080322265625 909.69775390625 L 832.2062377929688 909.69775390625 C 832.2062377929688 910.1654052734375 832.20703125 910.6240234375 832.2059936523438 911.082763671875 C 832.2051391601562 911.5098876953125 832.39208984375 911.802001953125 832.8365478515625 911.8145751953125 C 832.845947265625 911.8148193359375 832.8551635742188 911.81494140625 832.8643188476562 911.81494140625 C 833.2943725585938 911.81494140625 833.488037109375 911.5269165039062 833.4978637695312 911.1121826171875 C 833.5086669921875 910.651611328125 833.5003051757812 910.1907958984375 833.5003051757812 909.692626953125 L 850.4900512695312 909.692626953125 L 850.4900512695312 913.4263916015625 C 850.2481689453125 913.4263916015625 850.0492553710938 913.4263916015625 849.850341796875 913.4263916015625 C 847.2261352539062 913.4262084960938 844.6018676757812 913.4259033203125 841.9776611328125 913.4259033203125 C 839.3534545898438 913.4259033203125 836.7293090820312 913.4262084960938 834.1051635742188 913.42724609375 C 834.0556640625 913.42724609375 834.0070190429688 913.4282836914062 833.959716796875 913.4282836914062 C 833.7135009765625 913.4282836914062 833.502685546875 913.4000854492188 833.392822265625 913.0531005859375 C 833.3474731445312 912.9097290039062 833.0436401367188 912.7290649414062 832.876708984375 912.7290649414062 M 845.4035034179688 915.7368774414062 C 843.0482788085938 915.7368774414062 840.6932373046875 915.7363891601562 838.3380126953125 915.7359619140625 L 837.814208984375 915.73583984375 C 835.54833984375 915.7354125976562 833.2825317382812 915.7352905273438 831.0167236328125 915.7352294921875 C 828.9690551757812 915.7351684570312 826.92138671875 915.735107421875 824.8736572265625 915.7347412109375 C 824.2896118164062 915.734619140625 823.6820678710938 915.6973876953125 823.2347412109375 915.254638671875 C 822.7461547851562 914.7710571289062 822.74560546875 914.077880859375 822.7452392578125 913.6192016601562 L 822.7447509765625 913.0078125 C 822.74365234375 911.79345703125 822.7425537109375 910.5377197265625 822.7463989257812 909.3016967773438 C 822.7479248046875 908.8226318359375 822.8038940429688 908.2760009765625 823.2069702148438 907.853759765625 C 823.6317138671875 907.4088745117188 824.2086791992188 907.3515625 824.663818359375 907.351318359375 C 829.1227416992188 907.349365234375 833.5828247070312 907.3484497070312 838.041748046875 907.3484497070312 C 842.3519287109375 907.3484497070312 846.660888671875 907.3493041992188 850.9710693359375 907.35107421875 C 852.1510620117188 907.3515625 852.8043212890625 908.0028076171875 852.810546875 909.1849365234375 C 852.818115234375 910.6826171875 852.8173828125 912.1978149414062 852.81591796875 913.7476806640625 C 852.8153686523438 914.28564453125 852.75634765625 914.84130859375 852.3320922851562 915.2612915039062 C 851.9110107421875 915.6781005859375 851.3545532226562 915.7356567382812 850.81591796875 915.73583984375 C 849.0119018554688 915.736572265625 847.2076416015625 915.7368774414062 845.4035034179688 915.7368774414062 Z M 834.075439453125 912.29052734375 C 834.1145629882812 912.333984375 834.1510620117188 912.3796997070312 834.1842651367188 912.4271850585938 C 836.7821044921875 912.4262084960938 839.3797607421875 912.4259033203125 841.9776611328125 912.4259033203125 L 847.5244140625 912.4262084960938 L 849.4900512695312 912.4263916015625 L 849.4900512695312 910.692626953125 L 834.503173828125 910.692626953125 C 834.502685546875 910.8399658203125 834.5010986328125 910.9867553710938 834.49755859375 911.1356201171875 C 834.4866333007812 911.5999145507812 834.332763671875 911.9983520507812 834.075439453125 912.29052734375 Z M 826.1080322265625 912.408935546875 L 831.623046875 912.408935546875 C 831.6408081054688 912.38818359375 831.6587524414062 912.3678588867188 831.6768798828125 912.3480224609375 C 831.3771362304688 912.0425415039062 831.2049560546875 911.6036376953125 831.2059936523438 911.0807495117188 C 831.206298828125 910.953125 831.2064208984375 910.8255004882812 831.2064819335938 910.69775390625 L 826.1080322265625 910.69775390625 L 826.1080322265625 912.408935546875 Z" stroke="none" fill="#fff"/>
    </g>
    <g transform="matrix(1, 0, 0, 1, 821.72, 720.62)" filter="url(#Path_7294)">
      <g id="Path_7294-2" data-name="Path 7294" transform="translate(-879.34 -724.32)" fill="#006fff">
        <path d="M 910.2803955078125 752.1630859375 C 909.9523315429688 752.1630859375 909.1835327148438 752.0394897460938 909.130126953125 750.8942260742188 C 909.0574951171875 749.3372802734375 908.0802612304688 748.1424560546875 906.7537231445312 747.9885864257812 C 905.876708984375 747.886962890625 904.9644165039062 747.8624267578125 904.0820922851562 747.838623046875 C 903.8787841796875 747.8331909179688 903.675537109375 747.8276977539062 903.4725341796875 747.8213500976562 C 901.976318359375 747.7743530273438 900.261474609375 747.6226196289062 898.8450317382812 746.4095458984375 C 897.9136352539062 745.6119384765625 897.3092041015625 744.5632934570312 896.997314453125 743.2037353515625 C 896.9766845703125 743.1136474609375 896.9598999023438 743.0238037109375 896.9443359375 742.93212890625 C 895.1760864257812 742.9031372070312 893.6631469726562 742.4404907226562 892.3244018554688 741.5203247070312 C 890.891845703125 740.5355834960938 889.8369750976562 739.141357421875 889.2738647460938 737.4884033203125 C 888.7107543945312 735.8355712890625 888.6944580078125 734.0858154296875 889.226806640625 732.4284057617188 C 889.3320922851562 732.1006469726562 889.57861328125 731.3331909179688 890.3702392578125 731.3331909179688 C 890.4962158203125 731.3331909179688 890.6298828125 731.3547973632812 890.7674560546875 731.3973388671875 C 891.3746337890625 731.5850830078125 891.5220336914062 732.0155639648438 891.5558471679688 732.2554321289062 C 891.5972900390625 732.5501098632812 891.5193481445312 732.8450927734375 891.4359130859375 733.1220092773438 C 890.9564208984375 734.7120361328125 891.1257934570312 736.3560791015625 891.9127197265625 737.7512817382812 C 892.6690063476562 739.09228515625 893.9154052734375 740.04345703125 895.4222412109375 740.4295654296875 C 895.7560424804688 740.51513671875 896.1172485351562 740.5419921875 896.4996948242188 740.5704956054688 C 896.6942749023438 740.5849609375 896.8955078125 740.5999145507812 897.0965576171875 740.6233520507812 C 897.1015625 740.6239624023438 897.1064453125 740.6244506835938 897.111083984375 740.6248779296875 C 897.1180419921875 740.6060180664062 897.1264038085938 740.5802612304688 897.1355590820312 740.5457153320312 C 897.400634765625 739.542236328125 897.956298828125 738.6596069335938 898.7872924804688 737.9224853515625 C 899.1018676757812 737.6432495117188 899.4052124023438 737.5074462890625 899.7144775390625 737.5074462890625 C 899.9348754882812 737.5074462890625 900.259521484375 737.5811767578125 900.5546875 737.932373046875 C 900.9954833984375 738.4564208984375 900.923828125 739.0877075195312 900.3629150390625 739.6209106445312 C 899.5620727539062 740.3822631835938 899.1423950195312 741.32763671875 899.1813354492188 742.2828979492188 C 899.2195434570312 743.2225341796875 899.7029418945312 744.1129150390625 900.5423583984375 744.7899780273438 C 901.0828857421875 745.225830078125 901.803955078125 745.4526977539062 902.7467651367188 745.4835205078125 C 904.2750244140625 745.53369140625 905.5306396484375 745.5916137695312 906.6983642578125 745.6658325195312 C 907.976318359375 745.7470092773438 909.1764526367188 746.33740234375 910.0776977539062 747.328369140625 C 910.9757080078125 748.315673828125 911.4558715820312 749.56640625 911.4297485351562 750.85009765625 C 911.407470703125 751.9527587890625 910.7420043945312 752.1451416015625 910.3472900390625 752.1616821289062 C 910.3247680664062 752.1626586914062 910.3023681640625 752.1630859375 910.2803955078125 752.1630859375 Z" stroke="none"/>
        <path d="M 910.2803955078125 751.6630859375 C 910.29541015625 751.6630859375 910.3107299804688 751.6627807617188 910.3263549804688 751.662109375 C 910.8115844726562 751.6417846679688 910.921142578125 751.270751953125 910.9298706054688 750.8399658203125 C 910.9783325195312 748.455322265625 909.0436401367188 746.3157958984375 906.6666259765625 746.1648559570312 C 905.35595703125 746.08154296875 904.0431518554688 746.0263671875 902.7304077148438 745.9832763671875 C 901.813720703125 745.9533081054688 900.931396484375 745.7460327148438 900.2284545898438 745.1791381835938 C 898.2357177734375 743.5718994140625 898.1640014648438 741.0214233398438 900.0184326171875 739.258544921875 C 900.349609375 738.9437255859375 900.4677734375 738.6058349609375 900.1719360351562 738.2540893554688 C 900.0252075195312 738.0795288085938 899.8707885742188 738.0074462890625 899.7144775390625 738.0074462890625 C 899.5150146484375 738.0074462890625 899.3125 738.1248779296875 899.1190795898438 738.2965087890625 C 898.3884887695312 738.9446411132812 897.8677368164062 739.7315673828125 897.6189575195312 740.6734008789062 C 897.5381469726562 740.9794311523438 897.4127807617188 741.12646484375 897.1434326171875 741.12646484375 C 897.1107177734375 741.12646484375 897.0758666992188 741.1243286132812 897.0387573242188 741.1199951171875 C 896.4580078125 741.0523681640625 895.8590698242188 741.0576782226562 895.298095703125 740.9139404296875 C 891.8399047851562 740.0277099609375 889.9044189453125 736.468994140625 890.9571533203125 732.9777221679688 C 891.0933837890625 732.525634765625 891.2095336914062 732.057373046875 890.6196899414062 731.875 C 890.527099609375 731.8463745117188 890.4443969726562 731.8331909179688 890.3702392578125 731.8331909179688 C 889.9820556640625 731.8331909179688 889.8273315429688 732.1937866210938 889.702880859375 732.581298828125 C 888.685302734375 735.7493896484375 889.8702392578125 739.2265625 892.6076049804688 741.1082763671875 C 893.960205078125 742.0379638671875 895.4619750976562 742.43359375 897.122802734375 742.43359375 C 897.204345703125 742.43359375 897.2865600585938 742.4326171875 897.368896484375 742.4307250976562 C 897.41455078125 742.6951293945312 897.439697265625 742.895751953125 897.4846801757812 743.0919189453125 C 897.7483520507812 744.2413330078125 898.2469482421875 745.2390747070312 899.1702880859375 746.02978515625 C 900.43115234375 747.109619140625 901.9321899414062 747.272705078125 903.4881591796875 747.3215942382812 C 904.5970458984375 747.3563232421875 905.711669921875 747.364501953125 906.8113403320312 747.491943359375 C 908.3919067382812 747.6752319335938 909.5467529296875 749.0960693359375 909.6295776367188 750.8709106445312 C 909.6514892578125 751.3413696289062 909.8125610351562 751.6630859375 910.2803955078125 751.6630859375 M 910.2803955078125 752.6630859375 C 909.522216796875 752.6630859375 908.690673828125 752.2045288085938 908.6306762695312 750.91748046875 C 908.5697021484375 749.6104736328125 907.774169921875 748.6102905273438 906.6961669921875 748.4852905273438 C 905.8411254882812 748.38623046875 904.9801635742188 748.363037109375 904.068603515625 748.3385009765625 C 903.8646240234375 748.3330078125 903.66064453125 748.3274536132812 903.4568481445312 748.3211059570312 C 901.87548828125 748.2714233398438 900.0595703125 748.1079711914062 898.5198364257812 746.789306640625 C 897.5278930664062 745.9398803710938 896.877685546875 744.8363647460938 896.5341796875 743.418212890625 C 894.8355712890625 743.327880859375 893.3607177734375 742.83935546875 892.0411376953125 741.932373046875 C 890.5192260742188 740.8861694335938 889.398681640625 739.4052734375 888.800537109375 737.649658203125 C 888.2025756835938 735.8943481445312 888.185302734375 734.0359497070312 888.7507934570312 732.2755126953125 C 888.8325805664062 732.0208740234375 888.9420776367188 731.7256469726562 889.1343994140625 731.46630859375 C 889.4371337890625 731.0580444335938 889.8760375976562 730.8331909179688 890.3702392578125 730.8331909179688 C 890.54638671875 730.8331909179688 890.729736328125 730.8623046875 890.9152221679688 730.919677734375 C 891.55126953125 731.1163330078125 891.9652709960938 731.5778198242188 892.0509033203125 732.1857299804688 C 892.1065673828125 732.5807495117188 892.009765625 732.9505615234375 891.9146118164062 733.2662353515625 C 891.474853515625 734.7246704101562 891.6288452148438 736.230224609375 892.3482055664062 737.5056762695312 C 893.0369873046875 738.7268676757812 894.1727294921875 739.59326171875 895.5463256835938 739.9452514648438 C 895.8372802734375 740.019775390625 896.1770629882812 740.0451049804688 896.5368041992188 740.0718383789062 C 896.6071166992188 740.0770874023438 896.6781616210938 740.0823974609375 896.7500610351562 740.088134765625 C 897.0686645507812 739.1238403320312 897.6411743164062 738.2708129882812 898.4554443359375 737.5484619140625 C 898.85986328125 737.1895141601562 899.2835083007812 737.0074462890625 899.7144775390625 737.0074462890625 C 900.1762084960938 737.0074462890625 900.6105346679688 737.2216796875 900.9374389648438 737.6106567382812 C 901.5489501953125 738.3377075195312 901.458740234375 739.2691040039062 900.7073974609375 739.9833374023438 C 900.0125122070312 740.6439208984375 899.64794921875 741.453369140625 899.680908203125 742.2625122070312 C 899.7131958007812 743.05615234375 900.130615234375 743.8154907226562 900.8562622070312 744.4007568359375 C 901.30908203125 744.7659301757812 901.9328002929688 744.9566650390625 902.7630615234375 744.9838256835938 C 904.296630859375 745.0341186523438 905.55712890625 745.09228515625 906.7300415039062 745.1668701171875 C 908.1382446289062 745.2562866210938 909.45849609375 745.9044189453125 910.4475708007812 746.991943359375 C 911.4320068359375 748.0743408203125 911.9583740234375 749.4481201171875 911.9296875 750.8602905273438 C 911.9208374023438 751.2946166992188 911.8368530273438 751.6307373046875 911.6652221679688 751.91796875 C 911.3928833007812 752.3736572265625 910.9322509765625 752.6375732421875 910.3682250976562 752.6612548828125 C 910.3389282226562 752.6624755859375 910.3093872070312 752.6630859375 910.2803955078125 752.6630859375 Z" stroke="none" fill="#fff"/>
      </g>
    </g>
    <g transform="matrix(1, 0, 0, 1, 821.72, 720.62)" filter="url(#Path_7295)">
      <g id="Path_7295-2" data-name="Path 7295" transform="translate(-947.12 -720.62)" fill="#006fff">
        <path d="M 981.2337646484375 748.4835205078125 C 980.608154296875 748.4835205078125 980.1123046875 747.90966796875 980.1050415039062 747.1770629882812 C 980.0955200195312 746.2190551757812 980.096435546875 745.246337890625 980.0972900390625 744.3056640625 C 980.0977783203125 743.7838134765625 980.0982666015625 743.2620239257812 980.0970458984375 742.7401733398438 C 980.0901489257812 739.9234619140625 977.941650390625 737.7169799804688 975.2057495117188 737.7169799804688 C 974.547607421875 737.7169799804688 973.8902587890625 737.8477783203125 973.2518920898438 738.1056518554688 C 973.0537109375 738.185791015625 972.791259765625 738.27783203125 972.5199584960938 738.27783203125 C 972.0648193359375 738.27783203125 971.712158203125 738.0248413085938 971.5269775390625 737.5654907226562 C 971.3538208007812 737.1359252929688 971.4359741210938 736.8088989257812 971.5353393554688 736.6101684570312 C 971.693115234375 736.2946166992188 972.0045166015625 736.0670776367188 972.435791015625 735.9522705078125 C 973.2311401367188 735.740234375 973.8961181640625 735.5694580078125 974.6063232421875 735.4617919921875 C 974.6707153320312 735.4519653320312 974.7089233398438 735.4425048828125 974.73046875 735.4358520507812 C 974.73388671875 735.4236450195312 974.738037109375 735.4061889648438 974.7421875 735.3820190429688 C 975.073974609375 733.4486694335938 974.5092163085938 731.8450317382812 973.0635375976562 730.6156005859375 C 972.1198120117188 729.8130493164062 971.0746459960938 729.4061279296875 969.9570922851562 729.4061279296875 C 969.345703125 729.4061279296875 968.7005004882812 729.5275268554688 968.039306640625 729.7669677734375 C 967.9572143554688 729.7966918945312 967.879638671875 729.829345703125 967.8085327148438 729.864013671875 C 967.56982421875 729.980712890625 967.341064453125 730.0399780273438 967.12890625 730.0399780273438 C 966.8668823242188 730.0400390625 966.3870239257812 729.94677734375 966.1178588867188 729.3220825195312 C 966.0134887695312 729.0796508789062 965.7579345703125 728.2518310546875 966.8477783203125 727.7704467773438 C 967.82958984375 727.3362426757812 968.8356323242188 727.1160278320312 969.8378295898438 727.1160278320312 C 970.323974609375 727.1160278320312 970.8177490234375 727.1680297851562 971.305419921875 727.2705688476562 C 973.2041625976562 727.6697998046875 974.8319091796875 728.7464599609375 975.888671875 730.3023071289062 C 976.9384155273438 731.8477172851562 977.34130859375 733.7423706054688 977.0248413085938 735.6412963867188 C 978.2026977539062 735.97216796875 979.1856689453125 736.5033569335938 980.0192260742188 737.2578125 C 981.515380859375 738.612060546875 982.3138427734375 740.3348388671875 982.392578125 742.3782348632812 C 982.451171875 743.8984375 982.4258422851562 745.4401245117188 982.4013671875 746.9310913085938 L 982.3978881835938 747.1424560546875 C 982.3922119140625 747.4934692382812 982.2288818359375 747.9913940429688 981.8837890625 748.2549438476562 C 981.6879272460938 748.4044799804688 981.4631958007812 748.4835205078125 981.2337646484375 748.4835205078125 Z" stroke="none"/>
        <path d="M 969.8377685546875 727.6160278320312 C 968.8858642578125 727.6160278320312 967.9557495117188 727.8271484375 967.0498046875 728.227783203125 C 966.662109375 728.3990478515625 966.3790283203125 728.664306640625 966.5770263671875 729.1242065429688 C 966.7040405273438 729.4190063476562 966.898193359375 729.5399780273438 967.1288452148438 729.5399780273438 C 967.2708740234375 729.5399780273438 967.4267578125 729.4940795898438 967.5892333984375 729.4146728515625 C 967.6800537109375 729.370361328125 967.77392578125 729.331298828125 967.8690185546875 729.296875 C 968.5847778320312 729.0376586914062 969.2821044921875 728.9061279296875 969.9570922851562 728.9061279296875 C 971.1840209960938 728.9061279296875 972.3366088867188 729.341064453125 973.387451171875 730.2347412109375 C 974.99267578125 731.599853515625 975.5938720703125 733.3753051757812 975.2349853515625 735.4664306640625 C 975.177490234375 735.802001953125 975.0244140625 735.904052734375 974.6812744140625 735.9561157226562 C 973.9676513671875 736.0643310546875 973.263671875 736.2490234375 972.564453125 736.4354248046875 C 972.0968017578125 736.5599365234375 971.785400390625 736.869140625 971.99072265625 737.3785400390625 C 972.1106567382812 737.6760864257812 972.2992553710938 737.77783203125 972.5199584960938 737.77783203125 C 972.6881713867188 737.77783203125 972.8751220703125 737.7186889648438 973.0645751953125 737.64208984375 C 973.7825927734375 737.3519897460938 974.5057983398438 737.2169799804688 975.2057495117188 737.2169799804688 C 978.099853515625 737.2169799804688 980.5891723632812 739.5274047851562 980.5970458984375 742.739013671875 C 980.6004638671875 744.2166748046875 980.59033203125 745.6944580078125 980.60498046875 747.1720581054688 C 980.6098022460938 747.6527099609375 980.9026489257812 747.9835205078125 981.2337646484375 747.9835205078125 C 981.34814453125 747.9835205078125 981.4671020507812 747.9439697265625 981.580322265625 747.8575439453125 C 981.7664794921875 747.7153930664062 981.8939208984375 747.3828125 981.89794921875 747.13427734375 C 981.9237060546875 745.5555419921875 981.9537353515625 743.9743041992188 981.8929443359375 742.3974609375 C 981.820556640625 740.5185546875 981.0927734375 738.9039916992188 979.6837158203125 737.6285400390625 C 978.7806396484375 736.8111572265625 977.712158203125 736.3033447265625 976.484130859375 736.0189819335938 C 976.501953125 735.8312377929688 976.505859375 735.7099609375 976.526123046875 735.5916748046875 C 977.1571044921875 731.9077758789062 974.8668212890625 728.5302734375 971.2025146484375 727.7598876953125 C 970.7428588867188 727.6632080078125 970.2879028320312 727.6160278320312 969.8377685546875 727.6160278320312 M 969.8378295898438 726.6160278320312 C 970.3584594726562 726.6160278320312 970.8868408203125 726.671630859375 971.4083251953125 726.7813110351562 C 973.434326171875 727.207275390625 975.17236328125 728.35791015625 976.30224609375 730.0213012695312 C 977.3441772460938 731.5552368164062 977.7904052734375 733.4090576171875 977.5787963867188 735.2880249023438 C 978.6495971679688 735.6436157226562 979.5634765625 736.1708984375 980.3547973632812 736.8871459960938 C 981.9544067382812 738.3350830078125 982.80810546875 740.1760864257812 982.8922119140625 742.3589477539062 C 982.9513549804688 743.8928833007812 982.9259033203125 745.4415893554688 982.9013061523438 746.9393310546875 L 982.8978271484375 747.1505737304688 C 982.8899536132812 747.6339111328125 982.667236328125 748.2857666015625 982.187255859375 748.6522827148438 C 981.9034423828125 748.8690185546875 981.5737915039062 748.9835205078125 981.2337646484375 748.9835205078125 C 980.33056640625 748.9835205078125 979.6151123046875 748.1921997070312 979.6050415039062 747.1820678710938 C 979.5955200195312 746.2213134765625 979.596435546875 745.2471923828125 979.5972900390625 744.3052368164062 C 979.5977783203125 743.783935546875 979.5982666015625 743.2626342773438 979.5970458984375 742.7413330078125 C 979.5939331054688 741.4819946289062 979.1257934570312 740.3247680664062 978.27880859375 739.48291015625 C 977.4574584960938 738.6665649414062 976.3660888671875 738.2169799804688 975.2057495117188 738.2169799804688 C 974.6121215820312 738.2169799804688 974.0177612304688 738.3355102539062 973.439208984375 738.5692749023438 C 973.1990356445312 738.6663208007812 972.87744140625 738.77783203125 972.5199584960938 738.77783203125 C 971.8568725585938 738.77783203125 971.3259887695312 738.404052734375 971.063232421875 737.75244140625 C 970.8738403320312 737.282470703125 970.8826904296875 736.79736328125 971.088134765625 736.3865356445312 C 971.3087158203125 735.9454956054688 971.7416381835938 735.6196899414062 972.3071899414062 735.4691162109375 C 972.8803100585938 735.3162841796875 973.579833984375 735.1298217773438 974.2925415039062 735.0062866210938 C 974.4961547851562 733.3707275390625 973.9863891601562 732.0568237304688 972.7396240234375 730.9965209960938 C 971.8768310546875 730.2628173828125 970.9666748046875 729.9061279296875 969.9570922851562 729.9061279296875 C 969.4039306640625 729.9061279296875 968.8159790039062 730.0174560546875 968.2095336914062 730.2371215820312 C 968.14404296875 730.2608032226562 968.0829467773438 730.2864379882812 968.0277099609375 730.3134155273438 C 967.7203979492188 730.463623046875 967.417724609375 730.5399780273438 967.1288452148438 730.5399780273438 C 966.4835205078125 730.5399780273438 965.9338989257812 730.1586303710938 965.65869140625 729.5199584960938 C 965.3630981445312 728.8334350585938 965.4443969726562 727.84375 966.6456909179688 727.3130493164062 C 967.6914672851562 726.8505859375 968.7655639648438 726.6160278320312 969.8378295898438 726.6160278320312 Z" stroke="none" fill="#fff"/>
      </g>
    </g>
    <g id="Rectangle_1844" data-name="Rectangle 1844" transform="translate(852.682 749.884)" fill="#006fff" stroke="#fff" stroke-width="1">
      <rect width="1.49" height="3.33" rx="0.745" stroke="none"/>
      <rect x="-0.5" y="-0.5" width="2.49" height="4.33" rx="1.245" fill="none"/>
    </g>
    <g id="Rectangle_1845" data-name="Rectangle 1845" transform="translate(855.106 749.884)" fill="#006fff" stroke="#fff" stroke-width="1">
      <rect width="1.49" height="3.33" rx="0.745" stroke="none"/>
      <rect x="-0.5" y="-0.5" width="2.49" height="4.33" rx="1.245" fill="none"/>
    </g>
    <g id="Rectangle_1846" data-name="Rectangle 1846" transform="translate(852.682 753.986)" fill="#006fff" stroke="#fff" stroke-width="1">
      <rect width="1.49" height="1.996" rx="0.745" stroke="none"/>
      <rect x="-0.5" y="-0.5" width="2.49" height="2.996" rx="1.245" fill="none"/>
    </g>
    <g id="Rectangle_1847" data-name="Rectangle 1847" transform="translate(855.106 753.986)" fill="#006fff" stroke="#fff" stroke-width="1">
      <rect width="1.49" height="1.996" rx="0.745" stroke="none"/>
      <rect x="-0.5" y="-0.5" width="2.49" height="2.996" rx="1.245" fill="none"/>
    </g>
  </g>
</svg>
