<svg xmlns="http://www.w3.org/2000/svg" xmlns:xlink="http://www.w3.org/1999/xlink" width="33" height="33" viewBox="0 0 33 33">
  <defs>
    <clipPath id="clip-path">
      <rect id="Rectangle_1747" data-name="Rectangle 1747" width="33" height="33" fill="#fff" stroke="#707070" stroke-width="0.5"/>
    </clipPath>
  </defs>
  <g id="Group_509" data-name="Group 509" transform="translate(-14 -310)">
    <path id="Path_7161" data-name="Path 7161" d="M24.76,9.721h0v4.487a.868.868,0,0,1-.7.536c-.513.1-1.021.218-1.533.319a.356.356,0,0,0-.3.258,6.634,6.634,0,0,1-.436,1.012.313.313,0,0,0,.033.365c.293.429.579.862.864,1.3a.756.756,0,0,1-.122,1.094q-1.4,1.358-2.8,2.71a.817.817,0,0,1-1.131.119c-.449-.276-.9-.552-1.34-.835a.342.342,0,0,0-.378-.032,7.062,7.062,0,0,1-1.047.421.366.366,0,0,0-.273.315c-.1.5-.22.989-.332,1.483a.769.769,0,0,1-.863.677q-2.005,0-4.011,0a.769.769,0,0,1-.861-.678c-.113-.494-.231-.987-.332-1.483a.383.383,0,0,0-.3-.323,7.018,7.018,0,0,1-1.024-.414.324.324,0,0,0-.357.023c-.45.288-.9.569-1.361.848A.817.817,0,0,1,5.021,21.8q-1.4-1.352-2.8-2.71A.751.751,0,0,1,2.1,17.995c.285-.434.57-.868.864-1.3a.313.313,0,0,0,.032-.365,6.56,6.56,0,0,1-.436-1.012.357.357,0,0,0-.3-.259c-.52-.1-1.038-.216-1.557-.325A.757.757,0,0,1,0,13.9q0-1.939,0-3.879a.757.757,0,0,1,.7-.832c.511-.107,1.021-.22,1.533-.32A.373.373,0,0,0,2.561,8.6,6.573,6.573,0,0,1,3,7.592a.3.3,0,0,0-.023-.345c-.3-.435-.588-.875-.877-1.316a.751.751,0,0,1,.126-1.092q1.4-1.357,2.8-2.71a.812.812,0,0,1,1.13-.117c.456.279.91.56,1.36.848a.323.323,0,0,0,.357.019,7.2,7.2,0,0,1,1.047-.421.353.353,0,0,0,.267-.294c.1-.5.229-.987.33-1.483A.851.851,0,0,1,10.069,0h4.639a.849.849,0,0,1,.554.68c.1.5.225.987.33,1.482a.352.352,0,0,0,.265.295,7.066,7.066,0,0,1,1.046.42.339.339,0,0,0,.377-.025c.435-.28.878-.55,1.318-.822a.824.824,0,0,1,1.167.111q1.393,1.343,2.781,2.69a.761.761,0,0,1,.129,1.111c-.284.434-.569.867-.863,1.295a.313.313,0,0,0-.028.365,6.681,6.681,0,0,1,.435,1.011.356.356,0,0,0,.306.255c.512.1,1.02.22,1.532.319.334.064.8.932.8.932m-8.072,1.857" transform="translate(18.337 314.605)" fill="none" stroke="#fff" stroke-width="1.75"/>
    <g id="Goals" transform="translate(14 310)" clip-path="url(#clip-path)">
      <g id="Icon_feather-target" data-name="Icon feather-target" transform="translate(11.49 10.88)">
        <path id="Path_7166" data-name="Path 7166" d="M19.56,14.28A5.28,5.28,0,1,1,14.28,9a5.28,5.28,0,0,1,5.28,5.28Z" transform="translate(-9 -9)" fill="none" stroke="#fff" stroke-linecap="round" stroke-linejoin="round" stroke-width="1"/>
        <path id="Path_7167" data-name="Path 7167" d="M24.35,19.675A4.675,4.675,0,1,1,19.675,15,4.675,4.675,0,0,1,24.35,19.675Z" transform="translate(-14.342 -14.342)" fill="none" stroke="#fff" stroke-linecap="round" stroke-linejoin="round" stroke-width="1"/>
      </g>
    </g>
  </g>
</svg>
