<svg xmlns="http://www.w3.org/2000/svg" xmlns:xlink="http://www.w3.org/1999/xlink" width="24.902" height="35" viewBox="0 0 24.902 35">
  <defs>
    <clipPath id="clip-path">
      <rect id="Rectangle_1742" data-name="Rectangle 1742" width="24.902" height="35" transform="translate(-4 -4)" fill="#fff"/>
    </clipPath>
  </defs>
  <g id="Group_497" data-name="Group 497" transform="translate(4 4)">
    <g id="Group_496" data-name="Group 496" clip-path="url(#clip-path)">
      <path id="Path_7157" data-name="Path 7157" d="M9.808,0a11.419,11.419,0,0,1,1.9.418,8.724,8.724,0,0,1,6.12,7.566,8.567,8.567,0,0,1-2.5,7.229,5.051,5.051,0,0,0-1.418,2.693,6.492,6.492,0,0,0-.074,1.34c.008.194-.062.269-.263.269q-4.619-.006-9.239,0c-.239,0-.284-.106-.276-.309a5.374,5.374,0,0,0-.613-2.84,6.985,6.985,0,0,0-1.077-1.373A8.653,8.653,0,0,1,.052,9.887a8.725,8.725,0,0,1,2.43-7.138A8.739,8.739,0,0,1,7.86.044c.074-.01.148-.029.222-.044Z" transform="translate(0)" fill="none" stroke="#fff" stroke-width="1.5"/>
      <path id="Path_7158" data-name="Path 7158" d="M112.524,481.387a.934.934,0,0,1-.567-.754.823.823,0,0,1,.864-.882c1.294,0,2.589,0,3.883,0,.3,0,.592,0,.888,0a.826.826,0,0,1,.421,1.569c-.036.022-.071.045-.107.068Z" transform="translate(-106.27 -454.387)" fill="#fff"/>
      <path id="Path_7159" data-name="Path 7159" d="M84.754,417.408c-1.344,0-2.689,0-4.033,0a.821.821,0,0,1-.459-1.506.811.811,0,0,1,.478-.141q4.046,0,8.091,0a.823.823,0,1,1-.019,1.645c-1.353,0-2.706,0-4.058,0" transform="translate(-75.834 -393.922)" fill="#fff"/>
    </g>
  </g>
</svg>
