<svg xmlns="http://www.w3.org/2000/svg" xmlns:xlink="http://www.w3.org/1999/xlink" width="117.401" height="123.25" viewBox="0 0 117.401 123.25">
  <defs>
    <filter id="Path_7248" x="0" y="0" width="117.401" height="123.25" filterUnits="userSpaceOnUse">
      <feOffset dy="3" input="SourceAlpha"/>
      <feGaussianBlur stdDeviation="15" result="blur"/>
      <feFlood flood-opacity="0.161"/>
      <feComposite operator="in" in2="blur"/>
      <feComposite in="SourceGraphic"/>
    </filter>
  </defs>
  <g transform="matrix(1, 0, 0, 1, 0, 0)" filter="url(#Path_7248)">
    <path id="Path_7248-2" data-name="Path 7248" d="M1077.537,1406.158l-1.972.317c-1.235,1.841-1.556,3.578,0,5.6.57.743.243,2.226.2,3.367a4.945,4.945,0,0,1-.508,1.767,4.809,4.809,0,0,1-.806.99c-.219-.4-.728-.937-.613-1.175,1.18-2.446.589-4.537-.707-6.8-.482-.84.215-2.355.392-3.7l-1.916-.355.456-1.965-4.893-3.848-1.294.535c.157.8.295,1.508.431,2.207-2.917.713-3.756,2.826-2.229,5.244a5.756,5.756,0,0,1-.711,7.023c-1.042-.974-.473-1.995-.254-3.07.183-.9.385-2.114-.054-2.759-1.3-1.911-1.732-3.72-.216-5.861l-2.312-.5.431-2.232c-3.756-1.6-5.948-4.394-5.6-8.588a7.587,7.587,0,0,1,5.693-7.011c3.877-1.15,7.012.254,9.439,3.587,2.548-1.194,5.284-1.666,7.679-.034a11.319,11.319,0,0,1,3.87,4.361c1.883,4.155-.233,8.372-5.036,10.6Zm-12.951-4.185c-1.064-1.742-.284-2.173,1.122-2.632a6.541,6.541,0,0,0,4.278-7.492,6.758,6.758,0,0,0-6.516-5.474,6.888,6.888,0,0,0-6.617,5.4,6.493,6.493,0,0,0,4.228,7.516c1.539.5,2.094,1.094,1.305,2.684Zm3.879-2.335c1.324.951,2.4,2.085,3.721,2.576,1.437.535,2.179,1.043,1.235,2.768l2.244-.108c-.774-1.5-.453-2.086,1.069-2.546a6.176,6.176,0,0,0,4.482-5.706,6.67,6.67,0,0,0-10.106-6.238C1072.194,1393.873,1071.222,1396.821,1068.464,1399.638Z" transform="translate(-1010.33 -1342.95)" fill="#006cfa"/>
  </g>
</svg>
