<svg xmlns="http://www.w3.org/2000/svg" width="32.218" height="28.077" viewBox="0 0 32.218 28.077">
  <g id="Group_510" data-name="Group 510" transform="translate(-941.041 -412.677)">
    <path id="Path_7168" data-name="Path 7168" d="M967.651,430.6a12.969,12.969,0,0,1-13.675,9.452,13.391,13.391,0,0,1,.525-26.723c6.112-.152,12.7,4.574,13.114,9.489a24.877,24.877,0,0,1-2.614-.033c-.285-.03-.617-.4-.78-.693a10.142,10.142,0,0,0-9.616-5.674,10.3,10.3,0,1,0,9.564,14.95,1.144,1.144,0,0,1,1.259-.78C966.135,430.648,966.85,430.6,967.651,430.6Z" transform="translate(0 0)" fill="#fff" stroke="#006fff" stroke-width="1.3"/>
    <path id="Path_7169" data-name="Path 7169" d="M1056.79,467.4v-3.146h4.4c.028-.528.051-.951.082-1.537l3.629,3.1-3.62,3.107-.093-1.527Z" transform="translate(-92.029 -39.113)" fill="#fff" stroke="#006fff" stroke-width="0.5"/>
  </g>
</svg>
