<svg xmlns="http://www.w3.org/2000/svg" width="30.362" height="33.13" viewBox="0 0 30.362 33.13">
  <g id="Path_7233" data-name="Path 7233" transform="translate(-1457.358 -1325.357)" fill="#006cfa">
    <path d="M 1487.159545898438 1357.987060546875 L 1486.59912109375 1357.987060546875 L 1458.47900390625 1357.987060546875 L 1457.918579101562 1357.987060546875 L 1457.982177734375 1357.430297851562 L 1460.668212890625 1333.929809570312 L 1460.718872070312 1333.486572265625 L 1461.164916992188 1333.486572265625 L 1465.689819335938 1333.486572265625 C 1465.689453125 1333.242065429688 1465.689208984375 1333.0078125 1465.691162109375 1332.771484375 C 1465.716064453125 1329.732055664062 1467.50927734375 1327.220458984375 1470.371215820312 1326.217041015625 C 1471.052368164062 1325.978149414062 1471.77001953125 1325.857055664062 1472.504150390625 1325.857055664062 C 1473.83837890625 1325.857055664062 1475.199462890625 1326.27001953125 1476.336669921875 1327.019653320312 C 1477.51904296875 1327.799072265625 1478.4052734375 1328.883178710938 1478.899658203125 1330.154907226562 C 1479.233276367188 1331.01318359375 1479.395751953125 1331.905151367188 1479.396362304688 1332.8818359375 L 1479.396484375 1333.468627929688 L 1483.91064453125 1333.468627929688 L 1484.356811523438 1333.468627929688 L 1484.407470703125 1333.911865234375 L 1485.818115234375 1346.252685546875 L 1487.095947265625 1357.430297851562 L 1487.159545898438 1357.987060546875 Z M 1460.463134765625 1355.740112304688 L 1484.614868164062 1355.740112304688 L 1482.344848632812 1335.864868164062 L 1482.336059570312 1335.787963867188 L 1479.391723632812 1335.787963867188 C 1479.3896484375 1335.995971679688 1479.390380859375 1336.1953125 1479.403930664062 1336.38916015625 C 1479.40576171875 1336.41357421875 1479.428588867188 1336.466064453125 1479.445190429688 1336.484130859375 C 1479.903198242188 1336.941284179688 1480.091430664062 1337.470458984375 1480.004150390625 1338.056396484375 C 1479.884521484375 1338.857299804688 1479.274169921875 1339.459838867188 1478.485473632812 1339.556030273438 C 1478.412475585938 1339.56494140625 1478.33837890625 1339.569458007812 1478.265258789062 1339.569458007812 C 1477.573486328125 1339.569458007812 1476.94091796875 1339.1640625 1476.653686523438 1338.536499023438 C 1476.32470703125 1337.819091796875 1476.503662109375 1337.00537109375 1477.109497070312 1336.463745117188 C 1477.1123046875 1336.461181640625 1477.11572265625 1336.458129882812 1477.119384765625 1336.454833984375 C 1477.125366210938 1336.232543945312 1477.125610351562 1336.00634765625 1477.124755859375 1335.78369140625 L 1467.9462890625 1335.78369140625 C 1467.945556640625 1336.011596679688 1467.94580078125 1336.23193359375 1467.950805664062 1336.451293945312 C 1468.335083007812 1336.796875 1468.558227539062 1337.256958007812 1468.579467773438 1337.749267578125 C 1468.599975585938 1338.224243164062 1468.427734375 1338.677856445312 1468.094360351562 1339.026611328125 C 1467.765747070312 1339.370361328125 1467.301025390625 1339.567626953125 1466.819580078125 1339.567626953125 C 1466.335693359375 1339.567626953125 1465.86865234375 1339.368774414062 1465.538452148438 1339.02197265625 C 1465.2060546875 1338.672973632812 1465.0341796875 1338.220947265625 1465.0546875 1337.749145507812 C 1465.075927734375 1337.258422851562 1465.300048828125 1336.797607421875 1465.686279296875 1336.448974609375 C 1465.691284179688 1336.231811523438 1465.691528320312 1336.0146484375 1465.690795898438 1335.790283203125 L 1462.740966796875 1335.790283203125 C 1461.98095703125 1342.448974609375 1461.223022460938 1349.086059570312 1460.463134765625 1355.740112304688 Z M 1467.939331054688 1333.468994140625 L 1477.134521484375 1333.468994140625 C 1477.13330078125 1333.424560546875 1477.132202148438 1333.380493164062 1477.131103515625 1333.336547851562 C 1477.119873046875 1332.888305664062 1477.109375 1332.46484375 1477.059448242188 1332.051025390625 C 1476.814086914062 1330.012817382812 1475.005004882812 1328.2978515625 1472.941040039062 1328.146606445312 C 1472.821655273438 1328.137817382812 1472.700561523438 1328.133422851562 1472.581298828125 1328.133422851562 C 1471.229858398438 1328.133422851562 1469.9609375 1328.695556640625 1469.099731445312 1329.675659179688 C 1468.484008789062 1330.376342773438 1467.808471679688 1331.5888671875 1467.939331054688 1333.468994140625 Z" stroke="none"/>
    <path d="M 1486.59912109375 1357.487060546875 C 1485.702392578125 1349.641235351562 1484.807861328125 1341.819213867188 1483.91064453125 1333.968627929688 L 1478.896484375 1333.968627929688 C 1478.896484375 1333.584228515625 1478.896484375 1333.233154296875 1478.896362304688 1332.882080078125 C 1478.895874023438 1332.005493164062 1478.753295898438 1331.158325195312 1478.43359375 1330.336059570312 C 1477.490844726562 1327.910888671875 1475.02734375 1326.357055664062 1472.504150390625 1326.357055664062 C 1471.84375 1326.357055664062 1471.178955078125 1326.463623046875 1470.53662109375 1326.688842773438 C 1467.864990234375 1327.625610351562 1466.21435546875 1329.936645507812 1466.191162109375 1332.775512695312 C 1466.18798828125 1333.166015625 1466.190551757812 1333.556396484375 1466.190551757812 1333.986572265625 L 1461.164916992188 1333.986572265625 C 1460.267578125 1341.838134765625 1459.37451171875 1349.652099609375 1458.47900390625 1357.487060546875 L 1486.59912109375 1357.487060546875 M 1462.294799804688 1335.290283203125 L 1466.189331054688 1335.290283203125 C 1466.189331054688 1335.731323242188 1466.1962890625 1336.163208007812 1466.182495117188 1336.594482421875 C 1466.18017578125 1336.668090820312 1466.098999023438 1336.75146484375 1466.034912109375 1336.807983398438 C 1465.449584960938 1337.324462890625 1465.388671875 1338.139770507812 1465.900512695312 1338.677124023438 C 1466.148315429688 1338.937377929688 1466.484008789062 1339.067626953125 1466.819580078125 1339.067626953125 C 1467.153198242188 1339.067626953125 1467.486572265625 1338.938842773438 1467.73291015625 1338.68115234375 C 1468.244384765625 1338.146118164062 1468.18505859375 1337.322998046875 1467.603149414062 1336.811157226562 C 1467.538818359375 1336.754516601562 1467.45703125 1336.67138671875 1467.454711914062 1336.598266601562 C 1467.440673828125 1336.166748046875 1467.44775390625 1335.734252929688 1467.44775390625 1335.28369140625 L 1477.622924804688 1335.28369140625 C 1477.622924804688 1335.723022460938 1477.631591796875 1336.1640625 1477.614868164062 1336.604370117188 C 1477.61181640625 1336.684448242188 1477.5146484375 1336.772338867188 1477.442749023438 1336.83642578125 C 1477.004760742188 1337.22802734375 1476.870971679688 1337.810791015625 1477.108276367188 1338.328369140625 C 1477.31787109375 1338.786254882812 1477.7685546875 1339.069458007812 1478.26513671875 1339.069458007812 C 1478.317993164062 1339.069458007812 1478.371337890625 1339.066284179688 1478.424926757812 1339.059692382812 C 1478.981689453125 1338.991821289062 1479.423095703125 1338.561889648438 1479.509643554688 1337.982788085938 C 1479.577026367188 1337.530029296875 1479.414428710938 1337.159912109375 1479.091430664062 1336.837524414062 C 1478.990112304688 1336.736450195312 1478.915283203125 1336.5673828125 1478.905151367188 1336.424072265625 C 1478.879272460938 1336.054565429688 1478.896484375 1335.681884765625 1478.896484375 1335.287963867188 L 1482.7822265625 1335.287963867188 C 1483.57861328125 1342.260498046875 1484.374877929688 1349.23193359375 1485.175170898438 1356.240112304688 L 1459.90283203125 1356.240112304688 C 1460.700805664062 1349.252075195312 1461.49658203125 1342.283203125 1462.294799804688 1335.290283203125 M 1472.581298828125 1327.633422851562 C 1472.712768554688 1327.633422851562 1472.84521484375 1327.63818359375 1472.9775390625 1327.64794921875 C 1475.274780273438 1327.816284179688 1477.279418945312 1329.695068359375 1477.555908203125 1331.9912109375 C 1477.63330078125 1332.633544921875 1477.620849609375 1333.286743164062 1477.6513671875 1333.968994140625 L 1467.487060546875 1333.968994140625 C 1466.977416992188 1330.039306640625 1469.640014648438 1327.633422851562 1472.581298828125 1327.633422851562 M 1487.719970703125 1358.487060546875 L 1486.59912109375 1358.487060546875 L 1458.47900390625 1358.487060546875 L 1457.358154296875 1358.487060546875 L 1457.485473632812 1357.37353515625 L 1460.17138671875 1333.873046875 L 1460.272705078125 1332.986572265625 L 1461.164916992188 1332.986572265625 L 1465.18994140625 1332.986572265625 C 1465.190185546875 1332.91357421875 1465.190551757812 1332.840576171875 1465.191162109375 1332.767456054688 C 1465.2177734375 1329.511108398438 1467.139282226562 1326.820434570312 1470.205688476562 1325.7451171875 C 1470.940185546875 1325.487670898438 1471.713500976562 1325.357055664062 1472.504150390625 1325.357055664062 C 1473.93505859375 1325.357055664062 1475.393920898438 1325.79931640625 1476.611938476562 1326.602172851562 C 1477.881225585938 1327.43896484375 1478.83349609375 1328.604858398438 1479.365600585938 1329.973754882812 C 1479.717163085938 1330.878051757812 1479.895751953125 1331.856323242188 1479.896362304688 1332.881469726562 L 1479.896362304688 1332.968627929688 L 1483.91064453125 1332.968627929688 L 1484.802856445312 1332.968627929688 L 1484.904174804688 1333.855102539062 L 1486.31494140625 1346.195922851562 L 1487.592651367188 1357.37353515625 L 1487.719970703125 1358.487060546875 Z M 1461.023559570312 1355.240112304688 L 1484.054443359375 1355.240112304688 L 1481.889892578125 1336.287963867188 L 1479.9453125 1336.287963867188 C 1480.524291992188 1336.957885742188 1480.569946289062 1337.651245117188 1480.498779296875 1338.130004882812 C 1480.345336914062 1339.156372070312 1479.560668945312 1339.9287109375 1478.5458984375 1340.052368164062 C 1478.453002929688 1340.063720703125 1478.358642578125 1340.069458007812 1478.265380859375 1340.069458007812 C 1477.378540039062 1340.069458007812 1476.567504882812 1339.549438476562 1476.199096679688 1338.74462890625 C 1475.82080078125 1337.919677734375 1475.978759765625 1336.962158203125 1476.583618164062 1336.28369140625 L 1468.487670898438 1336.28369140625 C 1468.848876953125 1336.69189453125 1469.055908203125 1337.194091796875 1469.078979492188 1337.727661132812 C 1469.10546875 1338.339965820312 1468.884155273438 1338.924072265625 1468.455810546875 1339.372192382812 C 1468.033203125 1339.814086914062 1467.436889648438 1340.067504882812 1466.819702148438 1340.067626953125 C 1466.199462890625 1340.067626953125 1465.600463867188 1339.812255859375 1465.17626953125 1339.36669921875 C 1464.749389648438 1338.91845703125 1464.528686523438 1338.336303710938 1464.555053710938 1337.7275390625 C 1464.578125 1337.197875976562 1464.783935546875 1336.697631835938 1465.141479492188 1336.290283203125 L 1463.187133789062 1336.290283203125 C 1462.465209960938 1342.614379882812 1461.7451171875 1348.92041015625 1461.023559570312 1355.240112304688 Z M 1468.423706054688 1332.968994140625 L 1476.620849609375 1332.968994140625 C 1476.611083984375 1332.671630859375 1476.59619140625 1332.3857421875 1476.563110351562 1332.11083984375 C 1476.34521484375 1330.301879882812 1474.738159179688 1328.779663085938 1472.904418945312 1328.645263671875 C 1472.797119140625 1328.637451171875 1472.688354492188 1328.633422851562 1472.581298828125 1328.633422851562 C 1471.373657226562 1328.633422851562 1470.241577148438 1329.133544921875 1469.475341796875 1330.005737304688 C 1468.7890625 1330.786743164062 1468.432006835938 1331.799560546875 1468.423706054688 1332.968994140625 Z" stroke="none" fill="#fff"/>
  </g>
</svg>
