<svg xmlns="http://www.w3.org/2000/svg" width="28.12" height="31.13" viewBox="0 0 28.12 31.13">
  <path id="Path_7233" data-name="Path 7233" d="M1486.6,1357.487h-28.12l2.686-23.5h5.026c0-.43,0-.821,0-1.211a6.353,6.353,0,0,1,12.242-2.439,6.955,6.955,0,0,1,.463,2.546c0,.351,0,.7,0,1.087h5.014C1484.808,1341.819,1485.7,1349.641,1486.6,1357.487Zm-1.424-1.247-2.393-20.952H1478.9c0,.394-.017.767.009,1.136a.7.7,0,0,0,.186.413,1.281,1.281,0,0,1,.418,1.145,1.252,1.252,0,0,1-1.085,1.077,1.267,1.267,0,0,1-.982-2.223c.072-.064.169-.152.172-.232.017-.44.008-.881.008-1.321h-10.175c0,.451-.007.883.007,1.315,0,.073.084.156.148.213a1.266,1.266,0,1,1-1.568,0c.064-.057.145-.14.148-.214.014-.431.007-.863.007-1.3h-3.895c-.8,6.993-1.594,13.962-2.392,20.95Zm-7.524-22.271c-.031-.682-.018-1.335-.1-1.978a5.074,5.074,0,0,0-4.578-4.343c-3.093-.227-6.023,2.216-5.49,6.321Z" transform="translate(-1458.479 -1326.357)" fill="#006cfa"/>
</svg>
