<svg xmlns="http://www.w3.org/2000/svg" width="32.074" height="30.995" viewBox="0 0 32.074 30.995">
  <path id="Path_7351" data-name="Path 7351" d="M3395.946,2104.794l-1.487,1.119c-.1.074-.2.148-.3.221a.514.514,0,0,1-.777-.106,3.661,3.661,0,0,1-.74-2.435,3.764,3.764,0,0,1,1.618-2.95c1.005-.745,2-1.5,3.005-2.251a.336.336,0,0,0,.138-.315q-.011-3.272-.017-6.544c0-.492.178-.671.669-.672h3.3c.464,0,.643.182.643.651q0,1.5,0,2.994v.3c.165-.118.3-.21.427-.307q1.895-1.427,3.787-2.858a3.578,3.578,0,0,1,4.549.043c1.134.884,2.293,1.733,3.442,2.6l7.881,5.927c.3.228.611.448.9.7a3.789,3.789,0,0,1,.6,5.059.534.534,0,0,1-.861.139c-.507-.378-1.012-.76-1.518-1.14l-.23-.169v.4q0,6.607,0,13.214a3.039,3.039,0,0,1-.463,1.706,2.806,2.806,0,0,1-2.333,1.386c-1.32.042-2.642.019-3.964.021q-2.694,0-5.388,0-4.9,0-9.807,0a2.967,2.967,0,0,1-2.349-1.051,2.889,2.889,0,0,1-.723-1.948q0-4.749.005-9.5c0-1.363,0-2.725-.007-4.087Zm18.849,15.649a.548.548,0,0,0,.089.02c1.053,0,2.106.021,3.159,0a1.872,1.872,0,0,0,1.836-1.663,10.933,10.933,0,0,0,.036-1.358q0-6.566,0-13.131a.412.412,0,0,0,0-.143.625.625,0,0,0-.138-.268q-2.183-1.661-4.378-3.308-2.72-2.046-5.443-4.089a2.489,2.489,0,0,0-3,0q-2.026,1.528-4.053,3.054-2.885,2.171-5.768,4.345a.383.383,0,0,0-.127.27q-.01,3.169-.005,6.337,0,3.985,0,7.969a1.948,1.948,0,0,0,1.985,1.987q3.593,0,7.186,0h.246v-1.071q0-5.069,0-10.138a.545.545,0,0,1,.6-.6q3.571,0,7.142,0c.435,0,.629.2.629.629q0,3.107,0,6.214v4.941Zm8.15-15.5a2.723,2.723,0,0,0-.84-3.382q-1.023-.767-2.045-1.538-2.074-1.566-4.147-3.133-1.912-1.439-3.831-2.868c-.782-.585-1.553-1.186-2.353-1.744a2.277,2.277,0,0,0-1.878-.29,3.546,3.546,0,0,0-1.314.751q-2.314,1.744-4.631,3.486a.877.877,0,0,1-.325.169c-.368.079-.63-.169-.63-.586q0-1.827,0-3.655v-.219h-2.5v.236q0,3.138.01,6.277a.66.66,0,0,1-.277.583c-1.1.82-2.181,1.655-3.283,2.467a2.826,2.826,0,0,0-1.152,1.746,2.686,2.686,0,0,0,.214,1.7c.06-.039.107-.066.149-.1l1.318-.993q2.672-2.005,5.343-4.01c1.857-1.4,3.709-2.8,5.568-4.2a3.431,3.431,0,0,1,4.036-.122c1.443,1.018,2.836,2.108,4.25,3.168q1.138.854,2.274,1.712l4.845,3.646Zm-9.227,4.791H3407.5v10.721h6.222Z" transform="translate(-3392.512 -2090.662)" fill="#006fff" stroke="#006fff" stroke-width="0.25"/>
</svg>
